<?xml version="1.0" encoding="utf-8" standalone="no"?>
<!DOCTYPE svg PUBLIC "-//W3C//DTD SVG 1.1//EN"
  "http://www.w3.org/Graphics/SVG/1.1/DTD/svg11.dtd">
<!-- Created with matplotlib (https://matplotlib.org/) -->
<svg height="665.693375pt" version="1.1" viewBox="0 0 669.3425 665.693375" width="669.3425pt" xmlns="http://www.w3.org/2000/svg" xmlns:xlink="http://www.w3.org/1999/xlink">
 <defs>
  <style type="text/css">
*{stroke-linecap:butt;stroke-linejoin:round;}
  </style>
 </defs>
 <g id="figure_1">
  <g id="patch_1">
   <path d="M 0 665.693375 
L 669.3425 665.693375 
L 669.3425 0 
L 0 0 
z
" style="fill:#ffffff;"/>
  </g>
  <g id="axes_1">
   <g id="patch_2">
    <path d="M 59.5025 621.504 
L 662.1425 621.504 
L 662.1425 22.752 
L 59.5025 22.752 
z
" style="fill:#ffffff;"/>
   </g>
   <g id="patch_3">
    <path clip-path="url(#p1def87c203)" d="M 86.895227 621.504 
L 99.636031 621.504 
L 99.636031 611.044435 
L 86.895227 611.044435 
z
" style="fill:#02b72e;opacity:0.6;stroke:#000000;stroke-linejoin:miter;"/>
   </g>
   <g id="patch_4">
    <path clip-path="url(#p1def87c203)" d="M 99.636031 621.504 
L 112.376834 621.504 
L 112.376834 516.908348 
L 99.636031 516.908348 
z
" style="fill:#02b72e;opacity:0.6;stroke:#000000;stroke-linejoin:miter;"/>
   </g>
   <g id="patch_5">
    <path clip-path="url(#p1def87c203)" d="M 112.376834 621.504 
L 125.117637 621.504 
L 125.117637 175.229217 
L 112.376834 175.229217 
z
" style="fill:#02b72e;opacity:0.6;stroke:#000000;stroke-linejoin:miter;"/>
   </g>
   <g id="patch_6">
    <path clip-path="url(#p1def87c203)" d="M 125.117637 621.504 
L 137.858441 621.504 
L 137.858441 179.490522 
L 125.117637 179.490522 
z
" style="fill:#02b72e;opacity:0.6;stroke:#000000;stroke-linejoin:miter;"/>
   </g>
   <g id="patch_7">
    <path clip-path="url(#p1def87c203)" d="M 137.858441 621.504 
L 150.599244 621.504 
L 150.599244 51.264 
L 137.858441 51.264 
z
" style="fill:#02b72e;opacity:0.6;stroke:#000000;stroke-linejoin:miter;"/>
   </g>
   <g id="patch_8">
    <path clip-path="url(#p1def87c203)" d="M 150.599244 621.504 
L 163.340048 621.504 
L 163.340048 475.457478 
L 150.599244 475.457478 
z
" style="fill:#02b72e;opacity:0.6;stroke:#000000;stroke-linejoin:miter;"/>
   </g>
   <g id="patch_9">
    <path clip-path="url(#p1def87c203)" d="M 163.340048 621.504 
L 176.080851 621.504 
L 176.080851 127.192696 
L 163.340048 127.192696 
z
" style="fill:#02b72e;opacity:0.6;stroke:#000000;stroke-linejoin:miter;"/>
   </g>
   <g id="patch_10">
    <path clip-path="url(#p1def87c203)" d="M 176.080851 621.504 
L 188.821654 621.504 
L 188.821654 246.121826 
L 176.080851 246.121826 
z
" style="fill:#02b72e;opacity:0.6;stroke:#000000;stroke-linejoin:miter;"/>
   </g>
   <g id="patch_11">
    <path clip-path="url(#p1def87c203)" d="M 188.821654 621.504 
L 201.562458 621.504 
L 201.562458 327.474 
L 188.821654 327.474 
z
" style="fill:#02b72e;opacity:0.6;stroke:#000000;stroke-linejoin:miter;"/>
   </g>
   <g id="patch_12">
    <path clip-path="url(#p1def87c203)" d="M 201.562458 621.504 
L 214.303261 621.504 
L 214.303261 360.01487 
L 201.562458 360.01487 
z
" style="fill:#02b72e;opacity:0.6;stroke:#000000;stroke-linejoin:miter;"/>
   </g>
   <g id="patch_13">
    <path clip-path="url(#p1def87c203)" d="M 214.303261 621.504 
L 227.044064 621.504 
L 227.044064 209.707043 
L 214.303261 209.707043 
z
" style="fill:#02b72e;opacity:0.6;stroke:#000000;stroke-linejoin:miter;"/>
   </g>
   <g id="patch_14">
    <path clip-path="url(#p1def87c203)" d="M 227.044064 621.504 
L 239.784868 621.504 
L 239.784868 478.944 
L 227.044064 478.944 
z
" style="fill:#02b72e;opacity:0.6;stroke:#000000;stroke-linejoin:miter;"/>
   </g>
   <g id="patch_15">
    <path clip-path="url(#p1def87c203)" d="M 239.784868 621.504 
L 252.525671 621.504 
L 252.525671 401.078348 
L 239.784868 401.078348 
z
" style="fill:#02b72e;opacity:0.6;stroke:#000000;stroke-linejoin:miter;"/>
   </g>
   <g id="patch_16">
    <path clip-path="url(#p1def87c203)" d="M 252.525671 621.504 
L 265.266475 621.504 
L 265.266475 330.960522 
L 252.525671 330.960522 
z
" style="fill:#02b72e;opacity:0.6;stroke:#000000;stroke-linejoin:miter;"/>
   </g>
   <g id="patch_17">
    <path clip-path="url(#p1def87c203)" d="M 265.266475 621.504 
L 278.007278 621.504 
L 278.007278 358.077913 
L 265.266475 358.077913 
z
" style="fill:#02b72e;opacity:0.6;stroke:#000000;stroke-linejoin:miter;"/>
   </g>
   <g id="patch_18">
    <path clip-path="url(#p1def87c203)" d="M 278.007278 621.504 
L 290.748081 621.504 
L 290.748081 543.638348 
L 278.007278 543.638348 
z
" style="fill:#02b72e;opacity:0.6;stroke:#000000;stroke-linejoin:miter;"/>
   </g>
   <g id="patch_19">
    <path clip-path="url(#p1def87c203)" d="M 290.748081 621.504 
L 303.488885 621.504 
L 303.488885 313.527913 
L 290.748081 313.527913 
z
" style="fill:#02b72e;opacity:0.6;stroke:#000000;stroke-linejoin:miter;"/>
   </g>
   <g id="patch_20">
    <path clip-path="url(#p1def87c203)" d="M 303.488885 621.504 
L 316.229688 621.504 
L 316.229688 584.314435 
L 303.488885 584.314435 
z
" style="fill:#02b72e;opacity:0.6;stroke:#000000;stroke-linejoin:miter;"/>
   </g>
   <g id="patch_21">
    <path clip-path="url(#p1def87c203)" d="M 316.229688 621.504 
L 328.970492 621.504 
L 328.970492 374.348348 
L 316.229688 374.348348 
z
" style="fill:#02b72e;opacity:0.6;stroke:#000000;stroke-linejoin:miter;"/>
   </g>
   <g id="patch_22">
    <path clip-path="url(#p1def87c203)" d="M 328.970492 621.504 
L 341.711295 621.504 
L 341.711295 531.629217 
L 328.970492 531.629217 
z
" style="fill:#02b72e;opacity:0.6;stroke:#000000;stroke-linejoin:miter;"/>
   </g>
   <g id="patch_23">
    <path clip-path="url(#p1def87c203)" d="M 341.711295 621.504 
L 354.452098 621.504 
L 354.452098 478.169217 
L 341.711295 478.169217 
z
" style="fill:#02b72e;opacity:0.6;stroke:#000000;stroke-linejoin:miter;"/>
   </g>
   <g id="patch_24">
    <path clip-path="url(#p1def87c203)" d="M 354.452098 621.504 
L 367.192902 621.504 
L 367.192902 552.935739 
L 354.452098 552.935739 
z
" style="fill:#02b72e;opacity:0.6;stroke:#000000;stroke-linejoin:miter;"/>
   </g>
   <g id="patch_25">
    <path clip-path="url(#p1def87c203)" d="M 367.192902 621.504 
L 379.933705 621.504 
L 379.933705 446.015739 
L 367.192902 446.015739 
z
" style="fill:#02b72e;opacity:0.6;stroke:#000000;stroke-linejoin:miter;"/>
   </g>
   <g id="patch_26">
    <path clip-path="url(#p1def87c203)" d="M 379.933705 621.504 
L 392.674508 621.504 
L 392.674508 560.296174 
L 379.933705 560.296174 
z
" style="fill:#02b72e;opacity:0.6;stroke:#000000;stroke-linejoin:miter;"/>
   </g>
   <g id="patch_27">
    <path clip-path="url(#p1def87c203)" d="M 392.674508 621.504 
L 405.415312 621.504 
L 405.415312 527.755304 
L 392.674508 527.755304 
z
" style="fill:#02b72e;opacity:0.6;stroke:#000000;stroke-linejoin:miter;"/>
   </g>
   <g id="patch_28">
    <path clip-path="url(#p1def87c203)" d="M 405.415312 621.504 
L 418.156115 621.504 
L 418.156115 577.341391 
L 405.415312 577.341391 
z
" style="fill:#02b72e;opacity:0.6;stroke:#000000;stroke-linejoin:miter;"/>
   </g>
   <g id="patch_29">
    <path clip-path="url(#p1def87c203)" d="M 418.156115 621.504 
L 430.896919 621.504 
L 430.896919 526.205739 
L 418.156115 526.205739 
z
" style="fill:#02b72e;opacity:0.6;stroke:#000000;stroke-linejoin:miter;"/>
   </g>
   <g id="patch_30">
    <path clip-path="url(#p1def87c203)" d="M 430.896919 621.504 
L 443.637722 621.504 
L 443.637722 578.116174 
L 430.896919 578.116174 
z
" style="fill:#02b72e;opacity:0.6;stroke:#000000;stroke-linejoin:miter;"/>
   </g>
   <g id="patch_31">
    <path clip-path="url(#p1def87c203)" d="M 443.637722 621.504 
L 456.378525 621.504 
L 456.378525 511.097478 
L 443.637722 511.097478 
z
" style="fill:#02b72e;opacity:0.6;stroke:#000000;stroke-linejoin:miter;"/>
   </g>
   <g id="patch_32">
    <path clip-path="url(#p1def87c203)" d="M 456.378525 621.504 
L 469.119329 621.504 
L 469.119329 596.710957 
L 456.378525 596.710957 
z
" style="fill:#02b72e;opacity:0.6;stroke:#000000;stroke-linejoin:miter;"/>
   </g>
   <g id="patch_33">
    <path clip-path="url(#p1def87c203)" d="M 469.119329 621.504 
L 481.860132 621.504 
L 481.860132 509.935304 
L 469.119329 509.935304 
z
" style="fill:#02b72e;opacity:0.6;stroke:#000000;stroke-linejoin:miter;"/>
   </g>
   <g id="patch_34">
    <path clip-path="url(#p1def87c203)" d="M 481.860132 621.504 
L 494.600936 621.504 
L 494.600936 611.819217 
L 481.860132 611.819217 
z
" style="fill:#02b72e;opacity:0.6;stroke:#000000;stroke-linejoin:miter;"/>
   </g>
   <g id="patch_35">
    <path clip-path="url(#p1def87c203)" d="M 494.600936 621.504 
L 507.341739 621.504 
L 507.341739 583.539652 
L 494.600936 583.539652 
z
" style="fill:#02b72e;opacity:0.6;stroke:#000000;stroke-linejoin:miter;"/>
   </g>
   <g id="patch_36">
    <path clip-path="url(#p1def87c203)" d="M 507.341739 621.504 
L 520.082542 621.504 
L 520.082542 566.881826 
L 507.341739 566.881826 
z
" style="fill:#02b72e;opacity:0.6;stroke:#000000;stroke-linejoin:miter;"/>
   </g>
   <g id="patch_37">
    <path clip-path="url(#p1def87c203)" d="M 520.082542 621.504 
L 532.823346 621.504 
L 532.823346 526.205739 
L 520.082542 526.205739 
z
" style="fill:#02b72e;opacity:0.6;stroke:#000000;stroke-linejoin:miter;"/>
   </g>
   <g id="patch_38">
    <path clip-path="url(#p1def87c203)" d="M 532.823346 621.504 
L 545.564149 621.504 
L 545.564149 600.58487 
L 532.823346 600.58487 
z
" style="fill:#02b72e;opacity:0.6;stroke:#000000;stroke-linejoin:miter;"/>
   </g>
   <g id="patch_39">
    <path clip-path="url(#p1def87c203)" d="M 545.564149 621.504 
L 558.304952 621.504 
L 558.304952 592.837043 
L 545.564149 592.837043 
z
" style="fill:#02b72e;opacity:0.6;stroke:#000000;stroke-linejoin:miter;"/>
   </g>
   <g id="patch_40">
    <path clip-path="url(#p1def87c203)" d="M 558.304952 621.504 
L 571.045756 621.504 
L 571.045756 602.521826 
L 558.304952 602.521826 
z
" style="fill:#02b72e;opacity:0.6;stroke:#000000;stroke-linejoin:miter;"/>
   </g>
   <g id="patch_41">
    <path clip-path="url(#p1def87c203)" d="M 571.045756 621.504 
L 583.786559 621.504 
L 583.786559 526.59313 
L 571.045756 526.59313 
z
" style="fill:#02b72e;opacity:0.6;stroke:#000000;stroke-linejoin:miter;"/>
   </g>
   <g id="patch_42">
    <path clip-path="url(#p1def87c203)" d="M 583.786559 621.504 
L 596.527363 621.504 
L 596.527363 602.521826 
L 583.786559 602.521826 
z
" style="fill:#02b72e;opacity:0.6;stroke:#000000;stroke-linejoin:miter;"/>
   </g>
   <g id="patch_43">
    <path clip-path="url(#p1def87c203)" d="M 596.527363 621.504 
L 609.268166 621.504 
L 609.268166 610.657043 
L 596.527363 610.657043 
z
" style="fill:#02b72e;opacity:0.6;stroke:#000000;stroke-linejoin:miter;"/>
   </g>
   <g id="patch_44">
    <path clip-path="url(#p1def87c203)" d="M 609.268166 621.504 
L 622.008969 621.504 
L 622.008969 597.485739 
L 609.268166 597.485739 
z
" style="fill:#02b72e;opacity:0.6;stroke:#000000;stroke-linejoin:miter;"/>
   </g>
   <g id="patch_45">
    <path clip-path="url(#p1def87c203)" d="M 622.008969 621.504 
L 634.749773 621.504 
L 634.749773 584.314435 
L 622.008969 584.314435 
z
" style="fill:#02b72e;opacity:0.6;stroke:#000000;stroke-linejoin:miter;"/>
   </g>
   <g id="matplotlib.axis_1">
    <g id="xtick_1">
     <g id="line2d_1">
      <defs>
       <path d="M 0 0 
L 0 3.5 
" id="m979921376e" style="stroke:#000000;stroke-width:0.8;"/>
      </defs>
      <g>
       <use style="stroke:#000000;stroke-width:0.8;" x="73.532921" xlink:href="#m979921376e" y="621.504"/>
      </g>
     </g>
     <g id="text_1">
      <!-- 0 -->
      <defs>
       <path d="M 4.15625 35.296875 
Q 4.15625 48 6.765625 55.734375 
Q 9.375 63.484375 14.515625 67.671875 
Q 19.671875 71.875 27.484375 71.875 
Q 33.25 71.875 37.59375 69.546875 
Q 41.9375 67.234375 44.765625 62.859375 
Q 47.609375 58.5 49.21875 52.21875 
Q 50.828125 45.953125 50.828125 35.296875 
Q 50.828125 22.703125 48.234375 14.96875 
Q 45.65625 7.234375 40.5 3 
Q 35.359375 -1.21875 27.484375 -1.21875 
Q 17.140625 -1.21875 11.234375 6.203125 
Q 4.15625 15.140625 4.15625 35.296875 
z
M 13.1875 35.296875 
Q 13.1875 17.671875 17.3125 11.828125 
Q 21.4375 6 27.484375 6 
Q 33.546875 6 37.671875 11.859375 
Q 41.796875 17.71875 41.796875 35.296875 
Q 41.796875 52.984375 37.671875 58.78125 
Q 33.546875 64.59375 27.390625 64.59375 
Q 21.34375 64.59375 17.71875 59.46875 
Q 13.1875 52.9375 13.1875 35.296875 
z
" id="ArialMT-48"/>
      </defs>
      <g transform="translate(70.196359 637.093375)scale(0.12 -0.12)">
       <use xlink:href="#ArialMT-48"/>
      </g>
     </g>
    </g>
    <g id="xtick_2">
     <g id="line2d_2">
      <g>
       <use style="stroke:#000000;stroke-width:0.8;" x="147.767955" xlink:href="#m979921376e" y="621.504"/>
      </g>
     </g>
     <g id="text_2">
      <!-- 100 -->
      <defs>
       <path d="M 37.25 0 
L 28.46875 0 
L 28.46875 56 
Q 25.296875 52.984375 20.140625 49.953125 
Q 14.984375 46.921875 10.890625 45.40625 
L 10.890625 53.90625 
Q 18.265625 57.375 23.78125 62.296875 
Q 29.296875 67.234375 31.59375 71.875 
L 37.25 71.875 
z
" id="ArialMT-49"/>
      </defs>
      <g transform="translate(137.758267 637.093375)scale(0.12 -0.12)">
       <use xlink:href="#ArialMT-49"/>
       <use x="55.615234" xlink:href="#ArialMT-48"/>
       <use x="111.230469" xlink:href="#ArialMT-48"/>
      </g>
     </g>
    </g>
    <g id="xtick_3">
     <g id="line2d_3">
      <g>
       <use style="stroke:#000000;stroke-width:0.8;" x="222.002988" xlink:href="#m979921376e" y="621.504"/>
      </g>
     </g>
     <g id="text_3">
      <!-- 200 -->
      <defs>
       <path d="M 50.34375 8.453125 
L 50.34375 0 
L 3.03125 0 
Q 2.9375 3.171875 4.046875 6.109375 
Q 5.859375 10.9375 9.828125 15.625 
Q 13.8125 20.3125 21.34375 26.46875 
Q 33.015625 36.03125 37.109375 41.625 
Q 41.21875 47.21875 41.21875 52.203125 
Q 41.21875 57.421875 37.46875 61 
Q 33.734375 64.59375 27.734375 64.59375 
Q 21.390625 64.59375 17.578125 60.78125 
Q 13.765625 56.984375 13.71875 50.25 
L 4.6875 51.171875 
Q 5.609375 61.28125 11.65625 66.578125 
Q 17.71875 71.875 27.9375 71.875 
Q 38.234375 71.875 44.234375 66.15625 
Q 50.25 60.453125 50.25 52 
Q 50.25 47.703125 48.484375 43.546875 
Q 46.734375 39.40625 42.65625 34.8125 
Q 38.578125 30.21875 29.109375 22.21875 
Q 21.1875 15.578125 18.9375 13.203125 
Q 16.703125 10.84375 15.234375 8.453125 
z
" id="ArialMT-50"/>
      </defs>
      <g transform="translate(211.9933 637.093375)scale(0.12 -0.12)">
       <use xlink:href="#ArialMT-50"/>
       <use x="55.615234" xlink:href="#ArialMT-48"/>
       <use x="111.230469" xlink:href="#ArialMT-48"/>
      </g>
     </g>
    </g>
    <g id="xtick_4">
     <g id="line2d_4">
      <g>
       <use style="stroke:#000000;stroke-width:0.8;" x="296.238021" xlink:href="#m979921376e" y="621.504"/>
      </g>
     </g>
     <g id="text_4">
      <!-- 300 -->
      <defs>
       <path d="M 4.203125 18.890625 
L 12.984375 20.0625 
Q 14.5 12.59375 18.140625 9.296875 
Q 21.78125 6 27 6 
Q 33.203125 6 37.46875 10.296875 
Q 41.75 14.59375 41.75 20.953125 
Q 41.75 27 37.796875 30.921875 
Q 33.84375 34.859375 27.734375 34.859375 
Q 25.25 34.859375 21.53125 33.890625 
L 22.515625 41.609375 
Q 23.390625 41.5 23.921875 41.5 
Q 29.546875 41.5 34.03125 44.421875 
Q 38.53125 47.359375 38.53125 53.46875 
Q 38.53125 58.296875 35.25 61.46875 
Q 31.984375 64.65625 26.8125 64.65625 
Q 21.6875 64.65625 18.265625 61.421875 
Q 14.84375 58.203125 13.875 51.765625 
L 5.078125 53.328125 
Q 6.6875 62.15625 12.390625 67.015625 
Q 18.109375 71.875 26.609375 71.875 
Q 32.46875 71.875 37.390625 69.359375 
Q 42.328125 66.84375 44.9375 62.5 
Q 47.5625 58.15625 47.5625 53.265625 
Q 47.5625 48.640625 45.0625 44.828125 
Q 42.578125 41.015625 37.703125 38.765625 
Q 44.046875 37.3125 47.5625 32.6875 
Q 51.078125 28.078125 51.078125 21.140625 
Q 51.078125 11.765625 44.234375 5.25 
Q 37.40625 -1.265625 26.953125 -1.265625 
Q 17.53125 -1.265625 11.296875 4.34375 
Q 5.078125 9.96875 4.203125 18.890625 
z
" id="ArialMT-51"/>
      </defs>
      <g transform="translate(286.228334 637.093375)scale(0.12 -0.12)">
       <use xlink:href="#ArialMT-51"/>
       <use x="55.615234" xlink:href="#ArialMT-48"/>
       <use x="111.230469" xlink:href="#ArialMT-48"/>
      </g>
     </g>
    </g>
    <g id="xtick_5">
     <g id="line2d_5">
      <g>
       <use style="stroke:#000000;stroke-width:0.8;" x="370.473054" xlink:href="#m979921376e" y="621.504"/>
      </g>
     </g>
     <g id="text_5">
      <!-- 400 -->
      <defs>
       <path d="M 32.328125 0 
L 32.328125 17.140625 
L 1.265625 17.140625 
L 1.265625 25.203125 
L 33.9375 71.578125 
L 41.109375 71.578125 
L 41.109375 25.203125 
L 50.78125 25.203125 
L 50.78125 17.140625 
L 41.109375 17.140625 
L 41.109375 0 
z
M 32.328125 25.203125 
L 32.328125 57.46875 
L 9.90625 25.203125 
z
" id="ArialMT-52"/>
      </defs>
      <g transform="translate(360.463367 637.093375)scale(0.12 -0.12)">
       <use xlink:href="#ArialMT-52"/>
       <use x="55.615234" xlink:href="#ArialMT-48"/>
       <use x="111.230469" xlink:href="#ArialMT-48"/>
      </g>
     </g>
    </g>
    <g id="xtick_6">
     <g id="line2d_6">
      <g>
       <use style="stroke:#000000;stroke-width:0.8;" x="444.708088" xlink:href="#m979921376e" y="621.504"/>
      </g>
     </g>
     <g id="text_6">
      <!-- 500 -->
      <defs>
       <path d="M 4.15625 18.75 
L 13.375 19.53125 
Q 14.40625 12.796875 18.140625 9.390625 
Q 21.875 6 27.15625 6 
Q 33.5 6 37.890625 10.78125 
Q 42.28125 15.578125 42.28125 23.484375 
Q 42.28125 31 38.0625 35.34375 
Q 33.84375 39.703125 27 39.703125 
Q 22.75 39.703125 19.328125 37.765625 
Q 15.921875 35.84375 13.96875 32.765625 
L 5.71875 33.84375 
L 12.640625 70.609375 
L 48.25 70.609375 
L 48.25 62.203125 
L 19.671875 62.203125 
L 15.828125 42.96875 
Q 22.265625 47.46875 29.34375 47.46875 
Q 38.71875 47.46875 45.15625 40.96875 
Q 51.609375 34.46875 51.609375 24.265625 
Q 51.609375 14.546875 45.953125 7.46875 
Q 39.0625 -1.21875 27.15625 -1.21875 
Q 17.390625 -1.21875 11.203125 4.25 
Q 5.03125 9.71875 4.15625 18.75 
z
" id="ArialMT-53"/>
      </defs>
      <g transform="translate(434.6984 637.093375)scale(0.12 -0.12)">
       <use xlink:href="#ArialMT-53"/>
       <use x="55.615234" xlink:href="#ArialMT-48"/>
       <use x="111.230469" xlink:href="#ArialMT-48"/>
      </g>
     </g>
    </g>
    <g id="xtick_7">
     <g id="line2d_7">
      <g>
       <use style="stroke:#000000;stroke-width:0.8;" x="518.943121" xlink:href="#m979921376e" y="621.504"/>
      </g>
     </g>
     <g id="text_7">
      <!-- 600 -->
      <defs>
       <path d="M 49.75 54.046875 
L 41.015625 53.375 
Q 39.84375 58.546875 37.703125 60.890625 
Q 34.125 64.65625 28.90625 64.65625 
Q 24.703125 64.65625 21.53125 62.3125 
Q 17.390625 59.28125 14.984375 53.46875 
Q 12.59375 47.65625 12.5 36.921875 
Q 15.671875 41.75 20.265625 44.09375 
Q 24.859375 46.4375 29.890625 46.4375 
Q 38.671875 46.4375 44.84375 39.96875 
Q 51.03125 33.5 51.03125 23.25 
Q 51.03125 16.5 48.125 10.71875 
Q 45.21875 4.9375 40.140625 1.859375 
Q 35.0625 -1.21875 28.609375 -1.21875 
Q 17.625 -1.21875 10.6875 6.859375 
Q 3.765625 14.9375 3.765625 33.5 
Q 3.765625 54.25 11.421875 63.671875 
Q 18.109375 71.875 29.4375 71.875 
Q 37.890625 71.875 43.28125 67.140625 
Q 48.6875 62.40625 49.75 54.046875 
z
M 13.875 23.1875 
Q 13.875 18.65625 15.796875 14.5 
Q 17.71875 10.359375 21.1875 8.171875 
Q 24.65625 6 28.46875 6 
Q 34.03125 6 38.03125 10.484375 
Q 42.046875 14.984375 42.046875 22.703125 
Q 42.046875 30.125 38.078125 34.390625 
Q 34.125 38.671875 28.125 38.671875 
Q 22.171875 38.671875 18.015625 34.390625 
Q 13.875 30.125 13.875 23.1875 
z
" id="ArialMT-54"/>
      </defs>
      <g transform="translate(508.933433 637.093375)scale(0.12 -0.12)">
       <use xlink:href="#ArialMT-54"/>
       <use x="55.615234" xlink:href="#ArialMT-48"/>
       <use x="111.230469" xlink:href="#ArialMT-48"/>
      </g>
     </g>
    </g>
    <g id="xtick_8">
     <g id="line2d_8">
      <g>
       <use style="stroke:#000000;stroke-width:0.8;" x="593.178154" xlink:href="#m979921376e" y="621.504"/>
      </g>
     </g>
     <g id="text_8">
      <!-- 700 -->
      <defs>
       <path d="M 4.734375 62.203125 
L 4.734375 70.65625 
L 51.078125 70.65625 
L 51.078125 63.8125 
Q 44.234375 56.546875 37.515625 44.484375 
Q 30.8125 32.421875 27.15625 19.671875 
Q 24.515625 10.6875 23.78125 0 
L 14.75 0 
Q 14.890625 8.453125 18.0625 20.40625 
Q 21.234375 32.375 27.171875 43.484375 
Q 33.109375 54.59375 39.796875 62.203125 
z
" id="ArialMT-55"/>
      </defs>
      <g transform="translate(583.168467 637.093375)scale(0.12 -0.12)">
       <use xlink:href="#ArialMT-55"/>
       <use x="55.615234" xlink:href="#ArialMT-48"/>
       <use x="111.230469" xlink:href="#ArialMT-48"/>
      </g>
     </g>
    </g>
    <g id="text_9">
     <!-- Price (normalized) -->
     <defs>
      <path d="M 7.28125 0 
L 7.28125 71.578125 
L 30.46875 71.578125 
Q 43.65625 71.578125 47.65625 70.515625 
Q 53.8125 68.890625 57.953125 63.5 
Q 62.109375 58.109375 62.109375 49.5625 
Q 62.109375 42.96875 59.71875 38.46875 
Q 57.328125 33.984375 53.640625 31.421875 
Q 49.953125 28.859375 46.140625 28.03125 
Q 40.96875 27 31.15625 27 
L 21.734375 27 
L 21.734375 0 
z
M 21.734375 59.46875 
L 21.734375 39.15625 
L 29.640625 39.15625 
Q 38.1875 39.15625 41.0625 40.28125 
Q 43.953125 41.40625 45.578125 43.796875 
Q 47.21875 46.1875 47.21875 49.359375 
Q 47.21875 53.265625 44.921875 55.796875 
Q 42.625 58.34375 39.109375 58.984375 
Q 36.53125 59.46875 28.71875 59.46875 
z
" id="Arial-BoldMT-80"/>
      <path d="M 20.3125 0 
L 6.59375 0 
L 6.59375 51.859375 
L 19.34375 51.859375 
L 19.34375 44.484375 
Q 22.609375 49.703125 25.21875 51.359375 
Q 27.828125 53.03125 31.15625 53.03125 
Q 35.84375 53.03125 40.1875 50.4375 
L 35.9375 38.484375 
Q 32.46875 40.71875 29.5 40.71875 
Q 26.609375 40.71875 24.609375 39.125 
Q 22.609375 37.546875 21.453125 33.390625 
Q 20.3125 29.25 20.3125 16.015625 
z
" id="Arial-BoldMT-114"/>
      <path d="M 7.171875 58.890625 
L 7.171875 71.578125 
L 20.90625 71.578125 
L 20.90625 58.890625 
z
M 7.171875 0 
L 7.171875 51.859375 
L 20.90625 51.859375 
L 20.90625 0 
z
" id="Arial-BoldMT-105"/>
      <path d="M 52.390625 36.53125 
L 38.875 34.078125 
Q 38.1875 38.140625 35.765625 40.1875 
Q 33.34375 42.234375 29.5 42.234375 
Q 24.359375 42.234375 21.3125 38.6875 
Q 18.265625 35.15625 18.265625 26.859375 
Q 18.265625 17.625 21.359375 13.8125 
Q 24.46875 10.015625 29.6875 10.015625 
Q 33.59375 10.015625 36.078125 12.234375 
Q 38.578125 14.453125 39.59375 19.875 
L 53.078125 17.578125 
Q 50.984375 8.296875 45.015625 3.5625 
Q 39.0625 -1.171875 29.046875 -1.171875 
Q 17.671875 -1.171875 10.90625 6 
Q 4.15625 13.1875 4.15625 25.875 
Q 4.15625 38.71875 10.9375 45.875 
Q 17.71875 53.03125 29.296875 53.03125 
Q 38.765625 53.03125 44.359375 48.953125 
Q 49.953125 44.875 52.390625 36.53125 
z
" id="Arial-BoldMT-99"/>
      <path d="M 37.203125 16.5 
L 50.875 14.203125 
Q 48.25 6.6875 42.546875 2.75 
Q 36.859375 -1.171875 28.328125 -1.171875 
Q 14.796875 -1.171875 8.296875 7.671875 
Q 3.171875 14.75 3.171875 25.53125 
Q 3.171875 38.421875 9.90625 45.71875 
Q 16.65625 53.03125 26.953125 53.03125 
Q 38.53125 53.03125 45.21875 45.390625 
Q 51.90625 37.75 51.609375 21.96875 
L 17.234375 21.96875 
Q 17.390625 15.875 20.5625 12.46875 
Q 23.734375 9.078125 28.46875 9.078125 
Q 31.6875 9.078125 33.875 10.828125 
Q 36.078125 12.59375 37.203125 16.5 
z
M 37.984375 30.375 
Q 37.84375 36.328125 34.90625 39.421875 
Q 31.984375 42.53125 27.78125 42.53125 
Q 23.296875 42.53125 20.359375 39.265625 
Q 17.4375 35.984375 17.484375 30.375 
z
" id="Arial-BoldMT-101"/>
      <path id="Arial-BoldMT-32"/>
      <path d="M 29.9375 -21.046875 
L 20.515625 -21.046875 
Q 13.03125 -9.765625 9.125 2.390625 
Q 5.21875 14.546875 5.21875 25.921875 
Q 5.21875 40.046875 10.0625 52.640625 
Q 14.265625 63.578125 20.703125 72.796875 
L 30.078125 72.796875 
Q 23.390625 58.015625 20.875 47.625 
Q 18.359375 37.25 18.359375 25.640625 
Q 18.359375 17.625 19.84375 9.21875 
Q 21.34375 0.828125 23.921875 -6.734375 
Q 25.640625 -11.71875 29.9375 -21.046875 
z
" id="Arial-BoldMT-40"/>
      <path d="M 54.34375 0 
L 40.625 0 
L 40.625 26.46875 
Q 40.625 34.859375 39.75 37.328125 
Q 38.875 39.796875 36.890625 41.15625 
Q 34.90625 42.53125 32.125 42.53125 
Q 28.5625 42.53125 25.734375 40.578125 
Q 22.90625 38.625 21.84375 35.390625 
Q 20.796875 32.171875 20.796875 23.484375 
L 20.796875 0 
L 7.078125 0 
L 7.078125 51.859375 
L 19.828125 51.859375 
L 19.828125 44.234375 
Q 26.609375 53.03125 36.921875 53.03125 
Q 41.453125 53.03125 45.203125 51.390625 
Q 48.96875 49.75 50.890625 47.203125 
Q 52.828125 44.671875 53.578125 41.453125 
Q 54.34375 38.234375 54.34375 32.234375 
z
" id="Arial-BoldMT-110"/>
      <path d="M 4 26.65625 
Q 4 33.5 7.375 39.890625 
Q 10.75 46.296875 16.921875 49.65625 
Q 23.09375 53.03125 30.71875 53.03125 
Q 42.484375 53.03125 50 45.390625 
Q 57.515625 37.75 57.515625 26.078125 
Q 57.515625 14.3125 49.921875 6.5625 
Q 42.328125 -1.171875 30.8125 -1.171875 
Q 23.6875 -1.171875 17.21875 2.046875 
Q 10.75 5.28125 7.375 11.5 
Q 4 17.71875 4 26.65625 
z
M 18.0625 25.921875 
Q 18.0625 18.21875 21.71875 14.109375 
Q 25.390625 10.015625 30.765625 10.015625 
Q 36.140625 10.015625 39.765625 14.109375 
Q 43.40625 18.21875 43.40625 26.03125 
Q 43.40625 33.640625 39.765625 37.734375 
Q 36.140625 41.84375 30.765625 41.84375 
Q 25.390625 41.84375 21.71875 37.734375 
Q 18.0625 33.640625 18.0625 25.921875 
z
" id="Arial-BoldMT-111"/>
      <path d="M 6.15625 51.859375 
L 18.796875 51.859375 
L 18.796875 44.78125 
Q 25.59375 53.03125 34.96875 53.03125 
Q 39.9375 53.03125 43.59375 50.96875 
Q 47.265625 48.921875 49.609375 44.78125 
Q 53.03125 48.921875 56.984375 50.96875 
Q 60.9375 53.03125 65.4375 53.03125 
Q 71.140625 53.03125 75.09375 50.703125 
Q 79.046875 48.390625 81 43.890625 
Q 82.421875 40.578125 82.421875 33.15625 
L 82.421875 0 
L 68.703125 0 
L 68.703125 29.640625 
Q 68.703125 37.359375 67.28125 39.59375 
Q 65.375 42.53125 61.421875 42.53125 
Q 58.546875 42.53125 56 40.765625 
Q 53.46875 39.015625 52.34375 35.625 
Q 51.21875 32.234375 51.21875 24.90625 
L 51.21875 0 
L 37.5 0 
L 37.5 28.421875 
Q 37.5 35.984375 36.765625 38.171875 
Q 36.03125 40.375 34.484375 41.453125 
Q 32.953125 42.53125 30.328125 42.53125 
Q 27.15625 42.53125 24.609375 40.8125 
Q 22.078125 39.109375 20.96875 35.890625 
Q 19.875 32.671875 19.875 25.203125 
L 19.875 0 
L 6.15625 0 
z
" id="Arial-BoldMT-109"/>
      <path d="M 17.4375 36.03125 
L 4.984375 38.28125 
Q 7.078125 45.796875 12.203125 49.40625 
Q 17.328125 53.03125 27.4375 53.03125 
Q 36.625 53.03125 41.109375 50.859375 
Q 45.609375 48.6875 47.4375 45.34375 
Q 49.265625 42 49.265625 33.0625 
L 49.125 17.046875 
Q 49.125 10.203125 49.78125 6.953125 
Q 50.4375 3.71875 52.25 0 
L 38.671875 0 
Q 38.140625 1.375 37.359375 4.046875 
Q 37.015625 5.28125 36.859375 5.671875 
Q 33.34375 2.25 29.34375 0.53125 
Q 25.34375 -1.171875 20.796875 -1.171875 
Q 12.796875 -1.171875 8.171875 3.171875 
Q 3.5625 7.515625 3.5625 14.15625 
Q 3.5625 18.5625 5.65625 22 
Q 7.765625 25.4375 11.546875 27.265625 
Q 15.328125 29.109375 22.46875 30.46875 
Q 32.078125 32.28125 35.796875 33.84375 
L 35.796875 35.203125 
Q 35.796875 39.15625 33.84375 40.84375 
Q 31.890625 42.53125 26.46875 42.53125 
Q 22.796875 42.53125 20.75 41.09375 
Q 18.703125 39.65625 17.4375 36.03125 
z
M 35.796875 24.90625 
Q 33.15625 24.03125 27.4375 22.796875 
Q 21.734375 21.578125 19.96875 20.40625 
Q 17.28125 18.5 17.28125 15.578125 
Q 17.28125 12.703125 19.421875 10.59375 
Q 21.578125 8.5 24.90625 8.5 
Q 28.609375 8.5 31.984375 10.9375 
Q 34.46875 12.796875 35.25 15.484375 
Q 35.796875 17.234375 35.796875 22.171875 
z
" id="Arial-BoldMT-97"/>
      <path d="M 7.171875 0 
L 7.171875 71.578125 
L 20.90625 71.578125 
L 20.90625 0 
z
" id="Arial-BoldMT-108"/>
      <path d="M 1.65625 0 
L 1.65625 10.6875 
L 21.09375 33.015625 
Q 25.875 38.484375 28.171875 40.765625 
Q 25.78125 40.625 21.875 40.578125 
L 3.5625 40.484375 
L 3.5625 51.859375 
L 46.4375 51.859375 
L 46.4375 42.140625 
L 26.609375 19.28125 
L 19.625 11.71875 
Q 25.34375 12.0625 26.703125 12.0625 
L 47.953125 12.0625 
L 47.953125 0 
z
" id="Arial-BoldMT-122"/>
      <path d="M 54.734375 0 
L 42 0 
L 42 7.625 
Q 38.8125 3.171875 34.484375 1 
Q 30.171875 -1.171875 25.78125 -1.171875 
Q 16.84375 -1.171875 10.46875 6.03125 
Q 4.109375 13.234375 4.109375 26.125 
Q 4.109375 39.3125 10.296875 46.171875 
Q 16.5 53.03125 25.984375 53.03125 
Q 34.671875 53.03125 41.015625 45.796875 
L 41.015625 71.578125 
L 54.734375 71.578125 
z
M 18.109375 27.046875 
Q 18.109375 18.75 20.40625 15.046875 
Q 23.734375 9.671875 29.6875 9.671875 
Q 34.421875 9.671875 37.734375 13.6875 
Q 41.0625 17.71875 41.0625 25.734375 
Q 41.0625 34.671875 37.84375 38.59375 
Q 34.625 42.53125 29.59375 42.53125 
Q 24.703125 42.53125 21.40625 38.640625 
Q 18.109375 34.765625 18.109375 27.046875 
z
" id="Arial-BoldMT-100"/>
      <path d="M 3.375 -21.046875 
Q 7.421875 -12.359375 9.078125 -7.71875 
Q 10.75 -3.078125 12.15625 2.96875 
Q 13.578125 9.03125 14.25 14.46875 
Q 14.9375 19.921875 14.9375 25.640625 
Q 14.9375 37.25 12.453125 47.625 
Q 9.96875 58.015625 3.265625 72.796875 
L 12.59375 72.796875 
Q 19.96875 62.3125 24.046875 50.53125 
Q 28.125 38.765625 28.125 26.65625 
Q 28.125 16.453125 24.90625 4.78125 
Q 21.234375 -8.296875 12.84375 -21.046875 
z
" id="Arial-BoldMT-41"/>
     </defs>
     <g transform="translate(291.47375 655.125875)scale(0.16 -0.16)">
      <use xlink:href="#Arial-BoldMT-80"/>
      <use x="66.699219" xlink:href="#Arial-BoldMT-114"/>
      <use x="105.615234" xlink:href="#Arial-BoldMT-105"/>
      <use x="133.398438" xlink:href="#Arial-BoldMT-99"/>
      <use x="189.013672" xlink:href="#Arial-BoldMT-101"/>
      <use x="244.628906" xlink:href="#Arial-BoldMT-32"/>
      <use x="272.412109" xlink:href="#Arial-BoldMT-40"/>
      <use x="305.712891" xlink:href="#Arial-BoldMT-110"/>
      <use x="366.796875" xlink:href="#Arial-BoldMT-111"/>
      <use x="427.880859" xlink:href="#Arial-BoldMT-114"/>
      <use x="466.796875" xlink:href="#Arial-BoldMT-109"/>
      <use x="555.712891" xlink:href="#Arial-BoldMT-97"/>
      <use x="611.328125" xlink:href="#Arial-BoldMT-108"/>
      <use x="639.111328" xlink:href="#Arial-BoldMT-105"/>
      <use x="666.894531" xlink:href="#Arial-BoldMT-122"/>
      <use x="716.894531" xlink:href="#Arial-BoldMT-101"/>
      <use x="772.509766" xlink:href="#Arial-BoldMT-100"/>
      <use x="833.59375" xlink:href="#Arial-BoldMT-41"/>
     </g>
    </g>
   </g>
   <g id="matplotlib.axis_2">
    <g id="ytick_1">
     <g id="line2d_9">
      <defs>
       <path d="M 0 0 
L -3.5 0 
" id="mb4981f3bd7" style="stroke:#000000;stroke-width:0.8;"/>
      </defs>
      <g>
       <use style="stroke:#000000;stroke-width:0.8;" x="59.5025" xlink:href="#mb4981f3bd7" y="621.504"/>
      </g>
     </g>
     <g id="text_10">
      <!-- 0 -->
      <g transform="translate(45.829375 625.798688)scale(0.12 -0.12)">
       <use xlink:href="#ArialMT-48"/>
      </g>
     </g>
    </g>
    <g id="ytick_2">
     <g id="line2d_10">
      <g>
       <use style="stroke:#000000;stroke-width:0.8;" x="59.5025" xlink:href="#mb4981f3bd7" y="544.025739"/>
      </g>
     </g>
     <g id="text_11">
      <!-- 200 -->
      <g transform="translate(32.483125 548.320427)scale(0.12 -0.12)">
       <use xlink:href="#ArialMT-50"/>
       <use x="55.615234" xlink:href="#ArialMT-48"/>
       <use x="111.230469" xlink:href="#ArialMT-48"/>
      </g>
     </g>
    </g>
    <g id="ytick_3">
     <g id="line2d_11">
      <g>
       <use style="stroke:#000000;stroke-width:0.8;" x="59.5025" xlink:href="#mb4981f3bd7" y="466.547478"/>
      </g>
     </g>
     <g id="text_12">
      <!-- 400 -->
      <g transform="translate(32.483125 470.842166)scale(0.12 -0.12)">
       <use xlink:href="#ArialMT-52"/>
       <use x="55.615234" xlink:href="#ArialMT-48"/>
       <use x="111.230469" xlink:href="#ArialMT-48"/>
      </g>
     </g>
    </g>
    <g id="ytick_4">
     <g id="line2d_12">
      <g>
       <use style="stroke:#000000;stroke-width:0.8;" x="59.5025" xlink:href="#mb4981f3bd7" y="389.069217"/>
      </g>
     </g>
     <g id="text_13">
      <!-- 600 -->
      <g transform="translate(32.483125 393.363905)scale(0.12 -0.12)">
       <use xlink:href="#ArialMT-54"/>
       <use x="55.615234" xlink:href="#ArialMT-48"/>
       <use x="111.230469" xlink:href="#ArialMT-48"/>
      </g>
     </g>
    </g>
    <g id="ytick_5">
     <g id="line2d_13">
      <g>
       <use style="stroke:#000000;stroke-width:0.8;" x="59.5025" xlink:href="#mb4981f3bd7" y="311.590957"/>
      </g>
     </g>
     <g id="text_14">
      <!-- 800 -->
      <defs>
       <path d="M 17.671875 38.8125 
Q 12.203125 40.828125 9.5625 44.53125 
Q 6.9375 48.25 6.9375 53.421875 
Q 6.9375 61.234375 12.546875 66.546875 
Q 18.171875 71.875 27.484375 71.875 
Q 36.859375 71.875 42.578125 66.421875 
Q 48.296875 60.984375 48.296875 53.171875 
Q 48.296875 48.1875 45.671875 44.5 
Q 43.0625 40.828125 37.75 38.8125 
Q 44.34375 36.671875 47.78125 31.875 
Q 51.21875 27.09375 51.21875 20.453125 
Q 51.21875 11.28125 44.71875 5.03125 
Q 38.234375 -1.21875 27.640625 -1.21875 
Q 17.046875 -1.21875 10.546875 5.046875 
Q 4.046875 11.328125 4.046875 20.703125 
Q 4.046875 27.6875 7.59375 32.390625 
Q 11.140625 37.109375 17.671875 38.8125 
z
M 15.921875 53.71875 
Q 15.921875 48.640625 19.1875 45.40625 
Q 22.46875 42.1875 27.6875 42.1875 
Q 32.765625 42.1875 36.015625 45.375 
Q 39.265625 48.578125 39.265625 53.21875 
Q 39.265625 58.0625 35.90625 61.359375 
Q 32.5625 64.65625 27.59375 64.65625 
Q 22.5625 64.65625 19.234375 61.421875 
Q 15.921875 58.203125 15.921875 53.71875 
z
M 13.09375 20.65625 
Q 13.09375 16.890625 14.875 13.375 
Q 16.65625 9.859375 20.171875 7.921875 
Q 23.6875 6 27.734375 6 
Q 34.03125 6 38.125 10.046875 
Q 42.234375 14.109375 42.234375 20.359375 
Q 42.234375 26.703125 38.015625 30.859375 
Q 33.796875 35.015625 27.4375 35.015625 
Q 21.234375 35.015625 17.15625 30.90625 
Q 13.09375 26.8125 13.09375 20.65625 
z
" id="ArialMT-56"/>
      </defs>
      <g transform="translate(32.483125 315.885644)scale(0.12 -0.12)">
       <use xlink:href="#ArialMT-56"/>
       <use x="55.615234" xlink:href="#ArialMT-48"/>
       <use x="111.230469" xlink:href="#ArialMT-48"/>
      </g>
     </g>
    </g>
    <g id="ytick_6">
     <g id="line2d_14">
      <g>
       <use style="stroke:#000000;stroke-width:0.8;" x="59.5025" xlink:href="#mb4981f3bd7" y="234.112696"/>
      </g>
     </g>
     <g id="text_15">
      <!-- 1000 -->
      <g transform="translate(25.81 238.407383)scale(0.12 -0.12)">
       <use xlink:href="#ArialMT-49"/>
       <use x="55.615234" xlink:href="#ArialMT-48"/>
       <use x="111.230469" xlink:href="#ArialMT-48"/>
       <use x="166.845703" xlink:href="#ArialMT-48"/>
      </g>
     </g>
    </g>
    <g id="ytick_7">
     <g id="line2d_15">
      <g>
       <use style="stroke:#000000;stroke-width:0.8;" x="59.5025" xlink:href="#mb4981f3bd7" y="156.634435"/>
      </g>
     </g>
     <g id="text_16">
      <!-- 1200 -->
      <g transform="translate(25.81 160.929122)scale(0.12 -0.12)">
       <use xlink:href="#ArialMT-49"/>
       <use x="55.615234" xlink:href="#ArialMT-50"/>
       <use x="111.230469" xlink:href="#ArialMT-48"/>
       <use x="166.845703" xlink:href="#ArialMT-48"/>
      </g>
     </g>
    </g>
    <g id="ytick_8">
     <g id="line2d_16">
      <g>
       <use style="stroke:#000000;stroke-width:0.8;" x="59.5025" xlink:href="#mb4981f3bd7" y="79.156174"/>
      </g>
     </g>
     <g id="text_17">
      <!-- 1400 -->
      <g transform="translate(25.81 83.450861)scale(0.12 -0.12)">
       <use xlink:href="#ArialMT-49"/>
       <use x="55.615234" xlink:href="#ArialMT-52"/>
       <use x="111.230469" xlink:href="#ArialMT-48"/>
       <use x="166.845703" xlink:href="#ArialMT-48"/>
      </g>
     </g>
    </g>
    <g id="text_18">
     <!-- Count -->
     <defs>
      <path d="M 53.078125 26.3125 
L 67.09375 21.875 
Q 63.875 10.15625 56.375 4.46875 
Q 48.875 -1.21875 37.359375 -1.21875 
Q 23.09375 -1.21875 13.90625 8.515625 
Q 4.734375 18.265625 4.734375 35.15625 
Q 4.734375 53.03125 13.953125 62.90625 
Q 23.1875 72.796875 38.234375 72.796875 
Q 51.375 72.796875 59.578125 65.046875 
Q 64.453125 60.453125 66.890625 51.859375 
L 52.59375 48.4375 
Q 51.3125 54 47.28125 57.21875 
Q 43.265625 60.453125 37.5 60.453125 
Q 29.546875 60.453125 24.578125 54.734375 
Q 19.625 49.03125 19.625 36.234375 
Q 19.625 22.65625 24.5 16.890625 
Q 29.390625 11.140625 37.203125 11.140625 
Q 42.96875 11.140625 47.109375 14.796875 
Q 51.265625 18.453125 53.078125 26.3125 
z
" id="Arial-BoldMT-67"/>
      <path d="M 41.3125 0 
L 41.3125 7.765625 
Q 38.484375 3.609375 33.859375 1.21875 
Q 29.25 -1.171875 24.125 -1.171875 
Q 18.890625 -1.171875 14.734375 1.125 
Q 10.59375 3.421875 8.734375 7.5625 
Q 6.890625 11.71875 6.890625 19.046875 
L 6.890625 51.859375 
L 20.609375 51.859375 
L 20.609375 28.03125 
Q 20.609375 17.09375 21.359375 14.625 
Q 22.125 12.15625 24.125 10.71875 
Q 26.125 9.28125 29.203125 9.28125 
Q 32.71875 9.28125 35.5 11.203125 
Q 38.28125 13.140625 39.296875 15.984375 
Q 40.328125 18.84375 40.328125 29.984375 
L 40.328125 51.859375 
L 54.046875 51.859375 
L 54.046875 0 
z
" id="Arial-BoldMT-117"/>
      <path d="M 30.953125 51.859375 
L 30.953125 40.921875 
L 21.578125 40.921875 
L 21.578125 20.015625 
Q 21.578125 13.671875 21.84375 12.625 
Q 22.125 11.578125 23.078125 10.890625 
Q 24.03125 10.203125 25.390625 10.203125 
Q 27.296875 10.203125 30.90625 11.53125 
L 32.078125 0.875 
Q 27.296875 -1.171875 21.234375 -1.171875 
Q 17.53125 -1.171875 14.546875 0.0625 
Q 11.578125 1.3125 10.1875 3.296875 
Q 8.796875 5.28125 8.25 8.640625 
Q 7.8125 11.03125 7.8125 18.3125 
L 7.8125 40.921875 
L 1.515625 40.921875 
L 1.515625 51.859375 
L 7.8125 51.859375 
L 7.8125 62.15625 
L 21.578125 70.171875 
L 21.578125 51.859375 
z
" id="Arial-BoldMT-116"/>
     </defs>
     <g transform="translate(18.6525 345.228)rotate(-90)scale(0.16 -0.16)">
      <use xlink:href="#Arial-BoldMT-67"/>
      <use x="72.216797" xlink:href="#Arial-BoldMT-111"/>
      <use x="133.300781" xlink:href="#Arial-BoldMT-117"/>
      <use x="194.384766" xlink:href="#Arial-BoldMT-110"/>
      <use x="255.46875" xlink:href="#Arial-BoldMT-116"/>
     </g>
    </g>
   </g>
   <g id="patch_46">
    <path d="M 59.5025 621.504 
L 59.5025 22.752 
" style="fill:none;stroke:#1a1c1a;stroke-linecap:square;stroke-linejoin:miter;stroke-width:1.5;"/>
   </g>
   <g id="patch_47">
    <path d="M 59.5025 621.504 
L 662.1425 621.504 
" style="fill:none;stroke:#1a1c1a;stroke-linecap:square;stroke-linejoin:miter;stroke-width:1.5;"/>
   </g>
  </g>
  <g id="text_19">
   <!-- PLACEHOLDER -->
   <defs>
    <path d="M 7.671875 0 
L 7.671875 71 
L 22.125 71 
L 22.125 12.0625 
L 58.0625 12.0625 
L 58.0625 0 
z
" id="Arial-BoldMT-76"/>
    <path d="M 71.828125 0 
L 56.109375 0 
L 49.859375 16.265625 
L 21.234375 16.265625 
L 15.328125 0 
L 0 0 
L 27.875 71.578125 
L 43.171875 71.578125 
z
M 45.21875 28.328125 
L 35.359375 54.890625 
L 25.6875 28.328125 
z
" id="Arial-BoldMT-65"/>
    <path d="M 7.28125 0 
L 7.28125 71.578125 
L 60.359375 71.578125 
L 60.359375 59.46875 
L 21.734375 59.46875 
L 21.734375 43.609375 
L 57.671875 43.609375 
L 57.671875 31.546875 
L 21.734375 31.546875 
L 21.734375 12.0625 
L 61.71875 12.0625 
L 61.71875 0 
z
" id="Arial-BoldMT-69"/>
    <path d="M 7.328125 0 
L 7.328125 71.578125 
L 21.78125 71.578125 
L 21.78125 43.40625 
L 50.09375 43.40625 
L 50.09375 71.578125 
L 64.546875 71.578125 
L 64.546875 0 
L 50.09375 0 
L 50.09375 31.296875 
L 21.78125 31.296875 
L 21.78125 0 
z
" id="Arial-BoldMT-72"/>
    <path d="M 4.34375 35.359375 
Q 4.34375 46.296875 7.625 53.71875 
Q 10.0625 59.1875 14.28125 63.53125 
Q 18.5 67.875 23.53125 69.96875 
Q 30.21875 72.796875 38.96875 72.796875 
Q 54.78125 72.796875 64.28125 62.984375 
Q 73.78125 53.171875 73.78125 35.6875 
Q 73.78125 18.359375 64.359375 8.5625 
Q 54.9375 -1.21875 39.15625 -1.21875 
Q 23.1875 -1.21875 13.765625 8.515625 
Q 4.34375 18.265625 4.34375 35.359375 
z
M 19.234375 35.84375 
Q 19.234375 23.6875 24.84375 17.40625 
Q 30.46875 11.140625 39.109375 11.140625 
Q 47.75 11.140625 53.296875 17.359375 
Q 58.84375 23.578125 58.84375 36.03125 
Q 58.84375 48.34375 53.4375 54.390625 
Q 48.046875 60.453125 39.109375 60.453125 
Q 30.171875 60.453125 24.703125 54.3125 
Q 19.234375 48.1875 19.234375 35.84375 
z
" id="Arial-BoldMT-79"/>
    <path d="M 7.234375 71.578125 
L 33.640625 71.578125 
Q 42.578125 71.578125 47.265625 70.21875 
Q 53.5625 68.359375 58.046875 63.625 
Q 62.546875 58.890625 64.890625 52.03125 
Q 67.234375 45.171875 67.234375 35.109375 
Q 67.234375 26.265625 65.046875 19.875 
Q 62.359375 12.0625 57.375 7.234375 
Q 53.609375 3.5625 47.21875 1.515625 
Q 42.4375 0 34.421875 0 
L 7.234375 0 
z
M 21.6875 59.46875 
L 21.6875 12.0625 
L 32.46875 12.0625 
Q 38.53125 12.0625 41.21875 12.75 
Q 44.734375 13.625 47.046875 15.71875 
Q 49.359375 17.828125 50.828125 22.625 
Q 52.296875 27.4375 52.296875 35.75 
Q 52.296875 44.046875 50.828125 48.484375 
Q 49.359375 52.9375 46.71875 55.421875 
Q 44.09375 57.90625 40.046875 58.796875 
Q 37.015625 59.46875 28.171875 59.46875 
z
" id="Arial-BoldMT-68"/>
    <path d="M 7.328125 0 
L 7.328125 71.578125 
L 37.75 71.578125 
Q 49.21875 71.578125 54.421875 69.640625 
Q 59.625 67.71875 62.75 62.78125 
Q 65.875 57.859375 65.875 51.515625 
Q 65.875 43.453125 61.125 38.203125 
Q 56.390625 32.953125 46.96875 31.59375 
Q 51.65625 28.859375 54.703125 25.578125 
Q 57.765625 22.3125 62.9375 13.96875 
L 71.6875 0 
L 54.390625 0 
L 43.953125 15.578125 
Q 38.375 23.921875 36.328125 26.09375 
Q 34.28125 28.265625 31.984375 29.078125 
Q 29.6875 29.890625 24.703125 29.890625 
L 21.78125 29.890625 
L 21.78125 0 
z
M 21.78125 41.3125 
L 32.46875 41.3125 
Q 42.875 41.3125 45.453125 42.1875 
Q 48.046875 43.0625 49.515625 45.203125 
Q 50.984375 47.359375 50.984375 50.59375 
Q 50.984375 54.203125 49.046875 56.421875 
Q 47.125 58.640625 43.609375 59.234375 
Q 41.84375 59.46875 33.0625 59.46875 
L 21.78125 59.46875 
z
" id="Arial-BoldMT-82"/>
   </defs>
   <g style="fill:#1a1c1a;" transform="translate(481.3505 202.3776)scale(0.14 -0.14)">
    <use xlink:href="#Arial-BoldMT-80"/>
    <use x="66.699219" xlink:href="#Arial-BoldMT-76"/>
    <use x="127.783203" xlink:href="#Arial-BoldMT-65"/>
    <use x="200" xlink:href="#Arial-BoldMT-67"/>
    <use x="272.216797" xlink:href="#Arial-BoldMT-69"/>
    <use x="338.916016" xlink:href="#Arial-BoldMT-72"/>
    <use x="411.132812" xlink:href="#Arial-BoldMT-79"/>
    <use x="488.916016" xlink:href="#Arial-BoldMT-76"/>
    <use x="550" xlink:href="#Arial-BoldMT-68"/>
    <use x="622.216797" xlink:href="#Arial-BoldMT-69"/>
    <use x="688.916016" xlink:href="#Arial-BoldMT-82"/>
   </g>
  </g>
  <g id="text_20">
   <!-- [18, 756, 244.4016641452345, 200.0, 165.55718692694484, 1.0604385922025314, 0.42063751241695924] -->
   <defs>
    <path d="M 7.125 -20.171875 
L 7.125 71.578125 
L 31.453125 71.578125 
L 31.453125 60.796875 
L 20.171875 60.796875 
L 20.171875 -9.375 
L 31.453125 -9.375 
L 31.453125 -20.171875 
z
" id="Arial-BoldMT-91"/>
    <path d="M 39.359375 0 
L 25.640625 0 
L 25.640625 51.703125 
Q 18.109375 44.671875 7.90625 41.3125 
L 7.90625 53.765625 
Q 13.28125 55.515625 19.578125 60.421875 
Q 25.875 65.328125 28.21875 71.875 
L 39.359375 71.875 
z
" id="Arial-BoldMT-49"/>
    <path d="M 16.015625 38.625 
Q 10.6875 40.875 8.265625 44.796875 
Q 5.859375 48.734375 5.859375 53.421875 
Q 5.859375 61.421875 11.453125 66.640625 
Q 17.046875 71.875 27.34375 71.875 
Q 37.546875 71.875 43.1875 66.640625 
Q 48.828125 61.421875 48.828125 53.421875 
Q 48.828125 48.4375 46.234375 44.546875 
Q 43.65625 40.671875 38.96875 38.625 
Q 44.921875 36.234375 48.015625 31.640625 
Q 51.125 27.046875 51.125 21.046875 
Q 51.125 11.140625 44.796875 4.9375 
Q 38.484375 -1.265625 27.984375 -1.265625 
Q 18.21875 -1.265625 11.71875 3.859375 
Q 4.046875 9.90625 4.046875 20.453125 
Q 4.046875 26.265625 6.921875 31.125 
Q 9.8125 35.984375 16.015625 38.625 
z
M 18.84375 52.4375 
Q 18.84375 48.34375 21.15625 46.046875 
Q 23.484375 43.75 27.34375 43.75 
Q 31.25 43.75 33.59375 46.0625 
Q 35.9375 48.390625 35.9375 52.484375 
Q 35.9375 56.34375 33.609375 58.65625 
Q 31.296875 60.984375 27.484375 60.984375 
Q 23.53125 60.984375 21.1875 58.640625 
Q 18.84375 56.296875 18.84375 52.4375 
z
M 17.578125 21.78125 
Q 17.578125 16.109375 20.484375 12.9375 
Q 23.390625 9.765625 27.734375 9.765625 
Q 31.984375 9.765625 34.765625 12.8125 
Q 37.546875 15.875 37.546875 21.625 
Q 37.546875 26.65625 34.71875 29.703125 
Q 31.890625 32.765625 27.546875 32.765625 
Q 22.515625 32.765625 20.046875 29.296875 
Q 17.578125 25.828125 17.578125 21.78125 
z
" id="Arial-BoldMT-56"/>
    <path d="M 6.84375 13.71875 
L 20.5625 13.71875 
L 20.5625 3.90625 
Q 20.5625 -2.046875 19.53125 -5.484375 
Q 18.5 -8.9375 15.640625 -11.671875 
Q 12.796875 -14.40625 8.40625 -15.96875 
L 5.71875 -10.296875 
Q 9.859375 -8.9375 11.609375 -6.546875 
Q 13.375 -4.15625 13.484375 0 
L 6.84375 0 
z
" id="Arial-BoldMT-44"/>
    <path d="M 4.25 57.859375 
L 4.25 70.609375 
L 51.171875 70.609375 
L 51.171875 60.640625 
Q 45.359375 54.9375 39.34375 44.234375 
Q 33.34375 33.546875 30.1875 21.5 
Q 27.046875 9.46875 27.09375 0 
L 13.875 0 
Q 14.203125 14.84375 19.984375 30.265625 
Q 25.78125 45.703125 35.453125 57.859375 
z
" id="Arial-BoldMT-55"/>
    <path d="M 4.4375 18.40625 
L 18.109375 19.828125 
Q 18.703125 15.1875 21.578125 12.46875 
Q 24.46875 9.765625 28.21875 9.765625 
Q 32.515625 9.765625 35.5 13.25 
Q 38.484375 16.75 38.484375 23.78125 
Q 38.484375 30.375 35.515625 33.671875 
Q 32.5625 36.96875 27.828125 36.96875 
Q 21.921875 36.96875 17.234375 31.734375 
L 6.109375 33.34375 
L 13.140625 70.609375 
L 49.421875 70.609375 
L 49.421875 57.765625 
L 23.53125 57.765625 
L 21.390625 45.609375 
Q 25.984375 47.90625 30.765625 47.90625 
Q 39.890625 47.90625 46.234375 41.265625 
Q 52.59375 34.625 52.59375 24.03125 
Q 52.59375 15.1875 47.46875 8.25 
Q 40.484375 -1.21875 28.078125 -1.21875 
Q 18.171875 -1.21875 11.921875 4.09375 
Q 5.671875 9.421875 4.4375 18.40625 
z
" id="Arial-BoldMT-53"/>
    <path d="M 50.734375 54.046875 
L 37.453125 52.59375 
Q 36.96875 56.6875 34.90625 58.640625 
Q 32.859375 60.59375 29.59375 60.59375 
Q 25.25 60.59375 22.234375 56.6875 
Q 19.234375 52.78125 18.453125 40.4375 
Q 23.578125 46.484375 31.203125 46.484375 
Q 39.796875 46.484375 45.921875 39.9375 
Q 52.046875 33.40625 52.046875 23.046875 
Q 52.046875 12.0625 45.59375 5.421875 
Q 39.15625 -1.21875 29.046875 -1.21875 
Q 18.21875 -1.21875 11.234375 7.203125 
Q 4.25 15.625 4.25 34.8125 
Q 4.25 54.5 11.515625 63.1875 
Q 18.796875 71.875 30.421875 71.875 
Q 38.578125 71.875 43.921875 67.3125 
Q 49.265625 62.75 50.734375 54.046875 
z
M 19.625 24.125 
Q 19.625 17.4375 22.703125 13.796875 
Q 25.78125 10.15625 29.734375 10.15625 
Q 33.546875 10.15625 36.078125 13.125 
Q 38.625 16.109375 38.625 22.90625 
Q 38.625 29.890625 35.890625 33.125 
Q 33.15625 36.375 29.046875 36.375 
Q 25.09375 36.375 22.359375 33.265625 
Q 19.625 30.171875 19.625 24.125 
z
" id="Arial-BoldMT-54"/>
    <path d="M 50.59375 12.75 
L 50.59375 0 
L 2.484375 0 
Q 3.265625 7.234375 7.171875 13.703125 
Q 11.078125 20.171875 22.609375 30.859375 
Q 31.890625 39.5 33.984375 42.578125 
Q 36.8125 46.828125 36.8125 50.984375 
Q 36.8125 55.5625 34.34375 58.03125 
Q 31.890625 60.5 27.546875 60.5 
Q 23.25 60.5 20.703125 57.90625 
Q 18.171875 55.328125 17.78125 49.3125 
L 4.109375 50.6875 
Q 5.328125 62.015625 11.765625 66.9375 
Q 18.21875 71.875 27.875 71.875 
Q 38.484375 71.875 44.53125 66.15625 
Q 50.59375 60.453125 50.59375 51.953125 
Q 50.59375 47.125 48.859375 42.75 
Q 47.125 38.375 43.359375 33.59375 
Q 40.875 30.421875 34.375 24.453125 
Q 27.875 18.5 26.140625 16.546875 
Q 24.421875 14.59375 23.34375 12.75 
z
" id="Arial-BoldMT-50"/>
    <path d="M 31.15625 0 
L 31.15625 14.40625 
L 1.859375 14.40625 
L 1.859375 26.421875 
L 32.90625 71.875 
L 44.4375 71.875 
L 44.4375 26.46875 
L 53.328125 26.46875 
L 53.328125 14.40625 
L 44.4375 14.40625 
L 44.4375 0 
z
M 31.15625 26.46875 
L 31.15625 50.921875 
L 14.703125 26.46875 
z
" id="Arial-BoldMT-52"/>
    <path d="M 7.171875 0 
L 7.171875 13.71875 
L 20.90625 13.71875 
L 20.90625 0 
z
" id="Arial-BoldMT-46"/>
    <path d="M 27.4375 71.875 
Q 37.84375 71.875 43.703125 64.453125 
Q 50.6875 55.671875 50.6875 35.296875 
Q 50.6875 14.984375 43.65625 6.109375 
Q 37.84375 -1.21875 27.4375 -1.21875 
Q 17 -1.21875 10.59375 6.8125 
Q 4.203125 14.84375 4.203125 35.453125 
Q 4.203125 55.671875 11.234375 64.546875 
Q 17.046875 71.875 27.4375 71.875 
z
M 27.4375 60.5 
Q 24.953125 60.5 23 58.90625 
Q 21.046875 57.328125 19.96875 53.21875 
Q 18.5625 47.90625 18.5625 35.296875 
Q 18.5625 22.703125 19.828125 17.984375 
Q 21.09375 13.28125 23.015625 11.71875 
Q 24.953125 10.15625 27.4375 10.15625 
Q 29.9375 10.15625 31.890625 11.734375 
Q 33.84375 13.328125 34.90625 17.4375 
Q 36.328125 22.703125 36.328125 35.296875 
Q 36.328125 47.90625 35.0625 52.609375 
Q 33.796875 57.328125 31.859375 58.90625 
Q 29.9375 60.5 27.4375 60.5 
z
" id="Arial-BoldMT-48"/>
    <path d="M 3.765625 19 
L 17.046875 20.609375 
Q 17.671875 15.53125 20.453125 12.84375 
Q 23.25 10.15625 27.203125 10.15625 
Q 31.453125 10.15625 34.34375 13.375 
Q 37.25 16.609375 37.25 22.078125 
Q 37.25 27.25 34.46875 30.265625 
Q 31.6875 33.296875 27.6875 33.296875 
Q 25.046875 33.296875 21.390625 32.28125 
L 22.90625 43.453125 
Q 28.46875 43.3125 31.390625 45.875 
Q 34.328125 48.4375 34.328125 52.6875 
Q 34.328125 56.296875 32.171875 58.4375 
Q 30.03125 60.59375 26.46875 60.59375 
Q 22.953125 60.59375 20.453125 58.15625 
Q 17.96875 55.71875 17.4375 51.03125 
L 4.78125 53.171875 
Q 6.109375 59.671875 8.765625 63.546875 
Q 11.421875 67.4375 16.1875 69.65625 
Q 20.953125 71.875 26.859375 71.875 
Q 36.96875 71.875 43.0625 65.4375 
Q 48.09375 60.15625 48.09375 53.515625 
Q 48.09375 44.09375 37.796875 38.484375 
Q 43.953125 37.15625 47.625 32.5625 
Q 51.3125 27.984375 51.3125 21.484375 
Q 51.3125 12.0625 44.421875 5.421875 
Q 37.546875 -1.21875 27.296875 -1.21875 
Q 17.578125 -1.21875 11.171875 4.375 
Q 4.78125 9.96875 3.765625 19 
z
" id="Arial-BoldMT-51"/>
    <path d="M 4.546875 16.546875 
L 17.828125 18.015625 
Q 18.3125 13.96875 20.359375 12.015625 
Q 22.40625 10.0625 25.78125 10.0625 
Q 30.03125 10.0625 33 13.96875 
Q 35.984375 17.875 36.8125 30.171875 
Q 31.640625 24.171875 23.875 24.171875 
Q 15.4375 24.171875 9.296875 30.6875 
Q 3.171875 37.203125 3.171875 47.65625 
Q 3.171875 58.546875 9.640625 65.203125 
Q 16.109375 71.875 26.125 71.875 
Q 37.015625 71.875 44 63.453125 
Q 50.984375 55.03125 50.984375 35.75 
Q 50.984375 16.109375 43.703125 7.421875 
Q 36.421875 -1.265625 24.75 -1.265625 
Q 16.359375 -1.265625 11.171875 3.203125 
Q 6 7.671875 4.546875 16.546875 
z
M 35.59375 46.53125 
Q 35.59375 53.171875 32.546875 56.828125 
Q 29.5 60.5 25.484375 60.5 
Q 21.6875 60.5 19.171875 57.5 
Q 16.65625 54.5 16.65625 47.65625 
Q 16.65625 40.71875 19.390625 37.46875 
Q 22.125 34.234375 26.21875 34.234375 
Q 30.171875 34.234375 32.875 37.359375 
Q 35.59375 40.484375 35.59375 46.53125 
z
" id="Arial-BoldMT-57"/>
    <path d="M 26.171875 71.578125 
L 26.171875 -20.171875 
L 1.859375 -20.171875 
L 1.859375 -9.375 
L 13.140625 -9.375 
L 13.140625 60.890625 
L 1.859375 60.890625 
L 1.859375 71.578125 
z
" id="Arial-BoldMT-93"/>
   </defs>
   <g style="fill:#1a1c1a;" transform="translate(65.5289 322.128)scale(0.1 -0.1)">
    <use xlink:href="#Arial-BoldMT-91"/>
    <use x="33.300781" xlink:href="#Arial-BoldMT-49"/>
    <use x="88.916016" xlink:href="#Arial-BoldMT-56"/>
    <use x="144.53125" xlink:href="#Arial-BoldMT-44"/>
    <use x="172.314453" xlink:href="#Arial-BoldMT-32"/>
    <use x="200.097656" xlink:href="#Arial-BoldMT-55"/>
    <use x="255.712891" xlink:href="#Arial-BoldMT-53"/>
    <use x="311.328125" xlink:href="#Arial-BoldMT-54"/>
    <use x="366.943359" xlink:href="#Arial-BoldMT-44"/>
    <use x="394.726562" xlink:href="#Arial-BoldMT-32"/>
    <use x="422.509766" xlink:href="#Arial-BoldMT-50"/>
    <use x="478.125" xlink:href="#Arial-BoldMT-52"/>
    <use x="533.740234" xlink:href="#Arial-BoldMT-52"/>
    <use x="589.355469" xlink:href="#Arial-BoldMT-46"/>
    <use x="617.138672" xlink:href="#Arial-BoldMT-52"/>
    <use x="672.753906" xlink:href="#Arial-BoldMT-48"/>
    <use x="728.369141" xlink:href="#Arial-BoldMT-49"/>
    <use x="783.984375" xlink:href="#Arial-BoldMT-54"/>
    <use x="839.599609" xlink:href="#Arial-BoldMT-54"/>
    <use x="895.214844" xlink:href="#Arial-BoldMT-52"/>
    <use x="950.830078" xlink:href="#Arial-BoldMT-49"/>
    <use x="1006.445312" xlink:href="#Arial-BoldMT-52"/>
    <use x="1062.060547" xlink:href="#Arial-BoldMT-53"/>
    <use x="1117.675781" xlink:href="#Arial-BoldMT-50"/>
    <use x="1173.291016" xlink:href="#Arial-BoldMT-51"/>
    <use x="1228.90625" xlink:href="#Arial-BoldMT-52"/>
    <use x="1284.521484" xlink:href="#Arial-BoldMT-53"/>
    <use x="1340.136719" xlink:href="#Arial-BoldMT-44"/>
    <use x="1367.919922" xlink:href="#Arial-BoldMT-32"/>
    <use x="1395.703125" xlink:href="#Arial-BoldMT-50"/>
    <use x="1451.318359" xlink:href="#Arial-BoldMT-48"/>
    <use x="1506.933594" xlink:href="#Arial-BoldMT-48"/>
    <use x="1562.548828" xlink:href="#Arial-BoldMT-46"/>
    <use x="1590.332031" xlink:href="#Arial-BoldMT-48"/>
    <use x="1645.947266" xlink:href="#Arial-BoldMT-44"/>
    <use x="1673.730469" xlink:href="#Arial-BoldMT-32"/>
    <use x="1701.513672" xlink:href="#Arial-BoldMT-49"/>
    <use x="1757.128906" xlink:href="#Arial-BoldMT-54"/>
    <use x="1812.744141" xlink:href="#Arial-BoldMT-53"/>
    <use x="1868.359375" xlink:href="#Arial-BoldMT-46"/>
    <use x="1896.142578" xlink:href="#Arial-BoldMT-53"/>
    <use x="1951.757812" xlink:href="#Arial-BoldMT-53"/>
    <use x="2007.373047" xlink:href="#Arial-BoldMT-55"/>
    <use x="2062.988281" xlink:href="#Arial-BoldMT-49"/>
    <use x="2118.603516" xlink:href="#Arial-BoldMT-56"/>
    <use x="2174.21875" xlink:href="#Arial-BoldMT-54"/>
    <use x="2229.833984" xlink:href="#Arial-BoldMT-57"/>
    <use x="2285.449219" xlink:href="#Arial-BoldMT-50"/>
    <use x="2341.064453" xlink:href="#Arial-BoldMT-54"/>
    <use x="2396.679688" xlink:href="#Arial-BoldMT-57"/>
    <use x="2452.294922" xlink:href="#Arial-BoldMT-52"/>
    <use x="2507.910156" xlink:href="#Arial-BoldMT-52"/>
    <use x="2563.525391" xlink:href="#Arial-BoldMT-56"/>
    <use x="2619.140625" xlink:href="#Arial-BoldMT-52"/>
    <use x="2674.755859" xlink:href="#Arial-BoldMT-44"/>
    <use x="2702.539062" xlink:href="#Arial-BoldMT-32"/>
    <use x="2730.322266" xlink:href="#Arial-BoldMT-49"/>
    <use x="2785.9375" xlink:href="#Arial-BoldMT-46"/>
    <use x="2813.720703" xlink:href="#Arial-BoldMT-48"/>
    <use x="2869.335938" xlink:href="#Arial-BoldMT-54"/>
    <use x="2924.951172" xlink:href="#Arial-BoldMT-48"/>
    <use x="2980.566406" xlink:href="#Arial-BoldMT-52"/>
    <use x="3036.181641" xlink:href="#Arial-BoldMT-51"/>
    <use x="3091.796875" xlink:href="#Arial-BoldMT-56"/>
    <use x="3147.412109" xlink:href="#Arial-BoldMT-53"/>
    <use x="3203.027344" xlink:href="#Arial-BoldMT-57"/>
    <use x="3258.642578" xlink:href="#Arial-BoldMT-50"/>
    <use x="3314.257812" xlink:href="#Arial-BoldMT-50"/>
    <use x="3369.873047" xlink:href="#Arial-BoldMT-48"/>
    <use x="3425.488281" xlink:href="#Arial-BoldMT-50"/>
    <use x="3481.103516" xlink:href="#Arial-BoldMT-53"/>
    <use x="3536.71875" xlink:href="#Arial-BoldMT-51"/>
    <use x="3592.333984" xlink:href="#Arial-BoldMT-49"/>
    <use x="3647.949219" xlink:href="#Arial-BoldMT-52"/>
    <use x="3703.564453" xlink:href="#Arial-BoldMT-44"/>
    <use x="3731.347656" xlink:href="#Arial-BoldMT-32"/>
    <use x="3759.130859" xlink:href="#Arial-BoldMT-48"/>
    <use x="3814.746094" xlink:href="#Arial-BoldMT-46"/>
    <use x="3842.529297" xlink:href="#Arial-BoldMT-52"/>
    <use x="3898.144531" xlink:href="#Arial-BoldMT-50"/>
    <use x="3953.759766" xlink:href="#Arial-BoldMT-48"/>
    <use x="4009.375" xlink:href="#Arial-BoldMT-54"/>
    <use x="4064.990234" xlink:href="#Arial-BoldMT-51"/>
    <use x="4120.605469" xlink:href="#Arial-BoldMT-55"/>
    <use x="4176.220703" xlink:href="#Arial-BoldMT-53"/>
    <use x="4231.835938" xlink:href="#Arial-BoldMT-49"/>
    <use x="4287.451172" xlink:href="#Arial-BoldMT-50"/>
    <use x="4343.066406" xlink:href="#Arial-BoldMT-52"/>
    <use x="4398.681641" xlink:href="#Arial-BoldMT-49"/>
    <use x="4454.296875" xlink:href="#Arial-BoldMT-54"/>
    <use x="4509.912109" xlink:href="#Arial-BoldMT-57"/>
    <use x="4565.527344" xlink:href="#Arial-BoldMT-53"/>
    <use x="4621.142578" xlink:href="#Arial-BoldMT-57"/>
    <use x="4676.757812" xlink:href="#Arial-BoldMT-50"/>
    <use x="4732.373047" xlink:href="#Arial-BoldMT-52"/>
    <use x="4787.988281" xlink:href="#Arial-BoldMT-93"/>
   </g>
  </g>
  <g id="text_21">
   <!-- Min max mean median std skew kurtosis -->
   <defs>
    <path d="M 7.078125 0 
L 7.078125 71.578125 
L 28.71875 71.578125 
L 41.703125 22.75 
L 54.546875 71.578125 
L 76.21875 71.578125 
L 76.21875 0 
L 62.796875 0 
L 62.796875 56.34375 
L 48.578125 0 
L 34.671875 0 
L 20.515625 56.34375 
L 20.515625 0 
z
" id="Arial-BoldMT-77"/>
    <path d="M 0.59375 0 
L 19.28125 26.703125 
L 1.375 51.859375 
L 18.109375 51.859375 
L 27.296875 37.59375 
L 36.96875 51.859375 
L 53.078125 51.859375 
L 35.5 27.296875 
L 54.6875 0 
L 37.84375 0 
L 27.296875 16.0625 
L 16.65625 0 
z
" id="Arial-BoldMT-120"/>
    <path d="M 2.34375 14.796875 
L 16.109375 16.890625 
Q 17 12.890625 19.671875 10.8125 
Q 22.359375 8.734375 27.203125 8.734375 
Q 32.515625 8.734375 35.203125 10.6875 
Q 37.015625 12.0625 37.015625 14.359375 
Q 37.015625 15.921875 36.03125 16.9375 
Q 35.015625 17.921875 31.453125 18.75 
Q 14.84375 22.40625 10.40625 25.4375 
Q 4.25 29.640625 4.25 37.109375 
Q 4.25 43.84375 9.5625 48.4375 
Q 14.890625 53.03125 26.078125 53.03125 
Q 36.71875 53.03125 41.890625 49.5625 
Q 47.078125 46.09375 49.03125 39.3125 
L 36.078125 36.921875 
Q 35.25 39.9375 32.921875 41.546875 
Q 30.609375 43.171875 26.3125 43.171875 
Q 20.90625 43.171875 18.5625 41.65625 
Q 17 40.578125 17 38.875 
Q 17 37.40625 18.359375 36.375 
Q 20.21875 35.015625 31.171875 32.515625 
Q 42.140625 30.03125 46.484375 26.421875 
Q 50.78125 22.75 50.78125 16.21875 
Q 50.78125 9.078125 44.828125 3.953125 
Q 38.875 -1.171875 27.203125 -1.171875 
Q 16.609375 -1.171875 10.421875 3.125 
Q 4.25 7.421875 2.34375 14.796875 
z
" id="Arial-BoldMT-115"/>
    <path d="M 6.6875 0 
L 6.6875 71.578125 
L 20.40625 71.578125 
L 20.40625 33.59375 
L 36.46875 51.859375 
L 53.375 51.859375 
L 35.640625 32.90625 
L 54.640625 0 
L 39.84375 0 
L 26.8125 23.296875 
L 20.40625 16.609375 
L 20.40625 0 
z
" id="Arial-BoldMT-107"/>
    <path d="M 16.84375 0 
L 0.4375 51.859375 
L 13.765625 51.859375 
L 23.484375 17.875 
L 32.421875 51.859375 
L 45.65625 51.859375 
L 54.296875 17.875 
L 64.203125 51.859375 
L 77.734375 51.859375 
L 61.078125 0 
L 47.90625 0 
L 38.96875 33.34375 
L 30.171875 0 
z
" id="Arial-BoldMT-119"/>
   </defs>
   <g style="fill:#1a1c1a;" transform="translate(240.2945 501.7536)scale(0.1 -0.1)">
    <use xlink:href="#Arial-BoldMT-77"/>
    <use x="83.300781" xlink:href="#Arial-BoldMT-105"/>
    <use x="111.083984" xlink:href="#Arial-BoldMT-110"/>
    <use x="172.167969" xlink:href="#Arial-BoldMT-32"/>
    <use x="199.951172" xlink:href="#Arial-BoldMT-109"/>
    <use x="288.867188" xlink:href="#Arial-BoldMT-97"/>
    <use x="344.482422" xlink:href="#Arial-BoldMT-120"/>
    <use x="400.097656" xlink:href="#Arial-BoldMT-32"/>
    <use x="427.880859" xlink:href="#Arial-BoldMT-109"/>
    <use x="516.796875" xlink:href="#Arial-BoldMT-101"/>
    <use x="572.412109" xlink:href="#Arial-BoldMT-97"/>
    <use x="628.027344" xlink:href="#Arial-BoldMT-110"/>
    <use x="689.111328" xlink:href="#Arial-BoldMT-32"/>
    <use x="716.894531" xlink:href="#Arial-BoldMT-109"/>
    <use x="805.810547" xlink:href="#Arial-BoldMT-101"/>
    <use x="861.425781" xlink:href="#Arial-BoldMT-100"/>
    <use x="922.509766" xlink:href="#Arial-BoldMT-105"/>
    <use x="950.292969" xlink:href="#Arial-BoldMT-97"/>
    <use x="1005.908203" xlink:href="#Arial-BoldMT-110"/>
    <use x="1066.992188" xlink:href="#Arial-BoldMT-32"/>
    <use x="1094.775391" xlink:href="#Arial-BoldMT-115"/>
    <use x="1150.390625" xlink:href="#Arial-BoldMT-116"/>
    <use x="1183.691406" xlink:href="#Arial-BoldMT-100"/>
    <use x="1244.775391" xlink:href="#Arial-BoldMT-32"/>
    <use x="1272.558594" xlink:href="#Arial-BoldMT-115"/>
    <use x="1328.173828" xlink:href="#Arial-BoldMT-107"/>
    <use x="1383.789062" xlink:href="#Arial-BoldMT-101"/>
    <use x="1439.404297" xlink:href="#Arial-BoldMT-119"/>
    <use x="1517.1875" xlink:href="#Arial-BoldMT-32"/>
    <use x="1544.970703" xlink:href="#Arial-BoldMT-107"/>
    <use x="1600.585938" xlink:href="#Arial-BoldMT-117"/>
    <use x="1661.669922" xlink:href="#Arial-BoldMT-114"/>
    <use x="1700.585938" xlink:href="#Arial-BoldMT-116"/>
    <use x="1733.886719" xlink:href="#Arial-BoldMT-111"/>
    <use x="1794.970703" xlink:href="#Arial-BoldMT-115"/>
    <use x="1850.585938" xlink:href="#Arial-BoldMT-105"/>
    <use x="1878.369141" xlink:href="#Arial-BoldMT-115"/>
   </g>
  </g>
  <g id="text_22">
   <!-- The distribution of normalized Airbnb rental prices. -->
   <defs>
    <path d="M 23.390625 0 
L 23.390625 59.46875 
L 2.15625 59.46875 
L 2.15625 71.578125 
L 59.03125 71.578125 
L 59.03125 59.46875 
L 37.84375 59.46875 
L 37.84375 0 
z
" id="Arial-BoldMT-84"/>
    <path d="M 20.84375 71.578125 
L 20.84375 45.265625 
Q 27.484375 53.03125 36.71875 53.03125 
Q 41.453125 53.03125 45.265625 51.265625 
Q 49.078125 49.515625 51 46.78125 
Q 52.9375 44.046875 53.640625 40.71875 
Q 54.34375 37.40625 54.34375 30.421875 
L 54.34375 0 
L 40.625 0 
L 40.625 27.390625 
Q 40.625 35.546875 39.84375 37.734375 
Q 39.0625 39.9375 37.078125 41.234375 
Q 35.109375 42.53125 32.125 42.53125 
Q 28.71875 42.53125 26.03125 40.859375 
Q 23.34375 39.203125 22.09375 35.859375 
Q 20.84375 32.515625 20.84375 25.984375 
L 20.84375 0 
L 7.125 0 
L 7.125 71.578125 
z
" id="Arial-BoldMT-104"/>
    <path d="M 6.59375 0 
L 6.59375 71.578125 
L 20.3125 71.578125 
L 20.3125 45.796875 
Q 26.65625 53.03125 35.359375 53.03125 
Q 44.828125 53.03125 51.03125 46.171875 
Q 57.234375 39.3125 57.234375 26.46875 
Q 57.234375 13.1875 50.90625 6 
Q 44.578125 -1.171875 35.546875 -1.171875 
Q 31.109375 -1.171875 26.78125 1.046875 
Q 22.46875 3.265625 19.34375 7.625 
L 19.34375 0 
z
M 20.21875 27.046875 
Q 20.21875 19 22.75 15.140625 
Q 26.3125 9.671875 32.234375 9.671875 
Q 36.765625 9.671875 39.96875 13.546875 
Q 43.171875 17.4375 43.171875 25.78125 
Q 43.171875 34.671875 39.9375 38.59375 
Q 36.71875 42.53125 31.6875 42.53125 
Q 26.765625 42.53125 23.484375 38.6875 
Q 20.21875 34.859375 20.21875 27.046875 
z
" id="Arial-BoldMT-98"/>
    <path d="M 1.171875 51.859375 
L 8.796875 51.859375 
L 8.796875 55.765625 
Q 8.796875 62.3125 10.1875 65.53125 
Q 11.578125 68.75 15.3125 70.765625 
Q 19.046875 72.796875 24.75 72.796875 
Q 30.609375 72.796875 36.234375 71.046875 
L 34.375 61.46875 
Q 31.109375 62.25 28.078125 62.25 
Q 25.09375 62.25 23.796875 60.859375 
Q 22.515625 59.46875 22.515625 55.515625 
L 22.515625 51.859375 
L 32.765625 51.859375 
L 32.765625 41.0625 
L 22.515625 41.0625 
L 22.515625 0 
L 8.796875 0 
L 8.796875 41.0625 
L 1.171875 41.0625 
z
" id="Arial-BoldMT-102"/>
    <path d="M 6.78125 51.859375 
L 19.578125 51.859375 
L 19.578125 44.234375 
Q 22.078125 48.140625 26.3125 50.578125 
Q 30.5625 53.03125 35.75 53.03125 
Q 44.78125 53.03125 51.078125 45.953125 
Q 57.375 38.875 57.375 26.21875 
Q 57.375 13.234375 51.015625 6.03125 
Q 44.671875 -1.171875 35.640625 -1.171875 
Q 31.34375 -1.171875 27.84375 0.53125 
Q 24.359375 2.25 20.515625 6.390625 
L 20.515625 -19.734375 
L 6.78125 -19.734375 
z
M 20.359375 26.8125 
Q 20.359375 18.0625 23.828125 13.890625 
Q 27.296875 9.71875 32.28125 9.71875 
Q 37.0625 9.71875 40.234375 13.546875 
Q 43.40625 17.390625 43.40625 26.125 
Q 43.40625 34.28125 40.125 38.234375 
Q 36.859375 42.1875 32.03125 42.1875 
Q 27 42.1875 23.671875 38.296875 
Q 20.359375 34.421875 20.359375 26.8125 
z
" id="Arial-BoldMT-112"/>
   </defs>
   <g style="fill:#1a1c1a;" transform="translate(132.434844 20.303438)scale(0.18 -0.18)">
    <use xlink:href="#Arial-BoldMT-84"/>
    <use x="61.083984" xlink:href="#Arial-BoldMT-104"/>
    <use x="122.167969" xlink:href="#Arial-BoldMT-101"/>
    <use x="177.783203" xlink:href="#Arial-BoldMT-32"/>
    <use x="205.566406" xlink:href="#Arial-BoldMT-100"/>
    <use x="266.650391" xlink:href="#Arial-BoldMT-105"/>
    <use x="294.433594" xlink:href="#Arial-BoldMT-115"/>
    <use x="350.048828" xlink:href="#Arial-BoldMT-116"/>
    <use x="383.349609" xlink:href="#Arial-BoldMT-114"/>
    <use x="422.265625" xlink:href="#Arial-BoldMT-105"/>
    <use x="450.048828" xlink:href="#Arial-BoldMT-98"/>
    <use x="511.132812" xlink:href="#Arial-BoldMT-117"/>
    <use x="572.216797" xlink:href="#Arial-BoldMT-116"/>
    <use x="605.517578" xlink:href="#Arial-BoldMT-105"/>
    <use x="633.300781" xlink:href="#Arial-BoldMT-111"/>
    <use x="694.384766" xlink:href="#Arial-BoldMT-110"/>
    <use x="755.46875" xlink:href="#Arial-BoldMT-32"/>
    <use x="783.251953" xlink:href="#Arial-BoldMT-111"/>
    <use x="844.335938" xlink:href="#Arial-BoldMT-102"/>
    <use x="877.636719" xlink:href="#Arial-BoldMT-32"/>
    <use x="905.419922" xlink:href="#Arial-BoldMT-110"/>
    <use x="966.503906" xlink:href="#Arial-BoldMT-111"/>
    <use x="1027.587891" xlink:href="#Arial-BoldMT-114"/>
    <use x="1066.503906" xlink:href="#Arial-BoldMT-109"/>
    <use x="1155.419922" xlink:href="#Arial-BoldMT-97"/>
    <use x="1211.035156" xlink:href="#Arial-BoldMT-108"/>
    <use x="1238.818359" xlink:href="#Arial-BoldMT-105"/>
    <use x="1266.601562" xlink:href="#Arial-BoldMT-122"/>
    <use x="1316.601562" xlink:href="#Arial-BoldMT-101"/>
    <use x="1372.216797" xlink:href="#Arial-BoldMT-100"/>
    <use x="1433.300781" xlink:href="#Arial-BoldMT-32"/>
    <use x="1457.333984" xlink:href="#Arial-BoldMT-65"/>
    <use x="1529.550781" xlink:href="#Arial-BoldMT-105"/>
    <use x="1557.333984" xlink:href="#Arial-BoldMT-114"/>
    <use x="1596.25" xlink:href="#Arial-BoldMT-98"/>
    <use x="1657.333984" xlink:href="#Arial-BoldMT-110"/>
    <use x="1718.417969" xlink:href="#Arial-BoldMT-98"/>
    <use x="1779.501953" xlink:href="#Arial-BoldMT-32"/>
    <use x="1807.285156" xlink:href="#Arial-BoldMT-114"/>
    <use x="1846.201172" xlink:href="#Arial-BoldMT-101"/>
    <use x="1901.816406" xlink:href="#Arial-BoldMT-110"/>
    <use x="1962.900391" xlink:href="#Arial-BoldMT-116"/>
    <use x="1996.201172" xlink:href="#Arial-BoldMT-97"/>
    <use x="2051.816406" xlink:href="#Arial-BoldMT-108"/>
    <use x="2079.599609" xlink:href="#Arial-BoldMT-32"/>
    <use x="2107.382812" xlink:href="#Arial-BoldMT-112"/>
    <use x="2168.466797" xlink:href="#Arial-BoldMT-114"/>
    <use x="2207.382812" xlink:href="#Arial-BoldMT-105"/>
    <use x="2235.166016" xlink:href="#Arial-BoldMT-99"/>
    <use x="2290.78125" xlink:href="#Arial-BoldMT-101"/>
    <use x="2346.396484" xlink:href="#Arial-BoldMT-115"/>
    <use x="2402.011719" xlink:href="#Arial-BoldMT-46"/>
   </g>
  </g>
 </g>
 <defs>
  <clipPath id="p1def87c203">
   <rect height="598.752" width="602.64" x="59.5025" y="22.752"/>
  </clipPath>
 </defs>
</svg>
