<?xml version="1.0" encoding="utf-8" standalone="no"?>
<!DOCTYPE svg PUBLIC "-//W3C//DTD SVG 1.1//EN"
  "http://www.w3.org/Graphics/SVG/1.1/DTD/svg11.dtd">
<!-- Created with matplotlib (https://matplotlib.org/) -->
<svg height="638.477375pt" version="1.1" viewBox="0 0 694.380761 638.477375" width="694.380761pt" xmlns="http://www.w3.org/2000/svg" xmlns:xlink="http://www.w3.org/1999/xlink">
 <defs>
  <style type="text/css">
*{stroke-linecap:butt;stroke-linejoin:round;}
  </style>
 </defs>
 <g id="figure_1">
  <g id="patch_1">
   <path d="M 0 638.477375 
L 694.380761 638.477375 
L 694.380761 0 
L 0 0 
z
" style="fill:#ffffff;"/>
  </g>
  <g id="axes_1">
   <g id="patch_2">
    <path d="M 65.52 274.058182 
L 668.16 274.058182 
L 668.16 7.2 
L 65.52 7.2 
z
" style="fill:#ffffff;"/>
   </g>
   <g id="PathCollection_1">
    <defs>
     <path d="M -3.162278 3.162278 
L 3.162278 3.162278 
L 3.162278 -3.162278 
L -3.162278 -3.162278 
z
" id="mc504a377d2" style="stroke:#02b72e;"/>
    </defs>
    <g clip-path="url(#p00ef21fed0)">
     <use style="fill:#02b72e;stroke:#02b72e;" x="247.223896" xlink:href="#mc504a377d2" y="19.329917"/>
     <use style="fill:#02b72e;stroke:#02b72e;" x="106.008638" xlink:href="#mc504a377d2" y="261.928264"/>
     <use style="fill:#02b72e;stroke:#02b72e;" x="92.912727" xlink:href="#mc504a377d2" y="261.928264"/>
     <use style="fill:#02b72e;stroke:#02b72e;" x="248.781711" xlink:href="#mc504a377d2" y="261.928264"/>
     <use style="fill:#02b72e;stroke:#02b72e;" x="331.954218" xlink:href="#mc504a377d2" y="159.007754"/>
     <use style="fill:#02b72e;stroke:#02b72e;" x="127.020185" xlink:href="#mc504a377d2" y="261.928264"/>
     <use style="fill:#02b72e;stroke:#02b72e;" x="345.828161" xlink:href="#mc504a377d2" y="254.576799"/>
     <use style="fill:#02b72e;stroke:#02b72e;" x="352.463601" xlink:href="#mc504a377d2" y="261.928264"/>
     <use style="fill:#02b72e;stroke:#02b72e;" x="518.606816" xlink:href="#mc504a377d2" y="239.873869"/>
     <use style="fill:#02b72e;stroke:#02b72e;" x="440.426783" xlink:href="#mc504a377d2" y="210.468009"/>
     <use style="fill:#02b72e;stroke:#02b72e;" x="217.725144" xlink:href="#mc504a377d2" y="210.468009"/>
     <use style="fill:#02b72e;stroke:#02b72e;" x="244.259907" xlink:href="#mc504a377d2" y="261.928264"/>
     <use style="fill:#02b72e;stroke:#02b72e;" x="190.552325" xlink:href="#mc504a377d2" y="122.250428"/>
     <use style="fill:#02b72e;stroke:#02b72e;" x="228.818817" xlink:href="#mc504a377d2" y="254.576799"/>
     <use style="fill:#02b72e;stroke:#02b72e;" x="289.563686" xlink:href="#mc504a377d2" y="225.170939"/>
     <use style="fill:#02b72e;stroke:#02b72e;" x="220.107067" xlink:href="#mc504a377d2" y="225.170939"/>
     <use style="fill:#02b72e;stroke:#02b72e;" x="232.226646" xlink:href="#mc504a377d2" y="261.928264"/>
     <use style="fill:#02b72e;stroke:#02b72e;" x="238.295184" xlink:href="#mc504a377d2" y="254.576799"/>
     <use style="fill:#02b72e;stroke:#02b72e;" x="346.680848" xlink:href="#mc504a377d2" y="254.576799"/>
     <use style="fill:#02b72e;stroke:#02b72e;" x="640.767273" xlink:href="#mc504a377d2" y="239.873869"/>
     <use style="fill:#02b72e;stroke:#02b72e;" x="317.617187" xlink:href="#mc504a377d2" y="239.873869"/>
     <use style="fill:#02b72e;stroke:#02b72e;" x="342.450076" xlink:href="#mc504a377d2" y="239.873869"/>
     <use style="fill:#02b72e;stroke:#02b72e;" x="370.953833" xlink:href="#mc504a377d2" y="261.928264"/>
     <use style="fill:#02b72e;stroke:#02b72e;" x="252.819432" xlink:href="#mc504a377d2" y="247.225334"/>
     <use style="fill:#02b72e;stroke:#02b72e;" x="345.328331" xlink:href="#mc504a377d2" y="254.576799"/>
     <use style="fill:#02b72e;stroke:#02b72e;" x="365.559512" xlink:href="#mc504a377d2" y="136.953358"/>
     <use style="fill:#02b72e;stroke:#02b72e;" x="358.539138" xlink:href="#mc504a377d2" y="254.576799"/>
     <use style="fill:#02b72e;stroke:#02b72e;" x="546.42469" xlink:href="#mc504a377d2" y="239.873869"/>
     <use style="fill:#02b72e;stroke:#02b72e;" x="383.408188" xlink:href="#mc504a377d2" y="247.225334"/>
     <use style="fill:#02b72e;stroke:#02b72e;" x="498.284066" xlink:href="#mc504a377d2" y="247.225334"/>
     <use style="fill:#02b72e;stroke:#02b72e;" x="499.225404" xlink:href="#mc504a377d2" y="254.576799"/>
     <use style="fill:#02b72e;stroke:#02b72e;" x="196.985967" xlink:href="#mc504a377d2" y="254.576799"/>
     <use style="fill:#02b72e;stroke:#02b72e;" x="338.742465" xlink:href="#mc504a377d2" y="261.928264"/>
     <use style="fill:#02b72e;stroke:#02b72e;" x="286.532042" xlink:href="#mc504a377d2" y="247.225334"/>
     <use style="fill:#02b72e;stroke:#02b72e;" x="394.203245" xlink:href="#mc504a377d2" y="166.359219"/>
     <use style="fill:#02b72e;stroke:#02b72e;" x="280.003916" xlink:href="#mc504a377d2" y="261.928264"/>
     <use style="fill:#02b72e;stroke:#02b72e;" x="395.801303" xlink:href="#mc504a377d2" y="254.576799"/>
     <use style="fill:#02b72e;stroke:#02b72e;" x="239.981894" xlink:href="#mc504a377d2" y="261.928264"/>
     <use style="fill:#02b72e;stroke:#02b72e;" x="255.247431" xlink:href="#mc504a377d2" y="254.576799"/>
    </g>
   </g>
   <g id="matplotlib.axis_1">
    <g id="xtick_1">
     <g id="line2d_1">
      <defs>
       <path d="M 0 0 
L 0 3.5 
" id="m04eecdb1ee" style="stroke:#000000;stroke-width:0.8;"/>
      </defs>
      <g>
       <use style="stroke:#000000;stroke-width:0.8;" x="84.025425" xlink:href="#m04eecdb1ee" y="274.058182"/>
      </g>
     </g>
     <g id="text_1">
      <!-- 0.0 -->
      <defs>
       <path d="M 4.15625 35.296875 
Q 4.15625 48 6.765625 55.734375 
Q 9.375 63.484375 14.515625 67.671875 
Q 19.671875 71.875 27.484375 71.875 
Q 33.25 71.875 37.59375 69.546875 
Q 41.9375 67.234375 44.765625 62.859375 
Q 47.609375 58.5 49.21875 52.21875 
Q 50.828125 45.953125 50.828125 35.296875 
Q 50.828125 22.703125 48.234375 14.96875 
Q 45.65625 7.234375 40.5 3 
Q 35.359375 -1.21875 27.484375 -1.21875 
Q 17.140625 -1.21875 11.234375 6.203125 
Q 4.15625 15.140625 4.15625 35.296875 
z
M 13.1875 35.296875 
Q 13.1875 17.671875 17.3125 11.828125 
Q 21.4375 6 27.484375 6 
Q 33.546875 6 37.671875 11.859375 
Q 41.796875 17.71875 41.796875 35.296875 
Q 41.796875 52.984375 37.671875 58.78125 
Q 33.546875 64.59375 27.390625 64.59375 
Q 21.34375 64.59375 17.71875 59.46875 
Q 13.1875 52.9375 13.1875 35.296875 
z
" id="ArialMT-48"/>
       <path d="M 9.078125 0 
L 9.078125 10.015625 
L 19.09375 10.015625 
L 19.09375 0 
z
" id="ArialMT-46"/>
      </defs>
      <g transform="translate(75.685425 289.647557)scale(0.12 -0.12)">
       <use xlink:href="#ArialMT-48"/>
       <use x="55.615234" xlink:href="#ArialMT-46"/>
       <use x="83.398438" xlink:href="#ArialMT-48"/>
      </g>
     </g>
    </g>
    <g id="xtick_2">
     <g id="line2d_2">
      <g>
       <use style="stroke:#000000;stroke-width:0.8;" x="200.671998" xlink:href="#m04eecdb1ee" y="274.058182"/>
      </g>
     </g>
     <g id="text_2">
      <!-- 0.2 -->
      <defs>
       <path d="M 50.34375 8.453125 
L 50.34375 0 
L 3.03125 0 
Q 2.9375 3.171875 4.046875 6.109375 
Q 5.859375 10.9375 9.828125 15.625 
Q 13.8125 20.3125 21.34375 26.46875 
Q 33.015625 36.03125 37.109375 41.625 
Q 41.21875 47.21875 41.21875 52.203125 
Q 41.21875 57.421875 37.46875 61 
Q 33.734375 64.59375 27.734375 64.59375 
Q 21.390625 64.59375 17.578125 60.78125 
Q 13.765625 56.984375 13.71875 50.25 
L 4.6875 51.171875 
Q 5.609375 61.28125 11.65625 66.578125 
Q 17.71875 71.875 27.9375 71.875 
Q 38.234375 71.875 44.234375 66.15625 
Q 50.25 60.453125 50.25 52 
Q 50.25 47.703125 48.484375 43.546875 
Q 46.734375 39.40625 42.65625 34.8125 
Q 38.578125 30.21875 29.109375 22.21875 
Q 21.1875 15.578125 18.9375 13.203125 
Q 16.703125 10.84375 15.234375 8.453125 
z
" id="ArialMT-50"/>
      </defs>
      <g transform="translate(192.331998 289.647557)scale(0.12 -0.12)">
       <use xlink:href="#ArialMT-48"/>
       <use x="55.615234" xlink:href="#ArialMT-46"/>
       <use x="83.398438" xlink:href="#ArialMT-50"/>
      </g>
     </g>
    </g>
    <g id="xtick_3">
     <g id="line2d_3">
      <g>
       <use style="stroke:#000000;stroke-width:0.8;" x="317.318572" xlink:href="#m04eecdb1ee" y="274.058182"/>
      </g>
     </g>
     <g id="text_3">
      <!-- 0.4 -->
      <defs>
       <path d="M 32.328125 0 
L 32.328125 17.140625 
L 1.265625 17.140625 
L 1.265625 25.203125 
L 33.9375 71.578125 
L 41.109375 71.578125 
L 41.109375 25.203125 
L 50.78125 25.203125 
L 50.78125 17.140625 
L 41.109375 17.140625 
L 41.109375 0 
z
M 32.328125 25.203125 
L 32.328125 57.46875 
L 9.90625 25.203125 
z
" id="ArialMT-52"/>
      </defs>
      <g transform="translate(308.978572 289.647557)scale(0.12 -0.12)">
       <use xlink:href="#ArialMT-48"/>
       <use x="55.615234" xlink:href="#ArialMT-46"/>
       <use x="83.398438" xlink:href="#ArialMT-52"/>
      </g>
     </g>
    </g>
    <g id="xtick_4">
     <g id="line2d_4">
      <g>
       <use style="stroke:#000000;stroke-width:0.8;" x="433.965146" xlink:href="#m04eecdb1ee" y="274.058182"/>
      </g>
     </g>
     <g id="text_4">
      <!-- 0.6 -->
      <defs>
       <path d="M 49.75 54.046875 
L 41.015625 53.375 
Q 39.84375 58.546875 37.703125 60.890625 
Q 34.125 64.65625 28.90625 64.65625 
Q 24.703125 64.65625 21.53125 62.3125 
Q 17.390625 59.28125 14.984375 53.46875 
Q 12.59375 47.65625 12.5 36.921875 
Q 15.671875 41.75 20.265625 44.09375 
Q 24.859375 46.4375 29.890625 46.4375 
Q 38.671875 46.4375 44.84375 39.96875 
Q 51.03125 33.5 51.03125 23.25 
Q 51.03125 16.5 48.125 10.71875 
Q 45.21875 4.9375 40.140625 1.859375 
Q 35.0625 -1.21875 28.609375 -1.21875 
Q 17.625 -1.21875 10.6875 6.859375 
Q 3.765625 14.9375 3.765625 33.5 
Q 3.765625 54.25 11.421875 63.671875 
Q 18.109375 71.875 29.4375 71.875 
Q 37.890625 71.875 43.28125 67.140625 
Q 48.6875 62.40625 49.75 54.046875 
z
M 13.875 23.1875 
Q 13.875 18.65625 15.796875 14.5 
Q 17.71875 10.359375 21.1875 8.171875 
Q 24.65625 6 28.46875 6 
Q 34.03125 6 38.03125 10.484375 
Q 42.046875 14.984375 42.046875 22.703125 
Q 42.046875 30.125 38.078125 34.390625 
Q 34.125 38.671875 28.125 38.671875 
Q 22.171875 38.671875 18.015625 34.390625 
Q 13.875 30.125 13.875 23.1875 
z
" id="ArialMT-54"/>
      </defs>
      <g transform="translate(425.625146 289.647557)scale(0.12 -0.12)">
       <use xlink:href="#ArialMT-48"/>
       <use x="55.615234" xlink:href="#ArialMT-46"/>
       <use x="83.398438" xlink:href="#ArialMT-54"/>
      </g>
     </g>
    </g>
    <g id="xtick_5">
     <g id="line2d_5">
      <g>
       <use style="stroke:#000000;stroke-width:0.8;" x="550.611719" xlink:href="#m04eecdb1ee" y="274.058182"/>
      </g>
     </g>
     <g id="text_5">
      <!-- 0.8 -->
      <defs>
       <path d="M 17.671875 38.8125 
Q 12.203125 40.828125 9.5625 44.53125 
Q 6.9375 48.25 6.9375 53.421875 
Q 6.9375 61.234375 12.546875 66.546875 
Q 18.171875 71.875 27.484375 71.875 
Q 36.859375 71.875 42.578125 66.421875 
Q 48.296875 60.984375 48.296875 53.171875 
Q 48.296875 48.1875 45.671875 44.5 
Q 43.0625 40.828125 37.75 38.8125 
Q 44.34375 36.671875 47.78125 31.875 
Q 51.21875 27.09375 51.21875 20.453125 
Q 51.21875 11.28125 44.71875 5.03125 
Q 38.234375 -1.21875 27.640625 -1.21875 
Q 17.046875 -1.21875 10.546875 5.046875 
Q 4.046875 11.328125 4.046875 20.703125 
Q 4.046875 27.6875 7.59375 32.390625 
Q 11.140625 37.109375 17.671875 38.8125 
z
M 15.921875 53.71875 
Q 15.921875 48.640625 19.1875 45.40625 
Q 22.46875 42.1875 27.6875 42.1875 
Q 32.765625 42.1875 36.015625 45.375 
Q 39.265625 48.578125 39.265625 53.21875 
Q 39.265625 58.0625 35.90625 61.359375 
Q 32.5625 64.65625 27.59375 64.65625 
Q 22.5625 64.65625 19.234375 61.421875 
Q 15.921875 58.203125 15.921875 53.71875 
z
M 13.09375 20.65625 
Q 13.09375 16.890625 14.875 13.375 
Q 16.65625 9.859375 20.171875 7.921875 
Q 23.6875 6 27.734375 6 
Q 34.03125 6 38.125 10.046875 
Q 42.234375 14.109375 42.234375 20.359375 
Q 42.234375 26.703125 38.015625 30.859375 
Q 33.796875 35.015625 27.4375 35.015625 
Q 21.234375 35.015625 17.15625 30.90625 
Q 13.09375 26.8125 13.09375 20.65625 
z
" id="ArialMT-56"/>
      </defs>
      <g transform="translate(542.271719 289.647557)scale(0.12 -0.12)">
       <use xlink:href="#ArialMT-48"/>
       <use x="55.615234" xlink:href="#ArialMT-46"/>
       <use x="83.398438" xlink:href="#ArialMT-56"/>
      </g>
     </g>
    </g>
    <g id="xtick_6">
     <g id="line2d_6">
      <g>
       <use style="stroke:#000000;stroke-width:0.8;" x="667.258293" xlink:href="#m04eecdb1ee" y="274.058182"/>
      </g>
     </g>
     <g id="text_6">
      <!-- 1.0 -->
      <defs>
       <path d="M 37.25 0 
L 28.46875 0 
L 28.46875 56 
Q 25.296875 52.984375 20.140625 49.953125 
Q 14.984375 46.921875 10.890625 45.40625 
L 10.890625 53.90625 
Q 18.265625 57.375 23.78125 62.296875 
Q 29.296875 67.234375 31.59375 71.875 
L 37.25 71.875 
z
" id="ArialMT-49"/>
      </defs>
      <g transform="translate(658.918293 289.647557)scale(0.12 -0.12)">
       <use xlink:href="#ArialMT-49"/>
       <use x="55.615234" xlink:href="#ArialMT-46"/>
       <use x="83.398438" xlink:href="#ArialMT-48"/>
      </g>
     </g>
    </g>
    <g id="text_7">
     <!-- Population -->
     <defs>
      <path d="M 7.28125 0 
L 7.28125 71.578125 
L 30.46875 71.578125 
Q 43.65625 71.578125 47.65625 70.515625 
Q 53.8125 68.890625 57.953125 63.5 
Q 62.109375 58.109375 62.109375 49.5625 
Q 62.109375 42.96875 59.71875 38.46875 
Q 57.328125 33.984375 53.640625 31.421875 
Q 49.953125 28.859375 46.140625 28.03125 
Q 40.96875 27 31.15625 27 
L 21.734375 27 
L 21.734375 0 
z
M 21.734375 59.46875 
L 21.734375 39.15625 
L 29.640625 39.15625 
Q 38.1875 39.15625 41.0625 40.28125 
Q 43.953125 41.40625 45.578125 43.796875 
Q 47.21875 46.1875 47.21875 49.359375 
Q 47.21875 53.265625 44.921875 55.796875 
Q 42.625 58.34375 39.109375 58.984375 
Q 36.53125 59.46875 28.71875 59.46875 
z
" id="Arial-BoldMT-80"/>
      <path d="M 4 26.65625 
Q 4 33.5 7.375 39.890625 
Q 10.75 46.296875 16.921875 49.65625 
Q 23.09375 53.03125 30.71875 53.03125 
Q 42.484375 53.03125 50 45.390625 
Q 57.515625 37.75 57.515625 26.078125 
Q 57.515625 14.3125 49.921875 6.5625 
Q 42.328125 -1.171875 30.8125 -1.171875 
Q 23.6875 -1.171875 17.21875 2.046875 
Q 10.75 5.28125 7.375 11.5 
Q 4 17.71875 4 26.65625 
z
M 18.0625 25.921875 
Q 18.0625 18.21875 21.71875 14.109375 
Q 25.390625 10.015625 30.765625 10.015625 
Q 36.140625 10.015625 39.765625 14.109375 
Q 43.40625 18.21875 43.40625 26.03125 
Q 43.40625 33.640625 39.765625 37.734375 
Q 36.140625 41.84375 30.765625 41.84375 
Q 25.390625 41.84375 21.71875 37.734375 
Q 18.0625 33.640625 18.0625 25.921875 
z
" id="Arial-BoldMT-111"/>
      <path d="M 6.78125 51.859375 
L 19.578125 51.859375 
L 19.578125 44.234375 
Q 22.078125 48.140625 26.3125 50.578125 
Q 30.5625 53.03125 35.75 53.03125 
Q 44.78125 53.03125 51.078125 45.953125 
Q 57.375 38.875 57.375 26.21875 
Q 57.375 13.234375 51.015625 6.03125 
Q 44.671875 -1.171875 35.640625 -1.171875 
Q 31.34375 -1.171875 27.84375 0.53125 
Q 24.359375 2.25 20.515625 6.390625 
L 20.515625 -19.734375 
L 6.78125 -19.734375 
z
M 20.359375 26.8125 
Q 20.359375 18.0625 23.828125 13.890625 
Q 27.296875 9.71875 32.28125 9.71875 
Q 37.0625 9.71875 40.234375 13.546875 
Q 43.40625 17.390625 43.40625 26.125 
Q 43.40625 34.28125 40.125 38.234375 
Q 36.859375 42.1875 32.03125 42.1875 
Q 27 42.1875 23.671875 38.296875 
Q 20.359375 34.421875 20.359375 26.8125 
z
" id="Arial-BoldMT-112"/>
      <path d="M 41.3125 0 
L 41.3125 7.765625 
Q 38.484375 3.609375 33.859375 1.21875 
Q 29.25 -1.171875 24.125 -1.171875 
Q 18.890625 -1.171875 14.734375 1.125 
Q 10.59375 3.421875 8.734375 7.5625 
Q 6.890625 11.71875 6.890625 19.046875 
L 6.890625 51.859375 
L 20.609375 51.859375 
L 20.609375 28.03125 
Q 20.609375 17.09375 21.359375 14.625 
Q 22.125 12.15625 24.125 10.71875 
Q 26.125 9.28125 29.203125 9.28125 
Q 32.71875 9.28125 35.5 11.203125 
Q 38.28125 13.140625 39.296875 15.984375 
Q 40.328125 18.84375 40.328125 29.984375 
L 40.328125 51.859375 
L 54.046875 51.859375 
L 54.046875 0 
z
" id="Arial-BoldMT-117"/>
      <path d="M 7.171875 0 
L 7.171875 71.578125 
L 20.90625 71.578125 
L 20.90625 0 
z
" id="Arial-BoldMT-108"/>
      <path d="M 17.4375 36.03125 
L 4.984375 38.28125 
Q 7.078125 45.796875 12.203125 49.40625 
Q 17.328125 53.03125 27.4375 53.03125 
Q 36.625 53.03125 41.109375 50.859375 
Q 45.609375 48.6875 47.4375 45.34375 
Q 49.265625 42 49.265625 33.0625 
L 49.125 17.046875 
Q 49.125 10.203125 49.78125 6.953125 
Q 50.4375 3.71875 52.25 0 
L 38.671875 0 
Q 38.140625 1.375 37.359375 4.046875 
Q 37.015625 5.28125 36.859375 5.671875 
Q 33.34375 2.25 29.34375 0.53125 
Q 25.34375 -1.171875 20.796875 -1.171875 
Q 12.796875 -1.171875 8.171875 3.171875 
Q 3.5625 7.515625 3.5625 14.15625 
Q 3.5625 18.5625 5.65625 22 
Q 7.765625 25.4375 11.546875 27.265625 
Q 15.328125 29.109375 22.46875 30.46875 
Q 32.078125 32.28125 35.796875 33.84375 
L 35.796875 35.203125 
Q 35.796875 39.15625 33.84375 40.84375 
Q 31.890625 42.53125 26.46875 42.53125 
Q 22.796875 42.53125 20.75 41.09375 
Q 18.703125 39.65625 17.4375 36.03125 
z
M 35.796875 24.90625 
Q 33.15625 24.03125 27.4375 22.796875 
Q 21.734375 21.578125 19.96875 20.40625 
Q 17.28125 18.5 17.28125 15.578125 
Q 17.28125 12.703125 19.421875 10.59375 
Q 21.578125 8.5 24.90625 8.5 
Q 28.609375 8.5 31.984375 10.9375 
Q 34.46875 12.796875 35.25 15.484375 
Q 35.796875 17.234375 35.796875 22.171875 
z
" id="Arial-BoldMT-97"/>
      <path d="M 30.953125 51.859375 
L 30.953125 40.921875 
L 21.578125 40.921875 
L 21.578125 20.015625 
Q 21.578125 13.671875 21.84375 12.625 
Q 22.125 11.578125 23.078125 10.890625 
Q 24.03125 10.203125 25.390625 10.203125 
Q 27.296875 10.203125 30.90625 11.53125 
L 32.078125 0.875 
Q 27.296875 -1.171875 21.234375 -1.171875 
Q 17.53125 -1.171875 14.546875 0.0625 
Q 11.578125 1.3125 10.1875 3.296875 
Q 8.796875 5.28125 8.25 8.640625 
Q 7.8125 11.03125 7.8125 18.3125 
L 7.8125 40.921875 
L 1.515625 40.921875 
L 1.515625 51.859375 
L 7.8125 51.859375 
L 7.8125 62.15625 
L 21.578125 70.171875 
L 21.578125 51.859375 
z
" id="Arial-BoldMT-116"/>
      <path d="M 7.171875 58.890625 
L 7.171875 71.578125 
L 20.90625 71.578125 
L 20.90625 58.890625 
z
M 7.171875 0 
L 7.171875 51.859375 
L 20.90625 51.859375 
L 20.90625 0 
z
" id="Arial-BoldMT-105"/>
      <path d="M 54.34375 0 
L 40.625 0 
L 40.625 26.46875 
Q 40.625 34.859375 39.75 37.328125 
Q 38.875 39.796875 36.890625 41.15625 
Q 34.90625 42.53125 32.125 42.53125 
Q 28.5625 42.53125 25.734375 40.578125 
Q 22.90625 38.625 21.84375 35.390625 
Q 20.796875 32.171875 20.796875 23.484375 
L 20.796875 0 
L 7.078125 0 
L 7.078125 51.859375 
L 19.828125 51.859375 
L 19.828125 44.234375 
Q 26.609375 53.03125 36.921875 53.03125 
Q 41.453125 53.03125 45.203125 51.390625 
Q 48.96875 49.75 50.890625 47.203125 
Q 52.828125 44.671875 53.578125 41.453125 
Q 54.34375 38.234375 54.34375 32.234375 
z
" id="Arial-BoldMT-110"/>
     </defs>
     <g transform="translate(325.515 307.485057)scale(0.16 -0.16)">
      <use xlink:href="#Arial-BoldMT-80"/>
      <use x="66.699219" xlink:href="#Arial-BoldMT-111"/>
      <use x="127.783203" xlink:href="#Arial-BoldMT-112"/>
      <use x="188.867188" xlink:href="#Arial-BoldMT-117"/>
      <use x="249.951172" xlink:href="#Arial-BoldMT-108"/>
      <use x="277.734375" xlink:href="#Arial-BoldMT-97"/>
      <use x="333.349609" xlink:href="#Arial-BoldMT-116"/>
      <use x="366.650391" xlink:href="#Arial-BoldMT-105"/>
      <use x="394.433594" xlink:href="#Arial-BoldMT-111"/>
      <use x="455.517578" xlink:href="#Arial-BoldMT-110"/>
     </g>
    </g>
    <g id="text_8">
     <!-- 1e6 -->
     <defs>
      <path d="M 42.09375 16.703125 
L 51.171875 15.578125 
Q 49.03125 7.625 43.21875 3.21875 
Q 37.40625 -1.171875 28.375 -1.171875 
Q 17 -1.171875 10.328125 5.828125 
Q 3.65625 12.84375 3.65625 25.484375 
Q 3.65625 38.578125 10.390625 45.796875 
Q 17.140625 53.03125 27.875 53.03125 
Q 38.28125 53.03125 44.875 45.953125 
Q 51.46875 38.875 51.46875 26.03125 
Q 51.46875 25.25 51.421875 23.6875 
L 12.75 23.6875 
Q 13.234375 15.140625 17.578125 10.59375 
Q 21.921875 6.0625 28.421875 6.0625 
Q 33.25 6.0625 36.671875 8.59375 
Q 40.09375 11.140625 42.09375 16.703125 
z
M 13.234375 30.90625 
L 42.1875 30.90625 
Q 41.609375 37.453125 38.875 40.71875 
Q 34.671875 45.796875 27.984375 45.796875 
Q 21.921875 45.796875 17.796875 41.75 
Q 13.671875 37.703125 13.234375 30.90625 
z
" id="ArialMT-101"/>
     </defs>
     <g transform="translate(648.140625 303.621932)scale(0.12 -0.12)">
      <use xlink:href="#ArialMT-49"/>
      <use x="55.615234" xlink:href="#ArialMT-101"/>
      <use x="111.230469" xlink:href="#ArialMT-54"/>
     </g>
    </g>
   </g>
   <g id="matplotlib.axis_2">
    <g id="ytick_1">
     <g id="line2d_7">
      <defs>
       <path d="M 0 0 
L -3.5 0 
" id="m99aa96eeb4" style="stroke:#000000;stroke-width:0.8;"/>
      </defs>
      <g>
       <use style="stroke:#000000;stroke-width:0.8;" x="65.52" xlink:href="#m99aa96eeb4" y="261.928264"/>
      </g>
     </g>
     <g id="text_9">
      <!-- 0 -->
      <g transform="translate(51.846875 266.222952)scale(0.12 -0.12)">
       <use xlink:href="#ArialMT-48"/>
      </g>
     </g>
    </g>
    <g id="ytick_2">
     <g id="line2d_8">
      <g>
       <use style="stroke:#000000;stroke-width:0.8;" x="65.52" xlink:href="#m99aa96eeb4" y="225.170939"/>
      </g>
     </g>
     <g id="text_10">
      <!-- 5 -->
      <defs>
       <path d="M 4.15625 18.75 
L 13.375 19.53125 
Q 14.40625 12.796875 18.140625 9.390625 
Q 21.875 6 27.15625 6 
Q 33.5 6 37.890625 10.78125 
Q 42.28125 15.578125 42.28125 23.484375 
Q 42.28125 31 38.0625 35.34375 
Q 33.84375 39.703125 27 39.703125 
Q 22.75 39.703125 19.328125 37.765625 
Q 15.921875 35.84375 13.96875 32.765625 
L 5.71875 33.84375 
L 12.640625 70.609375 
L 48.25 70.609375 
L 48.25 62.203125 
L 19.671875 62.203125 
L 15.828125 42.96875 
Q 22.265625 47.46875 29.34375 47.46875 
Q 38.71875 47.46875 45.15625 40.96875 
Q 51.609375 34.46875 51.609375 24.265625 
Q 51.609375 14.546875 45.953125 7.46875 
Q 39.0625 -1.21875 27.15625 -1.21875 
Q 17.390625 -1.21875 11.203125 4.25 
Q 5.03125 9.71875 4.15625 18.75 
z
" id="ArialMT-53"/>
      </defs>
      <g transform="translate(51.846875 229.465627)scale(0.12 -0.12)">
       <use xlink:href="#ArialMT-53"/>
      </g>
     </g>
    </g>
    <g id="ytick_3">
     <g id="line2d_9">
      <g>
       <use style="stroke:#000000;stroke-width:0.8;" x="65.52" xlink:href="#m99aa96eeb4" y="188.413614"/>
      </g>
     </g>
     <g id="text_11">
      <!-- 10 -->
      <g transform="translate(45.17375 192.708301)scale(0.12 -0.12)">
       <use xlink:href="#ArialMT-49"/>
       <use x="55.615234" xlink:href="#ArialMT-48"/>
      </g>
     </g>
    </g>
    <g id="ytick_4">
     <g id="line2d_10">
      <g>
       <use style="stroke:#000000;stroke-width:0.8;" x="65.52" xlink:href="#m99aa96eeb4" y="151.656289"/>
      </g>
     </g>
     <g id="text_12">
      <!-- 15 -->
      <g transform="translate(45.17375 155.950976)scale(0.12 -0.12)">
       <use xlink:href="#ArialMT-49"/>
       <use x="55.615234" xlink:href="#ArialMT-53"/>
      </g>
     </g>
    </g>
    <g id="ytick_5">
     <g id="line2d_11">
      <g>
       <use style="stroke:#000000;stroke-width:0.8;" x="65.52" xlink:href="#m99aa96eeb4" y="114.898963"/>
      </g>
     </g>
     <g id="text_13">
      <!-- 20 -->
      <g transform="translate(45.17375 119.193651)scale(0.12 -0.12)">
       <use xlink:href="#ArialMT-50"/>
       <use x="55.615234" xlink:href="#ArialMT-48"/>
      </g>
     </g>
    </g>
    <g id="ytick_6">
     <g id="line2d_12">
      <g>
       <use style="stroke:#000000;stroke-width:0.8;" x="65.52" xlink:href="#m99aa96eeb4" y="78.141638"/>
      </g>
     </g>
     <g id="text_14">
      <!-- 25 -->
      <g transform="translate(45.17375 82.436325)scale(0.12 -0.12)">
       <use xlink:href="#ArialMT-50"/>
       <use x="55.615234" xlink:href="#ArialMT-53"/>
      </g>
     </g>
    </g>
    <g id="ytick_7">
     <g id="line2d_13">
      <g>
       <use style="stroke:#000000;stroke-width:0.8;" x="65.52" xlink:href="#m99aa96eeb4" y="41.384313"/>
      </g>
     </g>
     <g id="text_15">
      <!-- 30 -->
      <defs>
       <path d="M 4.203125 18.890625 
L 12.984375 20.0625 
Q 14.5 12.59375 18.140625 9.296875 
Q 21.78125 6 27 6 
Q 33.203125 6 37.46875 10.296875 
Q 41.75 14.59375 41.75 20.953125 
Q 41.75 27 37.796875 30.921875 
Q 33.84375 34.859375 27.734375 34.859375 
Q 25.25 34.859375 21.53125 33.890625 
L 22.515625 41.609375 
Q 23.390625 41.5 23.921875 41.5 
Q 29.546875 41.5 34.03125 44.421875 
Q 38.53125 47.359375 38.53125 53.46875 
Q 38.53125 58.296875 35.25 61.46875 
Q 31.984375 64.65625 26.8125 64.65625 
Q 21.6875 64.65625 18.265625 61.421875 
Q 14.84375 58.203125 13.875 51.765625 
L 5.078125 53.328125 
Q 6.6875 62.15625 12.390625 67.015625 
Q 18.109375 71.875 26.609375 71.875 
Q 32.46875 71.875 37.390625 69.359375 
Q 42.328125 66.84375 44.9375 62.5 
Q 47.5625 58.15625 47.5625 53.265625 
Q 47.5625 48.640625 45.0625 44.828125 
Q 42.578125 41.015625 37.703125 38.765625 
Q 44.046875 37.3125 47.5625 32.6875 
Q 51.078125 28.078125 51.078125 21.140625 
Q 51.078125 11.765625 44.234375 5.25 
Q 37.40625 -1.265625 26.953125 -1.265625 
Q 17.53125 -1.265625 11.296875 4.34375 
Q 5.078125 9.96875 4.203125 18.890625 
z
" id="ArialMT-51"/>
      </defs>
      <g transform="translate(45.17375 45.679)scale(0.12 -0.12)">
       <use xlink:href="#ArialMT-51"/>
       <use x="55.615234" xlink:href="#ArialMT-48"/>
      </g>
     </g>
    </g>
   </g>
   <g id="patch_3">
    <path d="M 65.52 274.058182 
L 65.52 7.2 
" style="fill:none;stroke:#1a1c1a;stroke-linecap:square;stroke-linejoin:miter;stroke-width:1.5;"/>
   </g>
   <g id="patch_4">
    <path d="M 65.52 274.058182 
L 668.16 274.058182 
" style="fill:none;stroke:#1a1c1a;stroke-linecap:square;stroke-linejoin:miter;stroke-width:1.5;"/>
   </g>
   <g id="text_16">
    <!-- r = -0.01 -->
    <defs>
     <path d="M 20.3125 0 
L 6.59375 0 
L 6.59375 51.859375 
L 19.34375 51.859375 
L 19.34375 44.484375 
Q 22.609375 49.703125 25.21875 51.359375 
Q 27.828125 53.03125 31.15625 53.03125 
Q 35.84375 53.03125 40.1875 50.4375 
L 35.9375 38.484375 
Q 32.46875 40.71875 29.5 40.71875 
Q 26.609375 40.71875 24.609375 39.125 
Q 22.609375 37.546875 21.453125 33.390625 
Q 20.3125 29.25 20.3125 16.015625 
z
" id="Arial-BoldMT-114"/>
     <path id="Arial-BoldMT-32"/>
     <path d="M 4.15625 39.84375 
L 4.15625 52.4375 
L 54.203125 52.4375 
L 54.203125 39.84375 
z
M 4.15625 18.171875 
L 4.15625 30.8125 
L 54.203125 30.8125 
L 54.203125 18.171875 
z
" id="Arial-BoldMT-61"/>
     <path d="M 5.609375 19.09375 
L 5.609375 32.8125 
L 32.5625 32.8125 
L 32.5625 19.09375 
z
" id="Arial-BoldMT-45"/>
     <path d="M 27.4375 71.875 
Q 37.84375 71.875 43.703125 64.453125 
Q 50.6875 55.671875 50.6875 35.296875 
Q 50.6875 14.984375 43.65625 6.109375 
Q 37.84375 -1.21875 27.4375 -1.21875 
Q 17 -1.21875 10.59375 6.8125 
Q 4.203125 14.84375 4.203125 35.453125 
Q 4.203125 55.671875 11.234375 64.546875 
Q 17.046875 71.875 27.4375 71.875 
z
M 27.4375 60.5 
Q 24.953125 60.5 23 58.90625 
Q 21.046875 57.328125 19.96875 53.21875 
Q 18.5625 47.90625 18.5625 35.296875 
Q 18.5625 22.703125 19.828125 17.984375 
Q 21.09375 13.28125 23.015625 11.71875 
Q 24.953125 10.15625 27.4375 10.15625 
Q 29.9375 10.15625 31.890625 11.734375 
Q 33.84375 13.328125 34.90625 17.4375 
Q 36.328125 22.703125 36.328125 35.296875 
Q 36.328125 47.90625 35.0625 52.609375 
Q 33.796875 57.328125 31.859375 58.90625 
Q 29.9375 60.5 27.4375 60.5 
z
" id="Arial-BoldMT-48"/>
     <path d="M 7.171875 0 
L 7.171875 13.71875 
L 20.90625 13.71875 
L 20.90625 0 
z
" id="Arial-BoldMT-46"/>
     <path d="M 39.359375 0 
L 25.640625 0 
L 25.640625 51.703125 
Q 18.109375 44.671875 7.90625 41.3125 
L 7.90625 53.765625 
Q 13.28125 55.515625 19.578125 60.421875 
Q 25.875 65.328125 28.21875 71.875 
L 39.359375 71.875 
z
" id="Arial-BoldMT-49"/>
    </defs>
    <g style="fill:#1a1c1a;" transform="translate(607.896 33.885818)scale(0.14 -0.14)">
     <use xlink:href="#Arial-BoldMT-114"/>
     <use x="38.916016" xlink:href="#Arial-BoldMT-32"/>
     <use x="66.699219" xlink:href="#Arial-BoldMT-61"/>
     <use x="125.097656" xlink:href="#Arial-BoldMT-32"/>
     <use x="152.880859" xlink:href="#Arial-BoldMT-45"/>
     <use x="186.181641" xlink:href="#Arial-BoldMT-48"/>
     <use x="241.796875" xlink:href="#Arial-BoldMT-46"/>
     <use x="269.580078" xlink:href="#Arial-BoldMT-48"/>
     <use x="325.195312" xlink:href="#Arial-BoldMT-49"/>
    </g>
   </g>
   <g id="text_17">
    <!-- Sisli -->
    <defs>
     <path d="M 4.5 23 
L 13.421875 23.78125 
Q 14.0625 18.40625 16.375 14.96875 
Q 18.703125 11.53125 23.578125 9.40625 
Q 28.46875 7.28125 34.578125 7.28125 
Q 39.984375 7.28125 44.140625 8.890625 
Q 48.296875 10.5 50.3125 13.296875 
Q 52.34375 16.109375 52.34375 19.4375 
Q 52.34375 22.796875 50.390625 25.3125 
Q 48.4375 27.828125 43.953125 29.546875 
Q 41.0625 30.671875 31.203125 33.03125 
Q 21.34375 35.40625 17.390625 37.5 
Q 12.25 40.1875 9.734375 44.15625 
Q 7.234375 48.140625 7.234375 53.078125 
Q 7.234375 58.5 10.296875 63.203125 
Q 13.375 67.921875 19.28125 70.359375 
Q 25.203125 72.796875 32.421875 72.796875 
Q 40.375 72.796875 46.453125 70.234375 
Q 52.546875 67.671875 55.8125 62.6875 
Q 59.078125 57.71875 59.328125 51.421875 
L 50.25 50.734375 
Q 49.515625 57.515625 45.28125 60.984375 
Q 41.0625 64.453125 32.8125 64.453125 
Q 24.21875 64.453125 20.28125 61.296875 
Q 16.359375 58.15625 16.359375 53.71875 
Q 16.359375 49.859375 19.140625 47.359375 
Q 21.875 44.875 33.421875 42.265625 
Q 44.96875 39.65625 49.265625 37.703125 
Q 55.515625 34.8125 58.484375 30.390625 
Q 61.46875 25.984375 61.46875 20.21875 
Q 61.46875 14.5 58.203125 9.4375 
Q 54.9375 4.390625 48.796875 1.578125 
Q 42.671875 -1.21875 35.015625 -1.21875 
Q 25.296875 -1.21875 18.71875 1.609375 
Q 12.15625 4.4375 8.421875 10.125 
Q 4.6875 15.828125 4.5 23 
z
" id="ArialMT-83"/>
     <path d="M 6.640625 61.46875 
L 6.640625 71.578125 
L 15.4375 71.578125 
L 15.4375 61.46875 
z
M 6.640625 0 
L 6.640625 51.859375 
L 15.4375 51.859375 
L 15.4375 0 
z
" id="ArialMT-105"/>
     <path d="M 3.078125 15.484375 
L 11.765625 16.84375 
Q 12.5 11.625 15.84375 8.84375 
Q 19.1875 6.0625 25.203125 6.0625 
Q 31.25 6.0625 34.171875 8.515625 
Q 37.109375 10.984375 37.109375 14.3125 
Q 37.109375 17.28125 34.515625 19 
Q 32.71875 20.171875 25.53125 21.96875 
Q 15.875 24.421875 12.140625 26.203125 
Q 8.40625 27.984375 6.46875 31.125 
Q 4.546875 34.28125 4.546875 38.09375 
Q 4.546875 41.546875 6.125 44.5 
Q 7.71875 47.46875 10.453125 49.421875 
Q 12.5 50.921875 16.03125 51.96875 
Q 19.578125 53.03125 23.640625 53.03125 
Q 29.734375 53.03125 34.34375 51.265625 
Q 38.96875 49.515625 41.15625 46.5 
Q 43.359375 43.5 44.1875 38.484375 
L 35.59375 37.3125 
Q 35.015625 41.3125 32.203125 43.546875 
Q 29.390625 45.796875 24.265625 45.796875 
Q 18.21875 45.796875 15.625 43.796875 
Q 13.03125 41.796875 13.03125 39.109375 
Q 13.03125 37.40625 14.109375 36.03125 
Q 15.1875 34.625 17.484375 33.6875 
Q 18.796875 33.203125 25.25 31.453125 
Q 34.578125 28.953125 38.25 27.359375 
Q 41.9375 25.78125 44.03125 22.75 
Q 46.140625 19.734375 46.140625 15.234375 
Q 46.140625 10.84375 43.578125 6.953125 
Q 41.015625 3.078125 36.171875 0.953125 
Q 31.34375 -1.171875 25.25 -1.171875 
Q 15.140625 -1.171875 9.84375 3.03125 
Q 4.546875 7.234375 3.078125 15.484375 
z
" id="ArialMT-115"/>
     <path d="M 6.390625 0 
L 6.390625 71.578125 
L 15.1875 71.578125 
L 15.1875 0 
z
" id="ArialMT-108"/>
    </defs>
    <g style="fill:#1a1c1a;" transform="translate(247.225646 21.915074)scale(0.1 -0.1)">
     <use xlink:href="#ArialMT-83"/>
     <use x="66.699219" xlink:href="#ArialMT-105"/>
     <use x="88.916016" xlink:href="#ArialMT-115"/>
     <use x="138.916016" xlink:href="#ArialMT-108"/>
     <use x="161.132812" xlink:href="#ArialMT-105"/>
    </g>
   </g>
   <g id="text_18">
    <!-- Atasehir -->
    <defs>
     <path d="M -0.140625 0 
L 27.34375 71.578125 
L 37.546875 71.578125 
L 66.84375 0 
L 56.0625 0 
L 47.703125 21.6875 
L 17.78125 21.6875 
L 9.90625 0 
z
M 20.515625 29.390625 
L 44.78125 29.390625 
L 37.3125 49.21875 
Q 33.890625 58.25 32.234375 64.0625 
Q 30.859375 57.171875 28.375 50.390625 
z
" id="ArialMT-65"/>
     <path d="M 25.78125 7.859375 
L 27.046875 0.09375 
Q 23.34375 -0.6875 20.40625 -0.6875 
Q 15.625 -0.6875 12.984375 0.828125 
Q 10.359375 2.34375 9.28125 4.8125 
Q 8.203125 7.28125 8.203125 15.1875 
L 8.203125 45.015625 
L 1.765625 45.015625 
L 1.765625 51.859375 
L 8.203125 51.859375 
L 8.203125 64.703125 
L 16.9375 69.96875 
L 16.9375 51.859375 
L 25.78125 51.859375 
L 25.78125 45.015625 
L 16.9375 45.015625 
L 16.9375 14.703125 
Q 16.9375 10.9375 17.40625 9.859375 
Q 17.875 8.796875 18.921875 8.15625 
Q 19.96875 7.515625 21.921875 7.515625 
Q 23.390625 7.515625 25.78125 7.859375 
z
" id="ArialMT-116"/>
     <path d="M 40.4375 6.390625 
Q 35.546875 2.25 31.03125 0.53125 
Q 26.515625 -1.171875 21.34375 -1.171875 
Q 12.796875 -1.171875 8.203125 3 
Q 3.609375 7.171875 3.609375 13.671875 
Q 3.609375 17.484375 5.34375 20.625 
Q 7.078125 23.78125 9.890625 25.6875 
Q 12.703125 27.59375 16.21875 28.5625 
Q 18.796875 29.25 24.03125 29.890625 
Q 34.671875 31.15625 39.703125 32.90625 
Q 39.75 34.71875 39.75 35.203125 
Q 39.75 40.578125 37.25 42.78125 
Q 33.890625 45.75 27.25 45.75 
Q 21.046875 45.75 18.09375 43.578125 
Q 15.140625 41.40625 13.71875 35.890625 
L 5.125 37.0625 
Q 6.296875 42.578125 8.984375 45.96875 
Q 11.671875 49.359375 16.75 51.1875 
Q 21.828125 53.03125 28.515625 53.03125 
Q 35.15625 53.03125 39.296875 51.46875 
Q 43.453125 49.90625 45.40625 47.53125 
Q 47.359375 45.171875 48.140625 41.546875 
Q 48.578125 39.3125 48.578125 33.453125 
L 48.578125 21.734375 
Q 48.578125 9.46875 49.140625 6.21875 
Q 49.703125 2.984375 51.375 0 
L 42.1875 0 
Q 40.828125 2.734375 40.4375 6.390625 
z
M 39.703125 26.03125 
Q 34.90625 24.078125 25.34375 22.703125 
Q 19.921875 21.921875 17.671875 20.9375 
Q 15.4375 19.96875 14.203125 18.09375 
Q 12.984375 16.21875 12.984375 13.921875 
Q 12.984375 10.40625 15.640625 8.0625 
Q 18.3125 5.71875 23.4375 5.71875 
Q 28.515625 5.71875 32.46875 7.9375 
Q 36.421875 10.15625 38.28125 14.015625 
Q 39.703125 17 39.703125 22.796875 
z
" id="ArialMT-97"/>
     <path d="M 6.59375 0 
L 6.59375 71.578125 
L 15.375 71.578125 
L 15.375 45.90625 
Q 21.53125 53.03125 30.90625 53.03125 
Q 36.671875 53.03125 40.921875 50.75 
Q 45.171875 48.484375 47 44.484375 
Q 48.828125 40.484375 48.828125 32.859375 
L 48.828125 0 
L 40.046875 0 
L 40.046875 32.859375 
Q 40.046875 39.453125 37.1875 42.453125 
Q 34.328125 45.453125 29.109375 45.453125 
Q 25.203125 45.453125 21.75 43.421875 
Q 18.3125 41.40625 16.84375 37.9375 
Q 15.375 34.46875 15.375 28.375 
L 15.375 0 
z
" id="ArialMT-104"/>
     <path d="M 6.5 0 
L 6.5 51.859375 
L 14.40625 51.859375 
L 14.40625 44 
Q 17.4375 49.515625 20 51.265625 
Q 22.5625 53.03125 25.640625 53.03125 
Q 30.078125 53.03125 34.671875 50.203125 
L 31.640625 42.046875 
Q 28.421875 43.953125 25.203125 43.953125 
Q 22.3125 43.953125 20.015625 42.21875 
Q 17.71875 40.484375 16.75 37.40625 
Q 15.28125 32.71875 15.28125 27.15625 
L 15.28125 0 
z
" id="ArialMT-114"/>
    </defs>
    <g style="fill:#1a1c1a;" transform="translate(331.955967 161.59291)scale(0.1 -0.1)">
     <use xlink:href="#ArialMT-65"/>
     <use x="66.699219" xlink:href="#ArialMT-116"/>
     <use x="94.482422" xlink:href="#ArialMT-97"/>
     <use x="150.097656" xlink:href="#ArialMT-115"/>
     <use x="200.097656" xlink:href="#ArialMT-101"/>
     <use x="255.712891" xlink:href="#ArialMT-104"/>
     <use x="311.328125" xlink:href="#ArialMT-105"/>
     <use x="333.544922" xlink:href="#ArialMT-114"/>
    </g>
   </g>
   <g id="text_19">
    <!-- Bahcelievler -->
    <defs>
     <path d="M 7.328125 0 
L 7.328125 71.578125 
L 34.1875 71.578125 
Q 42.390625 71.578125 47.34375 69.40625 
Q 52.296875 67.234375 55.09375 62.71875 
Q 57.90625 58.203125 57.90625 53.265625 
Q 57.90625 48.6875 55.421875 44.625 
Q 52.9375 40.578125 47.90625 38.09375 
Q 54.390625 36.1875 57.875 31.59375 
Q 61.375 27 61.375 20.75 
Q 61.375 15.71875 59.25 11.390625 
Q 57.125 7.078125 54 4.734375 
Q 50.875 2.390625 46.15625 1.1875 
Q 41.453125 0 34.625 0 
z
M 16.796875 41.5 
L 32.28125 41.5 
Q 38.578125 41.5 41.3125 42.328125 
Q 44.921875 43.40625 46.75 45.890625 
Q 48.578125 48.390625 48.578125 52.15625 
Q 48.578125 55.71875 46.875 58.421875 
Q 45.171875 61.140625 41.984375 62.140625 
Q 38.8125 63.140625 31.109375 63.140625 
L 16.796875 63.140625 
z
M 16.796875 8.453125 
L 34.625 8.453125 
Q 39.203125 8.453125 41.0625 8.796875 
Q 44.34375 9.375 46.53125 10.734375 
Q 48.734375 12.109375 50.140625 14.71875 
Q 51.5625 17.328125 51.5625 20.75 
Q 51.5625 24.75 49.515625 27.703125 
Q 47.46875 30.671875 43.828125 31.859375 
Q 40.1875 33.0625 33.34375 33.0625 
L 16.796875 33.0625 
z
" id="ArialMT-66"/>
     <path d="M 40.4375 19 
L 49.078125 17.875 
Q 47.65625 8.9375 41.8125 3.875 
Q 35.984375 -1.171875 27.484375 -1.171875 
Q 16.84375 -1.171875 10.375 5.78125 
Q 3.90625 12.75 3.90625 25.734375 
Q 3.90625 34.125 6.6875 40.421875 
Q 9.46875 46.734375 15.15625 49.875 
Q 20.84375 53.03125 27.546875 53.03125 
Q 35.984375 53.03125 41.359375 48.75 
Q 46.734375 44.484375 48.25 36.625 
L 39.703125 35.296875 
Q 38.484375 40.53125 35.375 43.15625 
Q 32.28125 45.796875 27.875 45.796875 
Q 21.234375 45.796875 17.078125 41.03125 
Q 12.9375 36.28125 12.9375 25.984375 
Q 12.9375 15.53125 16.9375 10.796875 
Q 20.953125 6.0625 27.390625 6.0625 
Q 32.5625 6.0625 36.03125 9.234375 
Q 39.5 12.40625 40.4375 19 
z
" id="ArialMT-99"/>
     <path d="M 21 0 
L 1.265625 51.859375 
L 10.546875 51.859375 
L 21.6875 20.796875 
Q 23.484375 15.765625 25 10.359375 
Q 26.171875 14.453125 28.265625 20.21875 
L 39.796875 51.859375 
L 48.828125 51.859375 
L 29.203125 0 
z
" id="ArialMT-118"/>
    </defs>
    <g style="fill:#1a1c1a;" transform="translate(440.428532 213.053165)scale(0.1 -0.1)">
     <use xlink:href="#ArialMT-66"/>
     <use x="66.699219" xlink:href="#ArialMT-97"/>
     <use x="122.314453" xlink:href="#ArialMT-104"/>
     <use x="177.929688" xlink:href="#ArialMT-99"/>
     <use x="227.929688" xlink:href="#ArialMT-101"/>
     <use x="283.544922" xlink:href="#ArialMT-108"/>
     <use x="305.761719" xlink:href="#ArialMT-105"/>
     <use x="327.978516" xlink:href="#ArialMT-101"/>
     <use x="383.59375" xlink:href="#ArialMT-118"/>
     <use x="433.59375" xlink:href="#ArialMT-108"/>
     <use x="455.810547" xlink:href="#ArialMT-101"/>
     <use x="511.425781" xlink:href="#ArialMT-114"/>
    </g>
   </g>
   <g id="text_20">
    <!-- Bakirkoy -->
    <defs>
     <path d="M 6.640625 0 
L 6.640625 71.578125 
L 15.4375 71.578125 
L 15.4375 30.765625 
L 36.234375 51.859375 
L 47.609375 51.859375 
L 27.78125 32.625 
L 49.609375 0 
L 38.765625 0 
L 21.625 26.515625 
L 15.4375 20.5625 
L 15.4375 0 
z
" id="ArialMT-107"/>
     <path d="M 3.328125 25.921875 
Q 3.328125 40.328125 11.328125 47.265625 
Q 18.015625 53.03125 27.640625 53.03125 
Q 38.328125 53.03125 45.109375 46.015625 
Q 51.90625 39.015625 51.90625 26.65625 
Q 51.90625 16.65625 48.90625 10.90625 
Q 45.90625 5.171875 40.15625 2 
Q 34.421875 -1.171875 27.640625 -1.171875 
Q 16.75 -1.171875 10.03125 5.8125 
Q 3.328125 12.796875 3.328125 25.921875 
z
M 12.359375 25.921875 
Q 12.359375 15.96875 16.703125 11.015625 
Q 21.046875 6.0625 27.640625 6.0625 
Q 34.1875 6.0625 38.53125 11.03125 
Q 42.875 16.015625 42.875 26.21875 
Q 42.875 35.84375 38.5 40.796875 
Q 34.125 45.75 27.640625 45.75 
Q 21.046875 45.75 16.703125 40.8125 
Q 12.359375 35.890625 12.359375 25.921875 
z
" id="ArialMT-111"/>
     <path d="M 6.203125 -19.96875 
L 5.21875 -11.71875 
Q 8.109375 -12.5 10.25 -12.5 
Q 13.1875 -12.5 14.9375 -11.515625 
Q 16.703125 -10.546875 17.828125 -8.796875 
Q 18.65625 -7.46875 20.515625 -2.25 
Q 20.75 -1.515625 21.296875 -0.09375 
L 1.609375 51.859375 
L 11.078125 51.859375 
L 21.875 21.828125 
Q 23.96875 16.109375 25.640625 9.8125 
Q 27.15625 15.875 29.25 21.625 
L 40.328125 51.859375 
L 49.125 51.859375 
L 29.390625 -0.875 
Q 26.21875 -9.421875 24.46875 -12.640625 
Q 22.125 -17 19.09375 -19.015625 
Q 16.0625 -21.046875 11.859375 -21.046875 
Q 9.328125 -21.046875 6.203125 -19.96875 
z
" id="ArialMT-121"/>
    </defs>
    <g style="fill:#1a1c1a;" transform="translate(217.726894 212.994572)scale(0.1 -0.1)">
     <use xlink:href="#ArialMT-66"/>
     <use x="66.699219" xlink:href="#ArialMT-97"/>
     <use x="122.314453" xlink:href="#ArialMT-107"/>
     <use x="172.314453" xlink:href="#ArialMT-105"/>
     <use x="194.53125" xlink:href="#ArialMT-114"/>
     <use x="227.832031" xlink:href="#ArialMT-107"/>
     <use x="277.832031" xlink:href="#ArialMT-111"/>
     <use x="333.447266" xlink:href="#ArialMT-121"/>
    </g>
   </g>
   <g id="text_21">
    <!-- Besiktas -->
    <g style="fill:#1a1c1a;" transform="translate(190.554075 124.835584)scale(0.1 -0.1)">
     <use xlink:href="#ArialMT-66"/>
     <use x="66.699219" xlink:href="#ArialMT-101"/>
     <use x="122.314453" xlink:href="#ArialMT-115"/>
     <use x="172.314453" xlink:href="#ArialMT-105"/>
     <use x="194.53125" xlink:href="#ArialMT-107"/>
     <use x="244.53125" xlink:href="#ArialMT-116"/>
     <use x="272.314453" xlink:href="#ArialMT-97"/>
     <use x="327.929688" xlink:href="#ArialMT-115"/>
    </g>
   </g>
   <g id="text_22">
    <!-- Beyoglu -->
    <defs>
     <path d="M 4.984375 -4.296875 
L 13.53125 -5.5625 
Q 14.0625 -9.515625 16.5 -11.328125 
Q 19.78125 -13.765625 25.4375 -13.765625 
Q 31.546875 -13.765625 34.859375 -11.328125 
Q 38.1875 -8.890625 39.359375 -4.5 
Q 40.046875 -1.8125 39.984375 6.78125 
Q 34.234375 0 25.640625 0 
Q 14.9375 0 9.078125 7.71875 
Q 3.21875 15.4375 3.21875 26.21875 
Q 3.21875 33.640625 5.90625 39.90625 
Q 8.59375 46.1875 13.6875 49.609375 
Q 18.796875 53.03125 25.6875 53.03125 
Q 34.859375 53.03125 40.828125 45.609375 
L 40.828125 51.859375 
L 48.921875 51.859375 
L 48.921875 7.03125 
Q 48.921875 -5.078125 46.453125 -10.125 
Q 44 -15.1875 38.640625 -18.109375 
Q 33.296875 -21.046875 25.484375 -21.046875 
Q 16.21875 -21.046875 10.5 -16.875 
Q 4.78125 -12.703125 4.984375 -4.296875 
z
M 12.25 26.859375 
Q 12.25 16.65625 16.296875 11.96875 
Q 20.359375 7.28125 26.46875 7.28125 
Q 32.515625 7.28125 36.609375 11.9375 
Q 40.71875 16.609375 40.71875 26.5625 
Q 40.71875 36.078125 36.5 40.90625 
Q 32.28125 45.75 26.3125 45.75 
Q 20.453125 45.75 16.34375 40.984375 
Q 12.25 36.234375 12.25 26.859375 
z
" id="ArialMT-103"/>
     <path d="M 40.578125 0 
L 40.578125 7.625 
Q 34.515625 -1.171875 24.125 -1.171875 
Q 19.53125 -1.171875 15.546875 0.578125 
Q 11.578125 2.34375 9.640625 5 
Q 7.71875 7.671875 6.9375 11.53125 
Q 6.390625 14.109375 6.390625 19.734375 
L 6.390625 51.859375 
L 15.1875 51.859375 
L 15.1875 23.09375 
Q 15.1875 16.21875 15.71875 13.8125 
Q 16.546875 10.359375 19.234375 8.375 
Q 21.921875 6.390625 25.875 6.390625 
Q 29.828125 6.390625 33.296875 8.421875 
Q 36.765625 10.453125 38.203125 13.9375 
Q 39.65625 17.4375 39.65625 24.078125 
L 39.65625 51.859375 
L 48.4375 51.859375 
L 48.4375 0 
z
" id="ArialMT-117"/>
    </defs>
    <g style="fill:#1a1c1a;" transform="translate(220.108817 227.697502)scale(0.1 -0.1)">
     <use xlink:href="#ArialMT-66"/>
     <use x="66.699219" xlink:href="#ArialMT-101"/>
     <use x="122.314453" xlink:href="#ArialMT-121"/>
     <use x="172.314453" xlink:href="#ArialMT-111"/>
     <use x="227.929688" xlink:href="#ArialMT-103"/>
     <use x="283.544922" xlink:href="#ArialMT-108"/>
     <use x="305.761719" xlink:href="#ArialMT-117"/>
    </g>
   </g>
   <g id="text_23">
    <!-- Esenyurt -->
    <defs>
     <path d="M 7.90625 0 
L 7.90625 71.578125 
L 59.671875 71.578125 
L 59.671875 63.140625 
L 17.390625 63.140625 
L 17.390625 41.21875 
L 56.984375 41.21875 
L 56.984375 32.8125 
L 17.390625 32.8125 
L 17.390625 8.453125 
L 61.328125 8.453125 
L 61.328125 0 
z
" id="ArialMT-69"/>
     <path d="M 6.59375 0 
L 6.59375 51.859375 
L 14.5 51.859375 
L 14.5 44.484375 
Q 20.21875 53.03125 31 53.03125 
Q 35.6875 53.03125 39.625 51.34375 
Q 43.5625 49.65625 45.515625 46.921875 
Q 47.46875 44.1875 48.25 40.4375 
Q 48.734375 37.984375 48.734375 31.890625 
L 48.734375 0 
L 39.9375 0 
L 39.9375 31.546875 
Q 39.9375 36.921875 38.90625 39.578125 
Q 37.890625 42.234375 35.28125 43.8125 
Q 32.671875 45.40625 29.15625 45.40625 
Q 23.53125 45.40625 19.453125 41.84375 
Q 15.375 38.28125 15.375 28.328125 
L 15.375 0 
z
" id="ArialMT-110"/>
    </defs>
    <g style="fill:#1a1c1a;" transform="translate(640.769022 242.400432)scale(0.1 -0.1)">
     <use xlink:href="#ArialMT-69"/>
     <use x="66.699219" xlink:href="#ArialMT-115"/>
     <use x="116.699219" xlink:href="#ArialMT-101"/>
     <use x="172.314453" xlink:href="#ArialMT-110"/>
     <use x="227.929688" xlink:href="#ArialMT-121"/>
     <use x="277.929688" xlink:href="#ArialMT-117"/>
     <use x="333.544922" xlink:href="#ArialMT-114"/>
     <use x="366.845703" xlink:href="#ArialMT-116"/>
    </g>
   </g>
   <g id="text_24">
    <!-- Fatih -->
    <defs>
     <path d="M 8.203125 0 
L 8.203125 71.578125 
L 56.5 71.578125 
L 56.5 63.140625 
L 17.671875 63.140625 
L 17.671875 40.96875 
L 51.265625 40.96875 
L 51.265625 32.515625 
L 17.671875 32.515625 
L 17.671875 0 
z
" id="ArialMT-70"/>
    </defs>
    <g style="fill:#1a1c1a;" transform="translate(342.451826 242.459026)scale(0.1 -0.1)">
     <use xlink:href="#ArialMT-70"/>
     <use x="61.083984" xlink:href="#ArialMT-97"/>
     <use x="116.699219" xlink:href="#ArialMT-116"/>
     <use x="144.482422" xlink:href="#ArialMT-105"/>
     <use x="166.699219" xlink:href="#ArialMT-104"/>
    </g>
   </g>
   <g id="text_25">
    <!-- Kadikoy -->
    <defs>
     <path d="M 7.328125 0 
L 7.328125 71.578125 
L 16.796875 71.578125 
L 16.796875 36.078125 
L 52.34375 71.578125 
L 65.1875 71.578125 
L 35.15625 42.578125 
L 66.5 0 
L 54 0 
L 28.515625 36.234375 
L 16.796875 24.8125 
L 16.796875 0 
z
" id="ArialMT-75"/>
     <path d="M 40.234375 0 
L 40.234375 6.546875 
Q 35.296875 -1.171875 25.734375 -1.171875 
Q 19.53125 -1.171875 14.328125 2.25 
Q 9.125 5.671875 6.265625 11.796875 
Q 3.421875 17.921875 3.421875 25.875 
Q 3.421875 33.640625 6 39.96875 
Q 8.59375 46.296875 13.765625 49.65625 
Q 18.953125 53.03125 25.34375 53.03125 
Q 30.03125 53.03125 33.6875 51.046875 
Q 37.359375 49.078125 39.65625 45.90625 
L 39.65625 71.578125 
L 48.390625 71.578125 
L 48.390625 0 
z
M 12.453125 25.875 
Q 12.453125 15.921875 16.640625 10.984375 
Q 20.84375 6.0625 26.5625 6.0625 
Q 32.328125 6.0625 36.34375 10.765625 
Q 40.375 15.484375 40.375 25.140625 
Q 40.375 35.796875 36.265625 40.765625 
Q 32.171875 45.75 26.171875 45.75 
Q 20.3125 45.75 16.375 40.96875 
Q 12.453125 36.1875 12.453125 25.875 
z
" id="ArialMT-100"/>
    </defs>
    <g style="fill:#1a1c1a;" transform="translate(365.561262 139.479921)scale(0.1 -0.1)">
     <use xlink:href="#ArialMT-75"/>
     <use x="66.699219" xlink:href="#ArialMT-97"/>
     <use x="122.314453" xlink:href="#ArialMT-100"/>
     <use x="177.929688" xlink:href="#ArialMT-105"/>
     <use x="200.146484" xlink:href="#ArialMT-107"/>
     <use x="250.146484" xlink:href="#ArialMT-111"/>
     <use x="305.761719" xlink:href="#ArialMT-121"/>
    </g>
   </g>
   <g id="text_26">
    <!-- Kucukcekmece -->
    <defs>
     <path d="M 6.59375 0 
L 6.59375 51.859375 
L 14.453125 51.859375 
L 14.453125 44.578125 
Q 16.890625 48.390625 20.9375 50.703125 
Q 25 53.03125 30.171875 53.03125 
Q 35.9375 53.03125 39.625 50.640625 
Q 43.3125 48.25 44.828125 43.953125 
Q 50.984375 53.03125 60.84375 53.03125 
Q 68.5625 53.03125 72.703125 48.75 
Q 76.859375 44.484375 76.859375 35.59375 
L 76.859375 0 
L 68.109375 0 
L 68.109375 32.671875 
Q 68.109375 37.9375 67.25 40.25 
Q 66.40625 42.578125 64.15625 43.984375 
Q 61.921875 45.40625 58.890625 45.40625 
Q 53.421875 45.40625 49.796875 41.765625 
Q 46.1875 38.140625 46.1875 30.125 
L 46.1875 0 
L 37.40625 0 
L 37.40625 33.6875 
Q 37.40625 39.546875 35.25 42.46875 
Q 33.109375 45.40625 28.21875 45.40625 
Q 24.515625 45.40625 21.359375 43.453125 
Q 18.21875 41.5 16.796875 37.734375 
Q 15.375 33.984375 15.375 26.90625 
L 15.375 0 
z
" id="ArialMT-109"/>
    </defs>
    <g style="fill:#1a1c1a;" transform="translate(546.42644 242.459026)scale(0.1 -0.1)">
     <use xlink:href="#ArialMT-75"/>
     <use x="66.699219" xlink:href="#ArialMT-117"/>
     <use x="122.314453" xlink:href="#ArialMT-99"/>
     <use x="172.314453" xlink:href="#ArialMT-117"/>
     <use x="227.929688" xlink:href="#ArialMT-107"/>
     <use x="277.929688" xlink:href="#ArialMT-99"/>
     <use x="327.929688" xlink:href="#ArialMT-101"/>
     <use x="383.544922" xlink:href="#ArialMT-107"/>
     <use x="433.544922" xlink:href="#ArialMT-109"/>
     <use x="516.845703" xlink:href="#ArialMT-101"/>
     <use x="572.460938" xlink:href="#ArialMT-99"/>
     <use x="622.460938" xlink:href="#ArialMT-101"/>
    </g>
   </g>
   <g id="text_27">
    <!-- Uskudar -->
    <defs>
     <path d="M 54.6875 71.578125 
L 64.15625 71.578125 
L 64.15625 30.21875 
Q 64.15625 19.4375 61.71875 13.078125 
Q 59.28125 6.734375 52.90625 2.75 
Q 46.53125 -1.21875 36.1875 -1.21875 
Q 26.125 -1.21875 19.71875 2.25 
Q 13.328125 5.71875 10.59375 12.28125 
Q 7.859375 18.84375 7.859375 30.21875 
L 7.859375 71.578125 
L 17.328125 71.578125 
L 17.328125 30.28125 
Q 17.328125 20.953125 19.0625 16.53125 
Q 20.796875 12.109375 25.015625 9.71875 
Q 29.25 7.328125 35.359375 7.328125 
Q 45.796875 7.328125 50.234375 12.0625 
Q 54.6875 16.796875 54.6875 30.28125 
z
" id="ArialMT-85"/>
    </defs>
    <g style="fill:#1a1c1a;" transform="translate(394.204995 168.944375)scale(0.1 -0.1)">
     <use xlink:href="#ArialMT-85"/>
     <use x="72.216797" xlink:href="#ArialMT-115"/>
     <use x="122.216797" xlink:href="#ArialMT-107"/>
     <use x="172.216797" xlink:href="#ArialMT-117"/>
     <use x="227.832031" xlink:href="#ArialMT-100"/>
     <use x="283.447266" xlink:href="#ArialMT-97"/>
     <use x="339.0625" xlink:href="#ArialMT-114"/>
    </g>
   </g>
  </g>
  <g id="axes_2">
   <g id="patch_5">
    <path d="M 65.52 594.288 
L 668.16 594.288 
L 668.16 327.429818 
L 65.52 327.429818 
z
" style="fill:#ffffff;"/>
   </g>
   <g id="PathCollection_2">
    <g clip-path="url(#pb2d4017fa0)">
     <use style="fill:#02b72e;stroke:#02b72e;" x="373.352279" xlink:href="#mc504a377d2" y="339.559736"/>
     <use style="fill:#02b72e;stroke:#02b72e;" x="114.818032" xlink:href="#mc504a377d2" y="582.158083"/>
     <use style="fill:#02b72e;stroke:#02b72e;" x="316.69061" xlink:href="#mc504a377d2" y="582.158083"/>
     <use style="fill:#02b72e;stroke:#02b72e;" x="92.912727" xlink:href="#mc504a377d2" y="582.158083"/>
     <use style="fill:#02b72e;stroke:#02b72e;" x="313.071333" xlink:href="#mc504a377d2" y="479.237572"/>
     <use style="fill:#02b72e;stroke:#02b72e;" x="97.657733" xlink:href="#mc504a377d2" y="582.158083"/>
     <use style="fill:#02b72e;stroke:#02b72e;" x="171.907397" xlink:href="#mc504a377d2" y="574.806618"/>
     <use style="fill:#02b72e;stroke:#02b72e;" x="213.119552" xlink:href="#mc504a377d2" y="582.158083"/>
     <use style="fill:#02b72e;stroke:#02b72e;" x="149.429141" xlink:href="#mc504a377d2" y="560.103687"/>
     <use style="fill:#02b72e;stroke:#02b72e;" x="220.931059" xlink:href="#mc504a377d2" y="530.697827"/>
     <use style="fill:#02b72e;stroke:#02b72e;" x="640.767273" xlink:href="#mc504a377d2" y="530.697827"/>
     <use style="fill:#02b72e;stroke:#02b72e;" x="163.127522" xlink:href="#mc504a377d2" y="582.158083"/>
     <use style="fill:#02b72e;stroke:#02b72e;" x="505.921943" xlink:href="#mc504a377d2" y="442.480246"/>
     <use style="fill:#02b72e;stroke:#02b72e;" x="173.432578" xlink:href="#mc504a377d2" y="574.806618"/>
     <use style="fill:#02b72e;stroke:#02b72e;" x="204.129863" xlink:href="#mc504a377d2" y="545.400757"/>
     <use style="fill:#02b72e;stroke:#02b72e;" x="225.720448" xlink:href="#mc504a377d2" y="545.400757"/>
     <use style="fill:#02b72e;stroke:#02b72e;" x="172.355268" xlink:href="#mc504a377d2" y="582.158083"/>
     <use style="fill:#02b72e;stroke:#02b72e;" x="164.220971" xlink:href="#mc504a377d2" y="574.806618"/>
     <use style="fill:#02b72e;stroke:#02b72e;" x="132.470585" xlink:href="#mc504a377d2" y="574.806618"/>
     <use style="fill:#02b72e;stroke:#02b72e;" x="141.040648" xlink:href="#mc504a377d2" y="560.103687"/>
     <use style="fill:#02b72e;stroke:#02b72e;" x="220.753524" xlink:href="#mc504a377d2" y="560.103687"/>
     <use style="fill:#02b72e;stroke:#02b72e;" x="250.345255" xlink:href="#mc504a377d2" y="560.103687"/>
     <use style="fill:#02b72e;stroke:#02b72e;" x="140.798555" xlink:href="#mc504a377d2" y="582.158083"/>
     <use style="fill:#02b72e;stroke:#02b72e;" x="158.664956" xlink:href="#mc504a377d2" y="567.455153"/>
     <use style="fill:#02b72e;stroke:#02b72e;" x="197.415841" xlink:href="#mc504a377d2" y="574.806618"/>
     <use style="fill:#02b72e;stroke:#02b72e;" x="431.599651" xlink:href="#mc504a377d2" y="457.183177"/>
     <use style="fill:#02b72e;stroke:#02b72e;" x="194.119352" xlink:href="#mc504a377d2" y="574.806618"/>
     <use style="fill:#02b72e;stroke:#02b72e;" x="167.331856" xlink:href="#mc504a377d2" y="560.103687"/>
     <use style="fill:#02b72e;stroke:#02b72e;" x="274.074321" xlink:href="#mc504a377d2" y="567.455153"/>
     <use style="fill:#02b72e;stroke:#02b72e;" x="170.709041" xlink:href="#mc504a377d2" y="567.455153"/>
     <use style="fill:#02b72e;stroke:#02b72e;" x="142.557758" xlink:href="#mc504a377d2" y="574.806618"/>
     <use style="fill:#02b72e;stroke:#02b72e;" x="109.471831" xlink:href="#mc504a377d2" y="574.806618"/>
     <use style="fill:#02b72e;stroke:#02b72e;" x="122.13325" xlink:href="#mc504a377d2" y="582.158083"/>
     <use style="fill:#02b72e;stroke:#02b72e;" x="348.465205" xlink:href="#mc504a377d2" y="567.455153"/>
     <use style="fill:#02b72e;stroke:#02b72e;" x="332.902715" xlink:href="#mc504a377d2" y="486.589037"/>
     <use style="fill:#02b72e;stroke:#02b72e;" x="99.788144" xlink:href="#mc504a377d2" y="582.158083"/>
     <use style="fill:#02b72e;stroke:#02b72e;" x="100.433724" xlink:href="#mc504a377d2" y="574.806618"/>
     <use style="fill:#02b72e;stroke:#02b72e;" x="159.584907" xlink:href="#mc504a377d2" y="582.158083"/>
     <use style="fill:#02b72e;stroke:#02b72e;" x="171.076214" xlink:href="#mc504a377d2" y="574.806618"/>
    </g>
   </g>
   <g id="matplotlib.axis_3">
    <g id="xtick_7">
     <g id="line2d_14">
      <g>
       <use style="stroke:#000000;stroke-width:0.8;" x="75.320697" xlink:href="#m04eecdb1ee" y="594.288"/>
      </g>
     </g>
     <g id="text_28">
      <!-- 20 -->
      <g transform="translate(68.647572 609.877375)scale(0.12 -0.12)">
       <use xlink:href="#ArialMT-50"/>
       <use x="55.615234" xlink:href="#ArialMT-48"/>
      </g>
     </g>
    </g>
    <g id="xtick_8">
     <g id="line2d_15">
      <g>
       <use style="stroke:#000000;stroke-width:0.8;" x="156.018082" xlink:href="#m04eecdb1ee" y="594.288"/>
      </g>
     </g>
     <g id="text_29">
      <!-- 40 -->
      <g transform="translate(149.344957 609.877375)scale(0.12 -0.12)">
       <use xlink:href="#ArialMT-52"/>
       <use x="55.615234" xlink:href="#ArialMT-48"/>
      </g>
     </g>
    </g>
    <g id="xtick_9">
     <g id="line2d_16">
      <g>
       <use style="stroke:#000000;stroke-width:0.8;" x="236.715467" xlink:href="#m04eecdb1ee" y="594.288"/>
      </g>
     </g>
     <g id="text_30">
      <!-- 60 -->
      <g transform="translate(230.042342 609.877375)scale(0.12 -0.12)">
       <use xlink:href="#ArialMT-54"/>
       <use x="55.615234" xlink:href="#ArialMT-48"/>
      </g>
     </g>
    </g>
    <g id="xtick_10">
     <g id="line2d_17">
      <g>
       <use style="stroke:#000000;stroke-width:0.8;" x="317.412852" xlink:href="#m04eecdb1ee" y="594.288"/>
      </g>
     </g>
     <g id="text_31">
      <!-- 80 -->
      <g transform="translate(310.739727 609.877375)scale(0.12 -0.12)">
       <use xlink:href="#ArialMT-56"/>
       <use x="55.615234" xlink:href="#ArialMT-48"/>
      </g>
     </g>
    </g>
    <g id="xtick_11">
     <g id="line2d_18">
      <g>
       <use style="stroke:#000000;stroke-width:0.8;" x="398.110237" xlink:href="#m04eecdb1ee" y="594.288"/>
      </g>
     </g>
     <g id="text_32">
      <!-- 100 -->
      <g transform="translate(388.100549 609.877375)scale(0.12 -0.12)">
       <use xlink:href="#ArialMT-49"/>
       <use x="55.615234" xlink:href="#ArialMT-48"/>
       <use x="111.230469" xlink:href="#ArialMT-48"/>
      </g>
     </g>
    </g>
    <g id="xtick_12">
     <g id="line2d_19">
      <g>
       <use style="stroke:#000000;stroke-width:0.8;" x="478.807621" xlink:href="#m04eecdb1ee" y="594.288"/>
      </g>
     </g>
     <g id="text_33">
      <!-- 120 -->
      <g transform="translate(468.797934 609.877375)scale(0.12 -0.12)">
       <use xlink:href="#ArialMT-49"/>
       <use x="55.615234" xlink:href="#ArialMT-50"/>
       <use x="111.230469" xlink:href="#ArialMT-48"/>
      </g>
     </g>
    </g>
    <g id="xtick_13">
     <g id="line2d_20">
      <g>
       <use style="stroke:#000000;stroke-width:0.8;" x="559.505006" xlink:href="#m04eecdb1ee" y="594.288"/>
      </g>
     </g>
     <g id="text_34">
      <!-- 140 -->
      <g transform="translate(549.495319 609.877375)scale(0.12 -0.12)">
       <use xlink:href="#ArialMT-49"/>
       <use x="55.615234" xlink:href="#ArialMT-52"/>
       <use x="111.230469" xlink:href="#ArialMT-48"/>
      </g>
     </g>
    </g>
    <g id="xtick_14">
     <g id="line2d_21">
      <g>
       <use style="stroke:#000000;stroke-width:0.8;" x="640.202391" xlink:href="#m04eecdb1ee" y="594.288"/>
      </g>
     </g>
     <g id="text_35">
      <!-- 160 -->
      <g transform="translate(630.192704 609.877375)scale(0.12 -0.12)">
       <use xlink:href="#ArialMT-49"/>
       <use x="55.615234" xlink:href="#ArialMT-54"/>
       <use x="111.230469" xlink:href="#ArialMT-48"/>
      </g>
     </g>
    </g>
    <g id="text_36">
     <!-- Yearly average household income (in thousand TL) -->
     <defs>
      <path d="M 26.078125 0 
L 26.078125 30.125 
L -0.140625 71.578125 
L 16.796875 71.578125 
L 33.640625 43.265625 
L 50.140625 71.578125 
L 66.796875 71.578125 
L 40.484375 30.03125 
L 40.484375 0 
z
" id="Arial-BoldMT-89"/>
      <path d="M 37.203125 16.5 
L 50.875 14.203125 
Q 48.25 6.6875 42.546875 2.75 
Q 36.859375 -1.171875 28.328125 -1.171875 
Q 14.796875 -1.171875 8.296875 7.671875 
Q 3.171875 14.75 3.171875 25.53125 
Q 3.171875 38.421875 9.90625 45.71875 
Q 16.65625 53.03125 26.953125 53.03125 
Q 38.53125 53.03125 45.21875 45.390625 
Q 51.90625 37.75 51.609375 21.96875 
L 17.234375 21.96875 
Q 17.390625 15.875 20.5625 12.46875 
Q 23.734375 9.078125 28.46875 9.078125 
Q 31.6875 9.078125 33.875 10.828125 
Q 36.078125 12.59375 37.203125 16.5 
z
M 37.984375 30.375 
Q 37.84375 36.328125 34.90625 39.421875 
Q 31.984375 42.53125 27.78125 42.53125 
Q 23.296875 42.53125 20.359375 39.265625 
Q 17.4375 35.984375 17.484375 30.375 
z
" id="Arial-BoldMT-101"/>
      <path d="M 0.6875 51.859375 
L 15.28125 51.859375 
L 27.6875 15.046875 
L 39.796875 51.859375 
L 54 51.859375 
L 35.6875 1.953125 
L 32.421875 -7.078125 
Q 30.609375 -11.625 28.96875 -14.015625 
Q 27.34375 -16.40625 25.21875 -17.890625 
Q 23.09375 -19.390625 19.984375 -20.21875 
Q 16.890625 -21.046875 12.984375 -21.046875 
Q 9.03125 -21.046875 5.21875 -20.21875 
L 4 -9.46875 
Q 7.234375 -10.109375 9.8125 -10.109375 
Q 14.59375 -10.109375 16.890625 -7.296875 
Q 19.1875 -4.5 20.40625 -0.140625 
z
" id="Arial-BoldMT-121"/>
      <path d="M 21.4375 0 
L 0.53125 51.859375 
L 14.9375 51.859375 
L 24.703125 25.390625 
L 27.546875 16.546875 
Q 28.65625 19.921875 28.953125 21 
Q 29.640625 23.1875 30.421875 25.390625 
L 40.28125 51.859375 
L 54.390625 51.859375 
L 33.796875 0 
z
" id="Arial-BoldMT-118"/>
      <path d="M 5.90625 -3.421875 
L 21.578125 -5.328125 
Q 21.96875 -8.0625 23.390625 -9.078125 
Q 25.34375 -10.546875 29.546875 -10.546875 
Q 34.90625 -10.546875 37.59375 -8.9375 
Q 39.40625 -7.859375 40.328125 -5.46875 
Q 40.96875 -3.765625 40.96875 0.828125 
L 40.96875 8.40625 
Q 34.8125 0 25.4375 0 
Q 14.984375 0 8.890625 8.84375 
Q 4.109375 15.828125 4.109375 26.21875 
Q 4.109375 39.265625 10.375 46.140625 
Q 16.65625 53.03125 25.984375 53.03125 
Q 35.59375 53.03125 41.84375 44.578125 
L 41.84375 51.859375 
L 54.6875 51.859375 
L 54.6875 5.328125 
Q 54.6875 -3.859375 53.171875 -8.390625 
Q 51.65625 -12.9375 48.921875 -15.515625 
Q 46.1875 -18.109375 41.625 -19.578125 
Q 37.0625 -21.046875 30.078125 -21.046875 
Q 16.890625 -21.046875 11.375 -16.53125 
Q 5.859375 -12.015625 5.859375 -5.078125 
Q 5.859375 -4.390625 5.90625 -3.421875 
z
M 18.171875 27 
Q 18.171875 18.75 21.359375 14.90625 
Q 24.5625 11.078125 29.25 11.078125 
Q 34.28125 11.078125 37.75 15.015625 
Q 41.21875 18.953125 41.21875 26.65625 
Q 41.21875 34.71875 37.890625 38.625 
Q 34.578125 42.53125 29.5 42.53125 
Q 24.5625 42.53125 21.359375 38.6875 
Q 18.171875 34.859375 18.171875 27 
z
" id="Arial-BoldMT-103"/>
      <path d="M 20.84375 71.578125 
L 20.84375 45.265625 
Q 27.484375 53.03125 36.71875 53.03125 
Q 41.453125 53.03125 45.265625 51.265625 
Q 49.078125 49.515625 51 46.78125 
Q 52.9375 44.046875 53.640625 40.71875 
Q 54.34375 37.40625 54.34375 30.421875 
L 54.34375 0 
L 40.625 0 
L 40.625 27.390625 
Q 40.625 35.546875 39.84375 37.734375 
Q 39.0625 39.9375 37.078125 41.234375 
Q 35.109375 42.53125 32.125 42.53125 
Q 28.71875 42.53125 26.03125 40.859375 
Q 23.34375 39.203125 22.09375 35.859375 
Q 20.84375 32.515625 20.84375 25.984375 
L 20.84375 0 
L 7.125 0 
L 7.125 71.578125 
z
" id="Arial-BoldMT-104"/>
      <path d="M 2.34375 14.796875 
L 16.109375 16.890625 
Q 17 12.890625 19.671875 10.8125 
Q 22.359375 8.734375 27.203125 8.734375 
Q 32.515625 8.734375 35.203125 10.6875 
Q 37.015625 12.0625 37.015625 14.359375 
Q 37.015625 15.921875 36.03125 16.9375 
Q 35.015625 17.921875 31.453125 18.75 
Q 14.84375 22.40625 10.40625 25.4375 
Q 4.25 29.640625 4.25 37.109375 
Q 4.25 43.84375 9.5625 48.4375 
Q 14.890625 53.03125 26.078125 53.03125 
Q 36.71875 53.03125 41.890625 49.5625 
Q 47.078125 46.09375 49.03125 39.3125 
L 36.078125 36.921875 
Q 35.25 39.9375 32.921875 41.546875 
Q 30.609375 43.171875 26.3125 43.171875 
Q 20.90625 43.171875 18.5625 41.65625 
Q 17 40.578125 17 38.875 
Q 17 37.40625 18.359375 36.375 
Q 20.21875 35.015625 31.171875 32.515625 
Q 42.140625 30.03125 46.484375 26.421875 
Q 50.78125 22.75 50.78125 16.21875 
Q 50.78125 9.078125 44.828125 3.953125 
Q 38.875 -1.171875 27.203125 -1.171875 
Q 16.609375 -1.171875 10.421875 3.125 
Q 4.25 7.421875 2.34375 14.796875 
z
" id="Arial-BoldMT-115"/>
      <path d="M 54.734375 0 
L 42 0 
L 42 7.625 
Q 38.8125 3.171875 34.484375 1 
Q 30.171875 -1.171875 25.78125 -1.171875 
Q 16.84375 -1.171875 10.46875 6.03125 
Q 4.109375 13.234375 4.109375 26.125 
Q 4.109375 39.3125 10.296875 46.171875 
Q 16.5 53.03125 25.984375 53.03125 
Q 34.671875 53.03125 41.015625 45.796875 
L 41.015625 71.578125 
L 54.734375 71.578125 
z
M 18.109375 27.046875 
Q 18.109375 18.75 20.40625 15.046875 
Q 23.734375 9.671875 29.6875 9.671875 
Q 34.421875 9.671875 37.734375 13.6875 
Q 41.0625 17.71875 41.0625 25.734375 
Q 41.0625 34.671875 37.84375 38.59375 
Q 34.625 42.53125 29.59375 42.53125 
Q 24.703125 42.53125 21.40625 38.640625 
Q 18.109375 34.765625 18.109375 27.046875 
z
" id="Arial-BoldMT-100"/>
      <path d="M 52.390625 36.53125 
L 38.875 34.078125 
Q 38.1875 38.140625 35.765625 40.1875 
Q 33.34375 42.234375 29.5 42.234375 
Q 24.359375 42.234375 21.3125 38.6875 
Q 18.265625 35.15625 18.265625 26.859375 
Q 18.265625 17.625 21.359375 13.8125 
Q 24.46875 10.015625 29.6875 10.015625 
Q 33.59375 10.015625 36.078125 12.234375 
Q 38.578125 14.453125 39.59375 19.875 
L 53.078125 17.578125 
Q 50.984375 8.296875 45.015625 3.5625 
Q 39.0625 -1.171875 29.046875 -1.171875 
Q 17.671875 -1.171875 10.90625 6 
Q 4.15625 13.1875 4.15625 25.875 
Q 4.15625 38.71875 10.9375 45.875 
Q 17.71875 53.03125 29.296875 53.03125 
Q 38.765625 53.03125 44.359375 48.953125 
Q 49.953125 44.875 52.390625 36.53125 
z
" id="Arial-BoldMT-99"/>
      <path d="M 6.15625 51.859375 
L 18.796875 51.859375 
L 18.796875 44.78125 
Q 25.59375 53.03125 34.96875 53.03125 
Q 39.9375 53.03125 43.59375 50.96875 
Q 47.265625 48.921875 49.609375 44.78125 
Q 53.03125 48.921875 56.984375 50.96875 
Q 60.9375 53.03125 65.4375 53.03125 
Q 71.140625 53.03125 75.09375 50.703125 
Q 79.046875 48.390625 81 43.890625 
Q 82.421875 40.578125 82.421875 33.15625 
L 82.421875 0 
L 68.703125 0 
L 68.703125 29.640625 
Q 68.703125 37.359375 67.28125 39.59375 
Q 65.375 42.53125 61.421875 42.53125 
Q 58.546875 42.53125 56 40.765625 
Q 53.46875 39.015625 52.34375 35.625 
Q 51.21875 32.234375 51.21875 24.90625 
L 51.21875 0 
L 37.5 0 
L 37.5 28.421875 
Q 37.5 35.984375 36.765625 38.171875 
Q 36.03125 40.375 34.484375 41.453125 
Q 32.953125 42.53125 30.328125 42.53125 
Q 27.15625 42.53125 24.609375 40.8125 
Q 22.078125 39.109375 20.96875 35.890625 
Q 19.875 32.671875 19.875 25.203125 
L 19.875 0 
L 6.15625 0 
z
" id="Arial-BoldMT-109"/>
      <path d="M 29.9375 -21.046875 
L 20.515625 -21.046875 
Q 13.03125 -9.765625 9.125 2.390625 
Q 5.21875 14.546875 5.21875 25.921875 
Q 5.21875 40.046875 10.0625 52.640625 
Q 14.265625 63.578125 20.703125 72.796875 
L 30.078125 72.796875 
Q 23.390625 58.015625 20.875 47.625 
Q 18.359375 37.25 18.359375 25.640625 
Q 18.359375 17.625 19.84375 9.21875 
Q 21.34375 0.828125 23.921875 -6.734375 
Q 25.640625 -11.71875 29.9375 -21.046875 
z
" id="Arial-BoldMT-40"/>
      <path d="M 23.390625 0 
L 23.390625 59.46875 
L 2.15625 59.46875 
L 2.15625 71.578125 
L 59.03125 71.578125 
L 59.03125 59.46875 
L 37.84375 59.46875 
L 37.84375 0 
z
" id="Arial-BoldMT-84"/>
      <path d="M 7.671875 0 
L 7.671875 71 
L 22.125 71 
L 22.125 12.0625 
L 58.0625 12.0625 
L 58.0625 0 
z
" id="Arial-BoldMT-76"/>
      <path d="M 3.375 -21.046875 
Q 7.421875 -12.359375 9.078125 -7.71875 
Q 10.75 -3.078125 12.15625 2.96875 
Q 13.578125 9.03125 14.25 14.46875 
Q 14.9375 19.921875 14.9375 25.640625 
Q 14.9375 37.25 12.453125 47.625 
Q 9.96875 58.015625 3.265625 72.796875 
L 12.59375 72.796875 
Q 19.96875 62.3125 24.046875 50.53125 
Q 28.125 38.765625 28.125 26.65625 
Q 28.125 16.453125 24.90625 4.78125 
Q 21.234375 -8.296875 12.84375 -21.046875 
z
" id="Arial-BoldMT-41"/>
     </defs>
     <g transform="translate(173.0375 627.909875)scale(0.16 -0.16)">
      <use xlink:href="#Arial-BoldMT-89"/>
      <use x="61.199219" xlink:href="#Arial-BoldMT-101"/>
      <use x="116.814453" xlink:href="#Arial-BoldMT-97"/>
      <use x="172.429688" xlink:href="#Arial-BoldMT-114"/>
      <use x="211.345703" xlink:href="#Arial-BoldMT-108"/>
      <use x="239.128906" xlink:href="#Arial-BoldMT-121"/>
      <use x="294.744141" xlink:href="#Arial-BoldMT-32"/>
      <use x="322.527344" xlink:href="#Arial-BoldMT-97"/>
      <use x="378.142578" xlink:href="#Arial-BoldMT-118"/>
      <use x="433.757812" xlink:href="#Arial-BoldMT-101"/>
      <use x="489.373047" xlink:href="#Arial-BoldMT-114"/>
      <use x="528.289062" xlink:href="#Arial-BoldMT-97"/>
      <use x="583.904297" xlink:href="#Arial-BoldMT-103"/>
      <use x="644.988281" xlink:href="#Arial-BoldMT-101"/>
      <use x="700.603516" xlink:href="#Arial-BoldMT-32"/>
      <use x="728.386719" xlink:href="#Arial-BoldMT-104"/>
      <use x="789.470703" xlink:href="#Arial-BoldMT-111"/>
      <use x="850.554688" xlink:href="#Arial-BoldMT-117"/>
      <use x="911.638672" xlink:href="#Arial-BoldMT-115"/>
      <use x="967.253906" xlink:href="#Arial-BoldMT-101"/>
      <use x="1022.869141" xlink:href="#Arial-BoldMT-104"/>
      <use x="1083.953125" xlink:href="#Arial-BoldMT-111"/>
      <use x="1145.037109" xlink:href="#Arial-BoldMT-108"/>
      <use x="1172.820312" xlink:href="#Arial-BoldMT-100"/>
      <use x="1233.904297" xlink:href="#Arial-BoldMT-32"/>
      <use x="1261.6875" xlink:href="#Arial-BoldMT-105"/>
      <use x="1289.470703" xlink:href="#Arial-BoldMT-110"/>
      <use x="1350.554688" xlink:href="#Arial-BoldMT-99"/>
      <use x="1406.169922" xlink:href="#Arial-BoldMT-111"/>
      <use x="1467.253906" xlink:href="#Arial-BoldMT-109"/>
      <use x="1556.169922" xlink:href="#Arial-BoldMT-101"/>
      <use x="1611.785156" xlink:href="#Arial-BoldMT-32"/>
      <use x="1639.568359" xlink:href="#Arial-BoldMT-40"/>
      <use x="1672.869141" xlink:href="#Arial-BoldMT-105"/>
      <use x="1700.652344" xlink:href="#Arial-BoldMT-110"/>
      <use x="1761.736328" xlink:href="#Arial-BoldMT-32"/>
      <use x="1789.519531" xlink:href="#Arial-BoldMT-116"/>
      <use x="1822.820312" xlink:href="#Arial-BoldMT-104"/>
      <use x="1883.904297" xlink:href="#Arial-BoldMT-111"/>
      <use x="1944.988281" xlink:href="#Arial-BoldMT-117"/>
      <use x="2006.072266" xlink:href="#Arial-BoldMT-115"/>
      <use x="2061.6875" xlink:href="#Arial-BoldMT-97"/>
      <use x="2117.302734" xlink:href="#Arial-BoldMT-110"/>
      <use x="2178.386719" xlink:href="#Arial-BoldMT-100"/>
      <use x="2239.470703" xlink:href="#Arial-BoldMT-32"/>
      <use x="2267.253906" xlink:href="#Arial-BoldMT-84"/>
      <use x="2328.337891" xlink:href="#Arial-BoldMT-76"/>
      <use x="2389.421875" xlink:href="#Arial-BoldMT-41"/>
     </g>
    </g>
   </g>
   <g id="matplotlib.axis_4">
    <g id="ytick_8">
     <g id="line2d_22">
      <g>
       <use style="stroke:#000000;stroke-width:0.8;" x="65.52" xlink:href="#m99aa96eeb4" y="582.158083"/>
      </g>
     </g>
     <g id="text_37">
      <!-- 0 -->
      <g transform="translate(51.846875 586.45277)scale(0.12 -0.12)">
       <use xlink:href="#ArialMT-48"/>
      </g>
     </g>
    </g>
    <g id="ytick_9">
     <g id="line2d_23">
      <g>
       <use style="stroke:#000000;stroke-width:0.8;" x="65.52" xlink:href="#m99aa96eeb4" y="545.400757"/>
      </g>
     </g>
     <g id="text_38">
      <!-- 5 -->
      <g transform="translate(51.846875 549.695445)scale(0.12 -0.12)">
       <use xlink:href="#ArialMT-53"/>
      </g>
     </g>
    </g>
    <g id="ytick_10">
     <g id="line2d_24">
      <g>
       <use style="stroke:#000000;stroke-width:0.8;" x="65.52" xlink:href="#m99aa96eeb4" y="508.643432"/>
      </g>
     </g>
     <g id="text_39">
      <!-- 10 -->
      <g transform="translate(45.17375 512.93812)scale(0.12 -0.12)">
       <use xlink:href="#ArialMT-49"/>
       <use x="55.615234" xlink:href="#ArialMT-48"/>
      </g>
     </g>
    </g>
    <g id="ytick_11">
     <g id="line2d_25">
      <g>
       <use style="stroke:#000000;stroke-width:0.8;" x="65.52" xlink:href="#m99aa96eeb4" y="471.886107"/>
      </g>
     </g>
     <g id="text_40">
      <!-- 15 -->
      <g transform="translate(45.17375 476.180794)scale(0.12 -0.12)">
       <use xlink:href="#ArialMT-49"/>
       <use x="55.615234" xlink:href="#ArialMT-53"/>
      </g>
     </g>
    </g>
    <g id="ytick_12">
     <g id="line2d_26">
      <g>
       <use style="stroke:#000000;stroke-width:0.8;" x="65.52" xlink:href="#m99aa96eeb4" y="435.128781"/>
      </g>
     </g>
     <g id="text_41">
      <!-- 20 -->
      <g transform="translate(45.17375 439.423469)scale(0.12 -0.12)">
       <use xlink:href="#ArialMT-50"/>
       <use x="55.615234" xlink:href="#ArialMT-48"/>
      </g>
     </g>
    </g>
    <g id="ytick_13">
     <g id="line2d_27">
      <g>
       <use style="stroke:#000000;stroke-width:0.8;" x="65.52" xlink:href="#m99aa96eeb4" y="398.371456"/>
      </g>
     </g>
     <g id="text_42">
      <!-- 25 -->
      <g transform="translate(45.17375 402.666144)scale(0.12 -0.12)">
       <use xlink:href="#ArialMT-50"/>
       <use x="55.615234" xlink:href="#ArialMT-53"/>
      </g>
     </g>
    </g>
    <g id="ytick_14">
     <g id="line2d_28">
      <g>
       <use style="stroke:#000000;stroke-width:0.8;" x="65.52" xlink:href="#m99aa96eeb4" y="361.614131"/>
      </g>
     </g>
     <g id="text_43">
      <!-- 30 -->
      <g transform="translate(45.17375 365.908818)scale(0.12 -0.12)">
       <use xlink:href="#ArialMT-51"/>
       <use x="55.615234" xlink:href="#ArialMT-48"/>
      </g>
     </g>
    </g>
   </g>
   <g id="patch_6">
    <path d="M 65.52 594.288 
L 65.52 327.429818 
" style="fill:none;stroke:#1a1c1a;stroke-linecap:square;stroke-linejoin:miter;stroke-width:1.5;"/>
   </g>
   <g id="patch_7">
    <path d="M 65.52 594.288 
L 668.16 594.288 
" style="fill:none;stroke:#1a1c1a;stroke-linecap:square;stroke-linejoin:miter;stroke-width:1.5;"/>
   </g>
   <g id="text_44">
    <!-- r = 0.65 -->
    <defs>
     <path d="M 50.734375 54.046875 
L 37.453125 52.59375 
Q 36.96875 56.6875 34.90625 58.640625 
Q 32.859375 60.59375 29.59375 60.59375 
Q 25.25 60.59375 22.234375 56.6875 
Q 19.234375 52.78125 18.453125 40.4375 
Q 23.578125 46.484375 31.203125 46.484375 
Q 39.796875 46.484375 45.921875 39.9375 
Q 52.046875 33.40625 52.046875 23.046875 
Q 52.046875 12.0625 45.59375 5.421875 
Q 39.15625 -1.21875 29.046875 -1.21875 
Q 18.21875 -1.21875 11.234375 7.203125 
Q 4.25 15.625 4.25 34.8125 
Q 4.25 54.5 11.515625 63.1875 
Q 18.796875 71.875 30.421875 71.875 
Q 38.578125 71.875 43.921875 67.3125 
Q 49.265625 62.75 50.734375 54.046875 
z
M 19.625 24.125 
Q 19.625 17.4375 22.703125 13.796875 
Q 25.78125 10.15625 29.734375 10.15625 
Q 33.546875 10.15625 36.078125 13.125 
Q 38.625 16.109375 38.625 22.90625 
Q 38.625 29.890625 35.890625 33.125 
Q 33.15625 36.375 29.046875 36.375 
Q 25.09375 36.375 22.359375 33.265625 
Q 19.625 30.171875 19.625 24.125 
z
" id="Arial-BoldMT-54"/>
     <path d="M 4.4375 18.40625 
L 18.109375 19.828125 
Q 18.703125 15.1875 21.578125 12.46875 
Q 24.46875 9.765625 28.21875 9.765625 
Q 32.515625 9.765625 35.5 13.25 
Q 38.484375 16.75 38.484375 23.78125 
Q 38.484375 30.375 35.515625 33.671875 
Q 32.5625 36.96875 27.828125 36.96875 
Q 21.921875 36.96875 17.234375 31.734375 
L 6.109375 33.34375 
L 13.140625 70.609375 
L 49.421875 70.609375 
L 49.421875 57.765625 
L 23.53125 57.765625 
L 21.390625 45.609375 
Q 25.984375 47.90625 30.765625 47.90625 
Q 39.890625 47.90625 46.234375 41.265625 
Q 52.59375 34.625 52.59375 24.03125 
Q 52.59375 15.1875 47.46875 8.25 
Q 40.484375 -1.21875 28.078125 -1.21875 
Q 18.171875 -1.21875 11.921875 4.09375 
Q 5.671875 9.421875 4.4375 18.40625 
z
" id="Arial-BoldMT-53"/>
    </defs>
    <g style="fill:#1a1c1a;" transform="translate(607.896 354.115636)scale(0.14 -0.14)">
     <use xlink:href="#Arial-BoldMT-114"/>
     <use x="38.916016" xlink:href="#Arial-BoldMT-32"/>
     <use x="66.699219" xlink:href="#Arial-BoldMT-61"/>
     <use x="125.097656" xlink:href="#Arial-BoldMT-32"/>
     <use x="152.880859" xlink:href="#Arial-BoldMT-48"/>
     <use x="208.496094" xlink:href="#Arial-BoldMT-46"/>
     <use x="236.279297" xlink:href="#Arial-BoldMT-54"/>
     <use x="291.894531" xlink:href="#Arial-BoldMT-53"/>
    </g>
   </g>
   <g id="text_45">
    <!-- Sisli -->
    <g style="fill:#1a1c1a;" transform="translate(381.422017 342.144892)scale(0.1 -0.1)">
     <use xlink:href="#ArialMT-83"/>
     <use x="66.699219" xlink:href="#ArialMT-105"/>
     <use x="88.916016" xlink:href="#ArialMT-115"/>
     <use x="138.916016" xlink:href="#ArialMT-108"/>
     <use x="161.132812" xlink:href="#ArialMT-105"/>
    </g>
   </g>
   <g id="text_46">
    <!-- Adalar -->
    <g style="fill:#1a1c1a;" transform="translate(324.760349 584.743239)scale(0.1 -0.1)">
     <use xlink:href="#ArialMT-65"/>
     <use x="66.699219" xlink:href="#ArialMT-100"/>
     <use x="122.314453" xlink:href="#ArialMT-97"/>
     <use x="177.929688" xlink:href="#ArialMT-108"/>
     <use x="200.146484" xlink:href="#ArialMT-97"/>
     <use x="255.761719" xlink:href="#ArialMT-114"/>
    </g>
   </g>
   <g id="text_47">
    <!-- Atasehir -->
    <g style="fill:#1a1c1a;" transform="translate(321.141071 481.822728)scale(0.1 -0.1)">
     <use xlink:href="#ArialMT-65"/>
     <use x="66.699219" xlink:href="#ArialMT-116"/>
     <use x="94.482422" xlink:href="#ArialMT-97"/>
     <use x="150.097656" xlink:href="#ArialMT-115"/>
     <use x="200.097656" xlink:href="#ArialMT-101"/>
     <use x="255.712891" xlink:href="#ArialMT-104"/>
     <use x="311.328125" xlink:href="#ArialMT-105"/>
     <use x="333.544922" xlink:href="#ArialMT-114"/>
    </g>
   </g>
   <g id="text_48">
    <!-- Bahcelievler -->
    <g style="fill:#1a1c1a;" transform="translate(229.000797 533.282983)scale(0.1 -0.1)">
     <use xlink:href="#ArialMT-66"/>
     <use x="66.699219" xlink:href="#ArialMT-97"/>
     <use x="122.314453" xlink:href="#ArialMT-104"/>
     <use x="177.929688" xlink:href="#ArialMT-99"/>
     <use x="227.929688" xlink:href="#ArialMT-101"/>
     <use x="283.544922" xlink:href="#ArialMT-108"/>
     <use x="305.761719" xlink:href="#ArialMT-105"/>
     <use x="327.978516" xlink:href="#ArialMT-101"/>
     <use x="383.59375" xlink:href="#ArialMT-118"/>
     <use x="433.59375" xlink:href="#ArialMT-108"/>
     <use x="455.810547" xlink:href="#ArialMT-101"/>
     <use x="511.425781" xlink:href="#ArialMT-114"/>
    </g>
   </g>
   <g id="text_49">
    <!-- Bakirkoy -->
    <g style="fill:#1a1c1a;" transform="translate(648.837011 533.22439)scale(0.1 -0.1)">
     <use xlink:href="#ArialMT-66"/>
     <use x="66.699219" xlink:href="#ArialMT-97"/>
     <use x="122.314453" xlink:href="#ArialMT-107"/>
     <use x="172.314453" xlink:href="#ArialMT-105"/>
     <use x="194.53125" xlink:href="#ArialMT-114"/>
     <use x="227.832031" xlink:href="#ArialMT-107"/>
     <use x="277.832031" xlink:href="#ArialMT-111"/>
     <use x="333.447266" xlink:href="#ArialMT-121"/>
    </g>
   </g>
   <g id="text_50">
    <!-- Besiktas -->
    <g style="fill:#1a1c1a;" transform="translate(513.991681 445.065403)scale(0.1 -0.1)">
     <use xlink:href="#ArialMT-66"/>
     <use x="66.699219" xlink:href="#ArialMT-101"/>
     <use x="122.314453" xlink:href="#ArialMT-115"/>
     <use x="172.314453" xlink:href="#ArialMT-105"/>
     <use x="194.53125" xlink:href="#ArialMT-107"/>
     <use x="244.53125" xlink:href="#ArialMT-116"/>
     <use x="272.314453" xlink:href="#ArialMT-97"/>
     <use x="327.929688" xlink:href="#ArialMT-115"/>
    </g>
   </g>
   <g id="text_51">
    <!-- Beyoglu -->
    <g style="fill:#1a1c1a;" transform="translate(233.790187 547.92732)scale(0.1 -0.1)">
     <use xlink:href="#ArialMT-66"/>
     <use x="66.699219" xlink:href="#ArialMT-101"/>
     <use x="122.314453" xlink:href="#ArialMT-121"/>
     <use x="172.314453" xlink:href="#ArialMT-111"/>
     <use x="227.929688" xlink:href="#ArialMT-103"/>
     <use x="283.544922" xlink:href="#ArialMT-108"/>
     <use x="305.761719" xlink:href="#ArialMT-117"/>
    </g>
   </g>
   <g id="text_52">
    <!-- Fatih -->
    <g style="fill:#1a1c1a;" transform="translate(258.414994 562.688844)scale(0.1 -0.1)">
     <use xlink:href="#ArialMT-70"/>
     <use x="61.083984" xlink:href="#ArialMT-97"/>
     <use x="116.699219" xlink:href="#ArialMT-116"/>
     <use x="144.482422" xlink:href="#ArialMT-105"/>
     <use x="166.699219" xlink:href="#ArialMT-104"/>
    </g>
   </g>
   <g id="text_53">
    <!-- Kadikoy -->
    <g style="fill:#1a1c1a;" transform="translate(439.66939 459.709739)scale(0.1 -0.1)">
     <use xlink:href="#ArialMT-75"/>
     <use x="66.699219" xlink:href="#ArialMT-97"/>
     <use x="122.314453" xlink:href="#ArialMT-100"/>
     <use x="177.929688" xlink:href="#ArialMT-105"/>
     <use x="200.146484" xlink:href="#ArialMT-107"/>
     <use x="250.146484" xlink:href="#ArialMT-111"/>
     <use x="305.761719" xlink:href="#ArialMT-121"/>
    </g>
   </g>
   <g id="text_54">
    <!-- Maltepe -->
    <defs>
     <path d="M 7.421875 0 
L 7.421875 71.578125 
L 21.6875 71.578125 
L 38.625 20.90625 
Q 40.96875 13.8125 42.046875 10.296875 
Q 43.265625 14.203125 45.84375 21.78125 
L 62.984375 71.578125 
L 75.734375 71.578125 
L 75.734375 0 
L 66.609375 0 
L 66.609375 59.90625 
L 45.796875 0 
L 37.25 0 
L 16.546875 60.9375 
L 16.546875 0 
z
" id="ArialMT-77"/>
     <path d="M 6.59375 -19.875 
L 6.59375 51.859375 
L 14.59375 51.859375 
L 14.59375 45.125 
Q 17.4375 49.078125 21 51.046875 
Q 24.5625 53.03125 29.640625 53.03125 
Q 36.28125 53.03125 41.359375 49.609375 
Q 46.4375 46.1875 49.015625 39.953125 
Q 51.609375 33.734375 51.609375 26.3125 
Q 51.609375 18.359375 48.75 11.984375 
Q 45.90625 5.609375 40.453125 2.21875 
Q 35.015625 -1.171875 29 -1.171875 
Q 24.609375 -1.171875 21.109375 0.6875 
Q 17.625 2.546875 15.375 5.375 
L 15.375 -19.875 
z
M 14.546875 25.640625 
Q 14.546875 15.625 18.59375 10.84375 
Q 22.65625 6.0625 28.421875 6.0625 
Q 34.28125 6.0625 38.453125 11.015625 
Q 42.625 15.96875 42.625 26.375 
Q 42.625 36.28125 38.546875 41.203125 
Q 34.46875 46.140625 28.8125 46.140625 
Q 23.1875 46.140625 18.859375 40.890625 
Q 14.546875 35.640625 14.546875 25.640625 
z
" id="ArialMT-112"/>
    </defs>
    <g style="fill:#1a1c1a;" transform="translate(282.14406 570.040309)scale(0.1 -0.1)">
     <use xlink:href="#ArialMT-77"/>
     <use x="83.300781" xlink:href="#ArialMT-97"/>
     <use x="138.916016" xlink:href="#ArialMT-108"/>
     <use x="161.132812" xlink:href="#ArialMT-116"/>
     <use x="188.916016" xlink:href="#ArialMT-101"/>
     <use x="244.53125" xlink:href="#ArialMT-112"/>
     <use x="300.146484" xlink:href="#ArialMT-101"/>
    </g>
   </g>
   <g id="text_55">
    <!-- Sariyer -->
    <g style="fill:#1a1c1a;" transform="translate(356.534944 570.042653)scale(0.1 -0.1)">
     <use xlink:href="#ArialMT-83"/>
     <use x="66.699219" xlink:href="#ArialMT-97"/>
     <use x="122.314453" xlink:href="#ArialMT-114"/>
     <use x="155.615234" xlink:href="#ArialMT-105"/>
     <use x="177.832031" xlink:href="#ArialMT-121"/>
     <use x="227.832031" xlink:href="#ArialMT-101"/>
     <use x="283.447266" xlink:href="#ArialMT-114"/>
    </g>
   </g>
   <g id="text_56">
    <!-- Uskudar -->
    <g style="fill:#1a1c1a;" transform="translate(340.972453 489.174193)scale(0.1 -0.1)">
     <use xlink:href="#ArialMT-85"/>
     <use x="72.216797" xlink:href="#ArialMT-115"/>
     <use x="122.216797" xlink:href="#ArialMT-107"/>
     <use x="172.216797" xlink:href="#ArialMT-117"/>
     <use x="227.832031" xlink:href="#ArialMT-100"/>
     <use x="283.447266" xlink:href="#ArialMT-97"/>
     <use x="339.0625" xlink:href="#ArialMT-114"/>
    </g>
   </g>
  </g>
  <g id="text_57">
   <!-- Number of institutions related to health tourism -->
   <defs>
    <path d="M 7.421875 0 
L 7.421875 71.578125 
L 21.484375 71.578125 
L 50.78125 23.78125 
L 50.78125 71.578125 
L 64.203125 71.578125 
L 64.203125 0 
L 49.703125 0 
L 20.84375 46.6875 
L 20.84375 0 
z
" id="Arial-BoldMT-78"/>
    <path d="M 6.59375 0 
L 6.59375 71.578125 
L 20.3125 71.578125 
L 20.3125 45.796875 
Q 26.65625 53.03125 35.359375 53.03125 
Q 44.828125 53.03125 51.03125 46.171875 
Q 57.234375 39.3125 57.234375 26.46875 
Q 57.234375 13.1875 50.90625 6 
Q 44.578125 -1.171875 35.546875 -1.171875 
Q 31.109375 -1.171875 26.78125 1.046875 
Q 22.46875 3.265625 19.34375 7.625 
L 19.34375 0 
z
M 20.21875 27.046875 
Q 20.21875 19 22.75 15.140625 
Q 26.3125 9.671875 32.234375 9.671875 
Q 36.765625 9.671875 39.96875 13.546875 
Q 43.171875 17.4375 43.171875 25.78125 
Q 43.171875 34.671875 39.9375 38.59375 
Q 36.71875 42.53125 31.6875 42.53125 
Q 26.765625 42.53125 23.484375 38.6875 
Q 20.21875 34.859375 20.21875 27.046875 
z
" id="Arial-BoldMT-98"/>
    <path d="M 1.171875 51.859375 
L 8.796875 51.859375 
L 8.796875 55.765625 
Q 8.796875 62.3125 10.1875 65.53125 
Q 11.578125 68.75 15.3125 70.765625 
Q 19.046875 72.796875 24.75 72.796875 
Q 30.609375 72.796875 36.234375 71.046875 
L 34.375 61.46875 
Q 31.109375 62.25 28.078125 62.25 
Q 25.09375 62.25 23.796875 60.859375 
Q 22.515625 59.46875 22.515625 55.515625 
L 22.515625 51.859375 
L 32.765625 51.859375 
L 32.765625 41.0625 
L 22.515625 41.0625 
L 22.515625 0 
L 8.796875 0 
L 8.796875 41.0625 
L 1.171875 41.0625 
z
" id="Arial-BoldMT-102"/>
   </defs>
   <g style="fill:#1a1c1a;" transform="translate(18.6525 519.6855)rotate(-90)scale(0.16 -0.16)">
    <use xlink:href="#Arial-BoldMT-78"/>
    <use x="72.216797" xlink:href="#Arial-BoldMT-117"/>
    <use x="133.300781" xlink:href="#Arial-BoldMT-109"/>
    <use x="222.216797" xlink:href="#Arial-BoldMT-98"/>
    <use x="283.300781" xlink:href="#Arial-BoldMT-101"/>
    <use x="338.916016" xlink:href="#Arial-BoldMT-114"/>
    <use x="377.832031" xlink:href="#Arial-BoldMT-32"/>
    <use x="405.615234" xlink:href="#Arial-BoldMT-111"/>
    <use x="466.699219" xlink:href="#Arial-BoldMT-102"/>
    <use x="500" xlink:href="#Arial-BoldMT-32"/>
    <use x="527.783203" xlink:href="#Arial-BoldMT-105"/>
    <use x="555.566406" xlink:href="#Arial-BoldMT-110"/>
    <use x="616.650391" xlink:href="#Arial-BoldMT-115"/>
    <use x="672.265625" xlink:href="#Arial-BoldMT-116"/>
    <use x="705.566406" xlink:href="#Arial-BoldMT-105"/>
    <use x="733.349609" xlink:href="#Arial-BoldMT-116"/>
    <use x="766.650391" xlink:href="#Arial-BoldMT-117"/>
    <use x="827.734375" xlink:href="#Arial-BoldMT-116"/>
    <use x="861.035156" xlink:href="#Arial-BoldMT-105"/>
    <use x="888.818359" xlink:href="#Arial-BoldMT-111"/>
    <use x="949.902344" xlink:href="#Arial-BoldMT-110"/>
    <use x="1010.986328" xlink:href="#Arial-BoldMT-115"/>
    <use x="1066.601562" xlink:href="#Arial-BoldMT-32"/>
    <use x="1094.384766" xlink:href="#Arial-BoldMT-114"/>
    <use x="1133.300781" xlink:href="#Arial-BoldMT-101"/>
    <use x="1188.916016" xlink:href="#Arial-BoldMT-108"/>
    <use x="1216.699219" xlink:href="#Arial-BoldMT-97"/>
    <use x="1272.314453" xlink:href="#Arial-BoldMT-116"/>
    <use x="1305.615234" xlink:href="#Arial-BoldMT-101"/>
    <use x="1361.230469" xlink:href="#Arial-BoldMT-100"/>
    <use x="1422.314453" xlink:href="#Arial-BoldMT-32"/>
    <use x="1450.097656" xlink:href="#Arial-BoldMT-116"/>
    <use x="1483.398438" xlink:href="#Arial-BoldMT-111"/>
    <use x="1544.482422" xlink:href="#Arial-BoldMT-32"/>
    <use x="1572.265625" xlink:href="#Arial-BoldMT-104"/>
    <use x="1633.349609" xlink:href="#Arial-BoldMT-101"/>
    <use x="1688.964844" xlink:href="#Arial-BoldMT-97"/>
    <use x="1744.580078" xlink:href="#Arial-BoldMT-108"/>
    <use x="1772.363281" xlink:href="#Arial-BoldMT-116"/>
    <use x="1805.664062" xlink:href="#Arial-BoldMT-104"/>
    <use x="1866.748047" xlink:href="#Arial-BoldMT-32"/>
    <use x="1894.53125" xlink:href="#Arial-BoldMT-116"/>
    <use x="1927.832031" xlink:href="#Arial-BoldMT-111"/>
    <use x="1988.916016" xlink:href="#Arial-BoldMT-117"/>
    <use x="2050" xlink:href="#Arial-BoldMT-114"/>
    <use x="2088.916016" xlink:href="#Arial-BoldMT-105"/>
    <use x="2116.699219" xlink:href="#Arial-BoldMT-115"/>
    <use x="2172.314453" xlink:href="#Arial-BoldMT-109"/>
   </g>
  </g>
 </g>
 <defs>
  <clipPath id="p00ef21fed0">
   <rect height="266.858182" width="602.64" x="65.52" y="7.2"/>
  </clipPath>
  <clipPath id="pb2d4017fa0">
   <rect height="266.858182" width="602.64" x="65.52" y="327.429818"/>
  </clipPath>
 </defs>
</svg>
