<?xml version="1.0" encoding="UTF-8" standalone="no"?>
<svg
   xmlns:dc="http://purl.org/dc/elements/1.1/"
   xmlns:cc="http://creativecommons.org/ns#"
   xmlns:rdf="http://www.w3.org/1999/02/22-rdf-syntax-ns#"
   xmlns:svg="http://www.w3.org/2000/svg"
   xmlns="http://www.w3.org/2000/svg"
   xmlns:xlink="http://www.w3.org/1999/xlink"
   xmlns:sodipodi="http://sodipodi.sourceforge.net/DTD/sodipodi-0.dtd"
   xmlns:inkscape="http://www.inkscape.org/namespaces/inkscape"
   height="638.477375pt"
   version="1.1"
   viewBox="0 0 682.798293 638.477375"
   width="682.798293pt"
   id="svg932"
   sodipodi:docname="scatterplot_tr.svg"
   inkscape:version="1.0 (4035a4fb49, 2020-05-01)"
   inkscape:export-filename="F:\Documents\Study Documents\Extracurricular\Personal Projects\Data Analysis\Data Analysis_Istanbul Health Tourism\media\figures\processed\visualize_bivariate_analysis_htourism_center_count_at_district_level\scatterplot_tr.png"
   inkscape:export-xdpi="300"
   inkscape:export-ydpi="300">
  <metadata
     id="metadata936">
    <rdf:RDF>
      <cc:Work
         rdf:about="">
        <dc:format>image/svg+xml</dc:format>
        <dc:type
           rdf:resource="http://purl.org/dc/dcmitype/StillImage" />
        <dc:title />
      </cc:Work>
    </rdf:RDF>
  </metadata>
  <sodipodi:namedview
     inkscape:document-rotation="0"
     pagecolor="#ffffff"
     bordercolor="#666666"
     borderopacity="1"
     objecttolerance="10"
     gridtolerance="10"
     guidetolerance="10"
     inkscape:pageopacity="0"
     inkscape:pageshadow="2"
     inkscape:window-width="1920"
     inkscape:window-height="986"
     id="namedview934"
     showgrid="false"
     inkscape:zoom="0.96087981"
     inkscape:cx="313.20571"
     inkscape:cy="607.09264"
     inkscape:window-x="-11"
     inkscape:window-y="-11"
     inkscape:window-maximized="1"
     inkscape:current-layer="matplotlib.axis_1" />
  <defs
     id="defs4">
    <style
       type="text/css"
       id="style2">
*{stroke-linecap:butt;stroke-linejoin:round;}
  </style>
    <path
       id="Arial-BoldMT-80-7"
       d="m 7.28125,0 v 71.578125 h 23.1875 q 13.1875,0 17.1875,-1.0625 6.15625,-1.625 10.296875,-7.015625 4.15625,-5.390625 4.15625,-13.9375 0,-6.59375 -2.390625,-11.09375 -2.390625,-4.484375 -6.078125,-7.046875 -3.6875,-2.5625 -7.5,-3.390625 Q 40.96875,27 31.15625,27 H 21.734375 V 0 Z m 14.453125,59.46875 v -20.3125 h 7.90625 q 8.546875,0 11.421875,1.125 2.890625,1.125 4.515625,3.515625 1.640625,2.390625 1.640625,5.5625 0,3.90625 -2.296875,6.4375 -2.296875,2.546875 -5.8125,3.1875 Q 36.53125,59.46875 28.71875,59.46875 Z" />
    <path
       id="Arial-BoldMT-111-5"
       d="M 4,26.65625 Q 4,33.5 7.375,39.890625 q 3.375,6.40625 9.546875,9.765625 6.171875,3.375 13.796875,3.375 11.765625,0 19.28125,-7.640625 7.515625,-7.640625 7.515625,-19.3125 0,-11.765625 -7.59375,-19.515625 -7.59375,-7.734375 -19.109375,-7.734375 -7.125,0 -13.59375,3.21875 Q 10.75,5.28125 7.375,11.5 4,17.71875 4,26.65625 Z m 14.0625,-0.734375 q 0,-7.703125 3.65625,-11.8125 3.671875,-4.09375 9.046875,-4.09375 5.375,0 9,4.09375 3.640625,4.109375 3.640625,11.921875 0,7.609375 -3.640625,11.703125 -3.625,4.109375 -9,4.109375 -5.375,0 -9.046875,-4.109375 -3.65625,-4.09375 -3.65625,-11.8125 z" />
    <path
       id="Arial-BoldMT-112-4"
       d="m 6.78125,51.859375 h 12.796875 v -7.625 q 2.5,3.90625 6.734375,6.34375 4.25,2.453125 9.4375,2.453125 9.03125,0 15.328125,-7.078125 Q 57.375,38.875 57.375,26.21875 q 0,-12.984375 -6.359375,-20.1875 -6.34375,-7.203125 -15.375,-7.203125 -4.296875,0 -7.796875,1.703125 Q 24.359375,2.25 20.515625,6.390625 v -26.125 H 6.78125 Z M 20.359375,26.8125 q 0,-8.75 3.46875,-12.921875 3.46875,-4.171875 8.453125,-4.171875 4.78125,0 7.953125,3.828125 3.171875,3.84375 3.171875,12.578125 0,8.15625 -3.28125,12.109375 -3.265625,3.953125 -8.09375,3.953125 -5.03125,0 -8.359375,-3.890625 -3.3125,-3.875 -3.3125,-11.484375 z" />
    <path
       id="Arial-BoldMT-117-2"
       d="M 41.3125,0 V 7.765625 Q 38.484375,3.609375 33.859375,1.21875 29.25,-1.171875 24.125,-1.171875 q -5.234375,0 -9.390625,2.296875 -4.140625,2.296875 -6,6.4375 -1.84375,4.15625 -1.84375,11.484375 v 32.8125 h 13.71875 V 28.03125 q 0,-10.9375 0.75,-13.40625 0.765625,-2.46875 2.765625,-3.90625 2,-1.4375 5.078125,-1.4375 3.515625,0 6.296875,1.921875 2.78125,1.9375 3.796875,4.78125 1.03125,2.859375 1.03125,14 v 21.875 h 13.71875 V 0 Z" />
    <path
       id="Arial-BoldMT-108-5"
       d="M 7.171875,0 V 71.578125 H 20.90625 V 0 Z" />
    <path
       id="Arial-BoldMT-97-6"
       d="m 17.4375,36.03125 -12.453125,2.25 q 2.09375,7.515625 7.21875,11.125 5.125,3.625 15.234375,3.625 9.1875,0 13.671875,-2.171875 4.5,-2.171875 6.328125,-5.515625 Q 49.265625,42 49.265625,33.0625 L 49.125,17.046875 q 0,-6.84375 0.65625,-10.09375 Q 50.4375,3.71875 52.25,0 H 38.671875 q -0.53125,1.375 -1.3125,4.046875 -0.34375,1.234375 -0.5,1.625 Q 33.34375,2.25 29.34375,0.53125 q -4,-1.703125 -8.546875,-1.703125 -8,0 -12.625,4.34375 Q 3.5625,7.515625 3.5625,14.15625 q 0,4.40625 2.09375,7.84375 2.109375,3.4375 5.890625,5.265625 3.78125,1.84375 10.921875,3.203125 9.609375,1.8125 13.328125,3.375 v 1.359375 q 0,3.953125 -1.953125,5.640625 -1.953125,1.6875 -7.375,1.6875 -3.671875,0 -5.71875,-1.4375 -2.046875,-1.4375 -3.3125,-5.0625 z m 18.359375,-11.125 Q 33.15625,24.03125 27.4375,22.796875 21.734375,21.578125 19.96875,20.40625 17.28125,18.5 17.28125,15.578125 q 0,-2.875 2.140625,-4.984375 Q 21.578125,8.5 24.90625,8.5 q 3.703125,0 7.078125,2.4375 2.484375,1.859375 3.265625,4.546875 0.546875,1.75 0.546875,6.6875 z" />
    <path
       id="Arial-BoldMT-116-7"
       d="m 30.953125,51.859375 v -10.9375 h -9.375 v -20.90625 q 0,-6.34375 0.265625,-7.390625 0.28125,-1.046875 1.234375,-1.734375 0.953125,-0.6875 2.3125,-0.6875 1.90625,0 5.515625,1.328125 L 32.078125,0.875 q -4.78125,-2.046875 -10.84375,-2.046875 -3.703125,0 -6.6875,1.234375 -2.96875,1.25 -4.359375,3.234375 Q 8.796875,5.28125 8.25,8.640625 7.8125,11.03125 7.8125,18.3125 V 40.921875 H 1.515625 v 10.9375 H 7.8125 V 62.15625 l 13.765625,8.015625 v -18.3125 z" />
    <path
       id="Arial-BoldMT-105-8"
       d="m 7.171875,58.890625 v 12.6875 H 20.90625 v -12.6875 z M 7.171875,0 V 51.859375 H 20.90625 V 0 Z" />
    <path
       id="Arial-BoldMT-110-6"
       d="M 54.34375,0 H 40.625 v 26.46875 q 0,8.390625 -0.875,10.859375 -0.875,2.46875 -2.859375,3.828125 -1.984375,1.375 -4.765625,1.375 -3.5625,0 -6.390625,-1.953125 Q 22.90625,38.625 21.84375,35.390625 20.796875,32.171875 20.796875,23.484375 V 0 H 7.078125 v 51.859375 h 12.75 v -7.625 q 6.78125,8.796875 17.09375,8.796875 4.53125,0 8.28125,-1.640625 3.765625,-1.640625 5.6875,-4.1875 1.9375,-2.53125 2.6875,-5.75 0.765625,-3.21875 0.765625,-9.21875 z" />
    <path
       d="m 7.28125,0 v 71.578125 h 23.1875 q 13.1875,0 17.1875,-1.0625 6.15625,-1.625 10.296875,-7.015625 4.15625,-5.390625 4.15625,-13.9375 0,-6.59375 -2.390625,-11.09375 -2.390625,-4.484375 -6.078125,-7.046875 -3.6875,-2.5625 -7.5,-3.390625 Q 40.96875,27 31.15625,27 H 21.734375 V 0 Z m 14.453125,59.46875 v -20.3125 h 7.90625 q 8.546875,0 11.421875,1.125 2.890625,1.125 4.515625,3.515625 1.640625,2.390625 1.640625,5.5625 0,3.90625 -2.296875,6.4375 -2.296875,2.546875 -5.8125,3.1875 Q 36.53125,59.46875 28.71875,59.46875 Z"
       id="path740-4" />
    <path
       d="M 4,26.65625 Q 4,33.5 7.375,39.890625 q 3.375,6.40625 9.546875,9.765625 6.171875,3.375 13.796875,3.375 11.765625,0 19.28125,-7.640625 7.515625,-7.640625 7.515625,-19.3125 0,-11.765625 -7.59375,-19.515625 -7.59375,-7.734375 -19.109375,-7.734375 -7.125,0 -13.59375,3.21875 Q 10.75,5.28125 7.375,11.5 4,17.71875 4,26.65625 Z m 14.0625,-0.734375 q 0,-7.703125 3.65625,-11.8125 3.671875,-4.09375 9.046875,-4.09375 5.375,0 9,4.09375 3.640625,4.109375 3.640625,11.921875 0,7.609375 -3.640625,11.703125 -3.625,4.109375 -9,4.109375 -5.375,0 -9.046875,-4.109375 -3.65625,-4.09375 -3.65625,-11.8125 z"
       id="path742-8" />
    <path
       d="m 6.78125,51.859375 h 12.796875 v -7.625 q 2.5,3.90625 6.734375,6.34375 4.25,2.453125 9.4375,2.453125 9.03125,0 15.328125,-7.078125 Q 57.375,38.875 57.375,26.21875 q 0,-12.984375 -6.359375,-20.1875 -6.34375,-7.203125 -15.375,-7.203125 -4.296875,0 -7.796875,1.703125 Q 24.359375,2.25 20.515625,6.390625 v -26.125 H 6.78125 Z M 20.359375,26.8125 q 0,-8.75 3.46875,-12.921875 3.46875,-4.171875 8.453125,-4.171875 4.78125,0 7.953125,3.828125 3.171875,3.84375 3.171875,12.578125 0,8.15625 -3.28125,12.109375 -3.265625,3.953125 -8.09375,3.953125 -5.03125,0 -8.359375,-3.890625 -3.3125,-3.875 -3.3125,-11.484375 z"
       id="path744-6" />
    <path
       d="M 41.3125,0 V 7.765625 Q 38.484375,3.609375 33.859375,1.21875 29.25,-1.171875 24.125,-1.171875 q -5.234375,0 -9.390625,2.296875 -4.140625,2.296875 -6,6.4375 -1.84375,4.15625 -1.84375,11.484375 v 32.8125 h 13.71875 V 28.03125 q 0,-10.9375 0.75,-13.40625 0.765625,-2.46875 2.765625,-3.90625 2,-1.4375 5.078125,-1.4375 3.515625,0 6.296875,1.921875 2.78125,1.9375 3.796875,4.78125 1.03125,2.859375 1.03125,14 v 21.875 h 13.71875 V 0 Z"
       id="path746-3" />
    <path
       d="M 7.171875,0 V 71.578125 H 20.90625 V 0 Z"
       id="path748-1" />
    <path
       d="m 17.4375,36.03125 -12.453125,2.25 q 2.09375,7.515625 7.21875,11.125 5.125,3.625 15.234375,3.625 9.1875,0 13.671875,-2.171875 4.5,-2.171875 6.328125,-5.515625 Q 49.265625,42 49.265625,33.0625 L 49.125,17.046875 q 0,-6.84375 0.65625,-10.09375 Q 50.4375,3.71875 52.25,0 H 38.671875 q -0.53125,1.375 -1.3125,4.046875 -0.34375,1.234375 -0.5,1.625 Q 33.34375,2.25 29.34375,0.53125 q -4,-1.703125 -8.546875,-1.703125 -8,0 -12.625,4.34375 Q 3.5625,7.515625 3.5625,14.15625 q 0,4.40625 2.09375,7.84375 2.109375,3.4375 5.890625,5.265625 3.78125,1.84375 10.921875,3.203125 9.609375,1.8125 13.328125,3.375 v 1.359375 q 0,3.953125 -1.953125,5.640625 -1.953125,1.6875 -7.375,1.6875 -3.671875,0 -5.71875,-1.4375 -2.046875,-1.4375 -3.3125,-5.0625 z m 18.359375,-11.125 Q 33.15625,24.03125 27.4375,22.796875 21.734375,21.578125 19.96875,20.40625 17.28125,18.5 17.28125,15.578125 q 0,-2.875 2.140625,-4.984375 Q 21.578125,8.5 24.90625,8.5 q 3.703125,0 7.078125,2.4375 2.484375,1.859375 3.265625,4.546875 0.546875,1.75 0.546875,6.6875 z"
       id="path750-7" />
    <path
       d="m 30.953125,51.859375 v -10.9375 h -9.375 v -20.90625 q 0,-6.34375 0.265625,-7.390625 0.28125,-1.046875 1.234375,-1.734375 0.953125,-0.6875 2.3125,-0.6875 1.90625,0 5.515625,1.328125 L 32.078125,0.875 q -4.78125,-2.046875 -10.84375,-2.046875 -3.703125,0 -6.6875,1.234375 -2.96875,1.25 -4.359375,3.234375 Q 8.796875,5.28125 8.25,8.640625 7.8125,11.03125 7.8125,18.3125 V 40.921875 H 1.515625 v 10.9375 H 7.8125 V 62.15625 l 13.765625,8.015625 v -18.3125 z"
       id="path752-9" />
    <path
       d="m 7.171875,58.890625 v 12.6875 H 20.90625 v -12.6875 z M 7.171875,0 V 51.859375 H 20.90625 V 0 Z"
       id="path754-0" />
    <path
       d="M 54.34375,0 H 40.625 v 26.46875 q 0,8.390625 -0.875,10.859375 -0.875,2.46875 -2.859375,3.828125 -1.984375,1.375 -4.765625,1.375 -3.5625,0 -6.390625,-1.953125 Q 22.90625,38.625 21.84375,35.390625 20.796875,32.171875 20.796875,23.484375 V 0 H 7.078125 v 51.859375 h 12.75 v -7.625 q 6.78125,8.796875 17.09375,8.796875 4.53125,0 8.28125,-1.640625 3.765625,-1.640625 5.6875,-4.1875 1.9375,-2.53125 2.6875,-5.75 0.765625,-3.21875 0.765625,-9.21875 z"
       id="path756-7" />
  </defs>
  <g
     id="figure_1">
    <g
       id="patch_1">
      <path
         d="M 0 638.477375  L 682.798293 638.477375  L 682.798293 0  L 0 0  z "
         style="fill:#ffffff;"
         id="path6" />
    </g>
    <g
       id="axes_1">
      <g
         id="patch_2">
        <path
           d="M 65.52 274.058182  L 668.16 274.058182  L 668.16 7.2  L 65.52 7.2  z "
           style="fill:#ffffff;"
           id="path9" />
      </g>
      <g
         id="PathCollection_1">
        <defs
           id="defs13">
          <path
             d="M -3.162278 3.162278  L 3.162278 3.162278  L 3.162278 -3.162278  L -3.162278 -3.162278  z "
             id="m8ccd9ed894"
             style="stroke:#02b72e;" />
        </defs>
        <g
           clip-path="url(#pe7998e055f)"
           id="g93">
          <use
             style="fill:#02b72e;stroke:#02b72e;"
             x="247.223896"
             xlink:href="#m8ccd9ed894"
             y="19.329917"
             id="use15" />
          <use
             style="fill:#02b72e;stroke:#02b72e;"
             x="106.008638"
             xlink:href="#m8ccd9ed894"
             y="261.928264"
             id="use17" />
          <use
             style="fill:#02b72e;stroke:#02b72e;"
             x="92.912727"
             xlink:href="#m8ccd9ed894"
             y="261.928264"
             id="use19" />
          <use
             style="fill:#02b72e;stroke:#02b72e;"
             x="248.781711"
             xlink:href="#m8ccd9ed894"
             y="261.928264"
             id="use21" />
          <use
             style="fill:#02b72e;stroke:#02b72e;"
             x="331.954218"
             xlink:href="#m8ccd9ed894"
             y="159.007754"
             id="use23" />
          <use
             style="fill:#02b72e;stroke:#02b72e;"
             x="127.020185"
             xlink:href="#m8ccd9ed894"
             y="261.928264"
             id="use25" />
          <use
             style="fill:#02b72e;stroke:#02b72e;"
             x="345.828161"
             xlink:href="#m8ccd9ed894"
             y="254.576799"
             id="use27" />
          <use
             style="fill:#02b72e;stroke:#02b72e;"
             x="352.463601"
             xlink:href="#m8ccd9ed894"
             y="261.928264"
             id="use29" />
          <use
             style="fill:#02b72e;stroke:#02b72e;"
             x="518.606816"
             xlink:href="#m8ccd9ed894"
             y="239.873869"
             id="use31" />
          <use
             style="fill:#02b72e;stroke:#02b72e;"
             x="440.426783"
             xlink:href="#m8ccd9ed894"
             y="210.468009"
             id="use33" />
          <use
             style="fill:#02b72e;stroke:#02b72e;"
             x="217.725144"
             xlink:href="#m8ccd9ed894"
             y="210.468009"
             id="use35" />
          <use
             style="fill:#02b72e;stroke:#02b72e;"
             x="244.259907"
             xlink:href="#m8ccd9ed894"
             y="261.928264"
             id="use37" />
          <use
             style="fill:#02b72e;stroke:#02b72e;"
             x="190.552325"
             xlink:href="#m8ccd9ed894"
             y="122.250428"
             id="use39" />
          <use
             style="fill:#02b72e;stroke:#02b72e;"
             x="228.818817"
             xlink:href="#m8ccd9ed894"
             y="254.576799"
             id="use41" />
          <use
             style="fill:#02b72e;stroke:#02b72e;"
             x="289.563686"
             xlink:href="#m8ccd9ed894"
             y="225.170939"
             id="use43" />
          <use
             style="fill:#02b72e;stroke:#02b72e;"
             x="220.107067"
             xlink:href="#m8ccd9ed894"
             y="225.170939"
             id="use45" />
          <use
             style="fill:#02b72e;stroke:#02b72e;"
             x="232.226646"
             xlink:href="#m8ccd9ed894"
             y="261.928264"
             id="use47" />
          <use
             style="fill:#02b72e;stroke:#02b72e;"
             x="238.295184"
             xlink:href="#m8ccd9ed894"
             y="254.576799"
             id="use49" />
          <use
             style="fill:#02b72e;stroke:#02b72e;"
             x="346.680848"
             xlink:href="#m8ccd9ed894"
             y="254.576799"
             id="use51" />
          <use
             style="fill:#02b72e;stroke:#02b72e;"
             x="640.767273"
             xlink:href="#m8ccd9ed894"
             y="239.873869"
             id="use53" />
          <use
             style="fill:#02b72e;stroke:#02b72e;"
             x="317.617187"
             xlink:href="#m8ccd9ed894"
             y="239.873869"
             id="use55" />
          <use
             style="fill:#02b72e;stroke:#02b72e;"
             x="342.450076"
             xlink:href="#m8ccd9ed894"
             y="239.873869"
             id="use57" />
          <use
             style="fill:#02b72e;stroke:#02b72e;"
             x="370.953833"
             xlink:href="#m8ccd9ed894"
             y="261.928264"
             id="use59" />
          <use
             style="fill:#02b72e;stroke:#02b72e;"
             x="252.819432"
             xlink:href="#m8ccd9ed894"
             y="247.225334"
             id="use61" />
          <use
             style="fill:#02b72e;stroke:#02b72e;"
             x="345.328331"
             xlink:href="#m8ccd9ed894"
             y="254.576799"
             id="use63" />
          <use
             style="fill:#02b72e;stroke:#02b72e;"
             x="365.559512"
             xlink:href="#m8ccd9ed894"
             y="136.953358"
             id="use65" />
          <use
             style="fill:#02b72e;stroke:#02b72e;"
             x="358.539138"
             xlink:href="#m8ccd9ed894"
             y="254.576799"
             id="use67" />
          <use
             style="fill:#02b72e;stroke:#02b72e;"
             x="546.42469"
             xlink:href="#m8ccd9ed894"
             y="239.873869"
             id="use69" />
          <use
             style="fill:#02b72e;stroke:#02b72e;"
             x="383.408188"
             xlink:href="#m8ccd9ed894"
             y="247.225334"
             id="use71" />
          <use
             style="fill:#02b72e;stroke:#02b72e;"
             x="498.284066"
             xlink:href="#m8ccd9ed894"
             y="247.225334"
             id="use73" />
          <use
             style="fill:#02b72e;stroke:#02b72e;"
             x="499.225404"
             xlink:href="#m8ccd9ed894"
             y="254.576799"
             id="use75" />
          <use
             style="fill:#02b72e;stroke:#02b72e;"
             x="196.985967"
             xlink:href="#m8ccd9ed894"
             y="254.576799"
             id="use77" />
          <use
             style="fill:#02b72e;stroke:#02b72e;"
             x="338.742465"
             xlink:href="#m8ccd9ed894"
             y="261.928264"
             id="use79" />
          <use
             style="fill:#02b72e;stroke:#02b72e;"
             x="286.532042"
             xlink:href="#m8ccd9ed894"
             y="247.225334"
             id="use81" />
          <use
             style="fill:#02b72e;stroke:#02b72e;"
             x="394.203245"
             xlink:href="#m8ccd9ed894"
             y="166.359219"
             id="use83" />
          <use
             style="fill:#02b72e;stroke:#02b72e;"
             x="280.003916"
             xlink:href="#m8ccd9ed894"
             y="261.928264"
             id="use85" />
          <use
             style="fill:#02b72e;stroke:#02b72e;"
             x="395.801303"
             xlink:href="#m8ccd9ed894"
             y="254.576799"
             id="use87" />
          <use
             style="fill:#02b72e;stroke:#02b72e;"
             x="239.981894"
             xlink:href="#m8ccd9ed894"
             y="261.928264"
             id="use89" />
          <use
             style="fill:#02b72e;stroke:#02b72e;"
             x="255.247431"
             xlink:href="#m8ccd9ed894"
             y="254.576799"
             id="use91" />
        </g>
      </g>
      <g
         id="matplotlib.axis_1">
        <g
           id="xtick_1">
          <g
             id="line2d_1">
            <defs
               id="defs97">
              <path
                 d="M 0 0  L 0 3.5  "
                 id="m23c893f490"
                 style="stroke:#000000;stroke-width:0.8;" />
            </defs>
            <g
               id="g101">
              <use
                 style="stroke:#000000;stroke-width:0.8;"
                 x="84.025425"
                 xlink:href="#m23c893f490"
                 y="274.058182"
                 id="use99" />
            </g>
          </g>
          <g
             id="text_1">
            <!-- 0.0 -->
            <defs
               id="defs106">
              <path
                 d="M 4.15625 35.296875  Q 4.15625 48 6.765625 55.734375  Q 9.375 63.484375 14.515625 67.671875  Q 19.671875 71.875 27.484375 71.875  Q 33.25 71.875 37.59375 69.546875  Q 41.9375 67.234375 44.765625 62.859375  Q 47.609375 58.5 49.21875 52.21875  Q 50.828125 45.953125 50.828125 35.296875  Q 50.828125 22.703125 48.234375 14.96875  Q 45.65625 7.234375 40.5 3  Q 35.359375 -1.21875 27.484375 -1.21875  Q 17.140625 -1.21875 11.234375 6.203125  Q 4.15625 15.140625 4.15625 35.296875  z M 13.1875 35.296875  Q 13.1875 17.671875 17.3125 11.828125  Q 21.4375 6 27.484375 6  Q 33.546875 6 37.671875 11.859375  Q 41.796875 17.71875 41.796875 35.296875  Q 41.796875 52.984375 37.671875 58.78125  Q 33.546875 64.59375 27.390625 64.59375  Q 21.34375 64.59375 17.71875 59.46875  Q 13.1875 52.9375 13.1875 35.296875  z "
                 id="ArialMT-48" />
              <path
                 d="M 9.078125 0  L 9.078125 10.015625  L 19.09375 10.015625  L 19.09375 0  z "
                 id="ArialMT-46" />
            </defs>
            <g
               transform="translate(75.685425 289.647557)scale(0.12 -0.12)"
               id="g114">
              <use
                 xlink:href="#ArialMT-48"
                 id="use108" />
              <use
                 x="55.615234"
                 xlink:href="#ArialMT-46"
                 id="use110" />
              <use
                 x="83.398438"
                 xlink:href="#ArialMT-48"
                 id="use112" />
            </g>
          </g>
        </g>
        <g
           id="xtick_2">
          <g
             id="line2d_2">
            <g
               id="g120">
              <use
                 style="stroke:#000000;stroke-width:0.8;"
                 x="200.671998"
                 xlink:href="#m23c893f490"
                 y="274.058182"
                 id="use118" />
            </g>
          </g>
          <g
             id="text_2">
            <!-- 0.2 -->
            <defs
               id="defs124">
              <path
                 d="M 50.34375 8.453125  L 50.34375 0  L 3.03125 0  Q 2.9375 3.171875 4.046875 6.109375  Q 5.859375 10.9375 9.828125 15.625  Q 13.8125 20.3125 21.34375 26.46875  Q 33.015625 36.03125 37.109375 41.625  Q 41.21875 47.21875 41.21875 52.203125  Q 41.21875 57.421875 37.46875 61  Q 33.734375 64.59375 27.734375 64.59375  Q 21.390625 64.59375 17.578125 60.78125  Q 13.765625 56.984375 13.71875 50.25  L 4.6875 51.171875  Q 5.609375 61.28125 11.65625 66.578125  Q 17.71875 71.875 27.9375 71.875  Q 38.234375 71.875 44.234375 66.15625  Q 50.25 60.453125 50.25 52  Q 50.25 47.703125 48.484375 43.546875  Q 46.734375 39.40625 42.65625 34.8125  Q 38.578125 30.21875 29.109375 22.21875  Q 21.1875 15.578125 18.9375 13.203125  Q 16.703125 10.84375 15.234375 8.453125  z "
                 id="ArialMT-50" />
            </defs>
            <g
               transform="translate(192.331998 289.647557)scale(0.12 -0.12)"
               id="g132">
              <use
                 xlink:href="#ArialMT-48"
                 id="use126" />
              <use
                 x="55.615234"
                 xlink:href="#ArialMT-46"
                 id="use128" />
              <use
                 x="83.398438"
                 xlink:href="#ArialMT-50"
                 id="use130" />
            </g>
          </g>
        </g>
        <g
           id="xtick_3">
          <g
             id="line2d_3">
            <g
               id="g138">
              <use
                 style="stroke:#000000;stroke-width:0.8;"
                 x="317.318572"
                 xlink:href="#m23c893f490"
                 y="274.058182"
                 id="use136" />
            </g>
          </g>
          <g
             id="text_3">
            <!-- 0.4 -->
            <defs
               id="defs142">
              <path
                 d="M 32.328125 0  L 32.328125 17.140625  L 1.265625 17.140625  L 1.265625 25.203125  L 33.9375 71.578125  L 41.109375 71.578125  L 41.109375 25.203125  L 50.78125 25.203125  L 50.78125 17.140625  L 41.109375 17.140625  L 41.109375 0  z M 32.328125 25.203125  L 32.328125 57.46875  L 9.90625 25.203125  z "
                 id="ArialMT-52" />
            </defs>
            <g
               transform="translate(308.978572 289.647557)scale(0.12 -0.12)"
               id="g150">
              <use
                 xlink:href="#ArialMT-48"
                 id="use144" />
              <use
                 x="55.615234"
                 xlink:href="#ArialMT-46"
                 id="use146" />
              <use
                 x="83.398438"
                 xlink:href="#ArialMT-52"
                 id="use148" />
            </g>
          </g>
        </g>
        <g
           id="xtick_4">
          <g
             id="line2d_4">
            <g
               id="g156">
              <use
                 style="stroke:#000000;stroke-width:0.8;"
                 x="433.965146"
                 xlink:href="#m23c893f490"
                 y="274.058182"
                 id="use154" />
            </g>
          </g>
          <g
             id="text_4">
            <!-- 0.6 -->
            <defs
               id="defs160">
              <path
                 d="M 49.75 54.046875  L 41.015625 53.375  Q 39.84375 58.546875 37.703125 60.890625  Q 34.125 64.65625 28.90625 64.65625  Q 24.703125 64.65625 21.53125 62.3125  Q 17.390625 59.28125 14.984375 53.46875  Q 12.59375 47.65625 12.5 36.921875  Q 15.671875 41.75 20.265625 44.09375  Q 24.859375 46.4375 29.890625 46.4375  Q 38.671875 46.4375 44.84375 39.96875  Q 51.03125 33.5 51.03125 23.25  Q 51.03125 16.5 48.125 10.71875  Q 45.21875 4.9375 40.140625 1.859375  Q 35.0625 -1.21875 28.609375 -1.21875  Q 17.625 -1.21875 10.6875 6.859375  Q 3.765625 14.9375 3.765625 33.5  Q 3.765625 54.25 11.421875 63.671875  Q 18.109375 71.875 29.4375 71.875  Q 37.890625 71.875 43.28125 67.140625  Q 48.6875 62.40625 49.75 54.046875  z M 13.875 23.1875  Q 13.875 18.65625 15.796875 14.5  Q 17.71875 10.359375 21.1875 8.171875  Q 24.65625 6 28.46875 6  Q 34.03125 6 38.03125 10.484375  Q 42.046875 14.984375 42.046875 22.703125  Q 42.046875 30.125 38.078125 34.390625  Q 34.125 38.671875 28.125 38.671875  Q 22.171875 38.671875 18.015625 34.390625  Q 13.875 30.125 13.875 23.1875  z "
                 id="ArialMT-54" />
            </defs>
            <g
               transform="translate(425.625146 289.647557)scale(0.12 -0.12)"
               id="g168">
              <use
                 xlink:href="#ArialMT-48"
                 id="use162" />
              <use
                 x="55.615234"
                 xlink:href="#ArialMT-46"
                 id="use164" />
              <use
                 x="83.398438"
                 xlink:href="#ArialMT-54"
                 id="use166" />
            </g>
          </g>
        </g>
        <g
           id="xtick_5">
          <g
             id="line2d_5">
            <g
               id="g174">
              <use
                 style="stroke:#000000;stroke-width:0.8;"
                 x="550.611719"
                 xlink:href="#m23c893f490"
                 y="274.058182"
                 id="use172" />
            </g>
          </g>
          <g
             id="text_5">
            <!-- 0.8 -->
            <defs
               id="defs178">
              <path
                 d="M 17.671875 38.8125  Q 12.203125 40.828125 9.5625 44.53125  Q 6.9375 48.25 6.9375 53.421875  Q 6.9375 61.234375 12.546875 66.546875  Q 18.171875 71.875 27.484375 71.875  Q 36.859375 71.875 42.578125 66.421875  Q 48.296875 60.984375 48.296875 53.171875  Q 48.296875 48.1875 45.671875 44.5  Q 43.0625 40.828125 37.75 38.8125  Q 44.34375 36.671875 47.78125 31.875  Q 51.21875 27.09375 51.21875 20.453125  Q 51.21875 11.28125 44.71875 5.03125  Q 38.234375 -1.21875 27.640625 -1.21875  Q 17.046875 -1.21875 10.546875 5.046875  Q 4.046875 11.328125 4.046875 20.703125  Q 4.046875 27.6875 7.59375 32.390625  Q 11.140625 37.109375 17.671875 38.8125  z M 15.921875 53.71875  Q 15.921875 48.640625 19.1875 45.40625  Q 22.46875 42.1875 27.6875 42.1875  Q 32.765625 42.1875 36.015625 45.375  Q 39.265625 48.578125 39.265625 53.21875  Q 39.265625 58.0625 35.90625 61.359375  Q 32.5625 64.65625 27.59375 64.65625  Q 22.5625 64.65625 19.234375 61.421875  Q 15.921875 58.203125 15.921875 53.71875  z M 13.09375 20.65625  Q 13.09375 16.890625 14.875 13.375  Q 16.65625 9.859375 20.171875 7.921875  Q 23.6875 6 27.734375 6  Q 34.03125 6 38.125 10.046875  Q 42.234375 14.109375 42.234375 20.359375  Q 42.234375 26.703125 38.015625 30.859375  Q 33.796875 35.015625 27.4375 35.015625  Q 21.234375 35.015625 17.15625 30.90625  Q 13.09375 26.8125 13.09375 20.65625  z "
                 id="ArialMT-56" />
            </defs>
            <g
               transform="translate(542.271719 289.647557)scale(0.12 -0.12)"
               id="g186">
              <use
                 xlink:href="#ArialMT-48"
                 id="use180" />
              <use
                 x="55.615234"
                 xlink:href="#ArialMT-46"
                 id="use182" />
              <use
                 x="83.398438"
                 xlink:href="#ArialMT-56"
                 id="use184" />
            </g>
          </g>
        </g>
        <g
           id="xtick_6">
          <g
             id="line2d_6">
            <g
               id="g192">
              <use
                 style="stroke:#000000;stroke-width:0.8;"
                 x="667.258293"
                 xlink:href="#m23c893f490"
                 y="274.058182"
                 id="use190" />
            </g>
          </g>
          <g
             id="text_6">
            <!-- 1.0 -->
            <defs
               id="defs196">
              <path
                 d="M 37.25 0  L 28.46875 0  L 28.46875 56  Q 25.296875 52.984375 20.140625 49.953125  Q 14.984375 46.921875 10.890625 45.40625  L 10.890625 53.90625  Q 18.265625 57.375 23.78125 62.296875  Q 29.296875 67.234375 31.59375 71.875  L 37.25 71.875  z "
                 id="ArialMT-49" />
            </defs>
            <g
               transform="translate(658.918293 289.647557)scale(0.12 -0.12)"
               id="g204">
              <use
                 xlink:href="#ArialMT-49"
                 id="use198" />
              <use
                 x="55.615234"
                 xlink:href="#ArialMT-46"
                 id="use200" />
              <use
                 x="83.398438"
                 xlink:href="#ArialMT-48"
                 id="use202" />
            </g>
          </g>
        </g>
        <g
           transform="translate(18.433689)"
           id="text_7">
          <!-- Population -->
          <defs
             id="defs217">
            <path
               d="m 7.28125,0 v 71.578125 h 23.1875 q 13.1875,0 17.1875,-1.0625 6.15625,-1.625 10.296875,-7.015625 4.15625,-5.390625 4.15625,-13.9375 0,-6.59375 -2.390625,-11.09375 -2.390625,-4.484375 -6.078125,-7.046875 -3.6875,-2.5625 -7.5,-3.390625 Q 40.96875,27 31.15625,27 H 21.734375 V 0 Z m 14.453125,59.46875 v -20.3125 h 7.90625 q 8.546875,0 11.421875,1.125 2.890625,1.125 4.515625,3.515625 1.640625,2.390625 1.640625,5.5625 0,3.90625 -2.296875,6.4375 -2.296875,2.546875 -5.8125,3.1875 Q 36.53125,59.46875 28.71875,59.46875 Z"
               id="Arial-BoldMT-80" />
            <path
               d="M 4,26.65625 Q 4,33.5 7.375,39.890625 q 3.375,6.40625 9.546875,9.765625 6.171875,3.375 13.796875,3.375 11.765625,0 19.28125,-7.640625 7.515625,-7.640625 7.515625,-19.3125 0,-11.765625 -7.59375,-19.515625 -7.59375,-7.734375 -19.109375,-7.734375 -7.125,0 -13.59375,3.21875 Q 10.75,5.28125 7.375,11.5 4,17.71875 4,26.65625 Z m 14.0625,-0.734375 q 0,-7.703125 3.65625,-11.8125 3.671875,-4.09375 9.046875,-4.09375 5.375,0 9,4.09375 3.640625,4.109375 3.640625,11.921875 0,7.609375 -3.640625,11.703125 -3.625,4.109375 -9,4.109375 -5.375,0 -9.046875,-4.109375 -3.65625,-4.09375 -3.65625,-11.8125 z"
               id="Arial-BoldMT-111" />
            <path
               d="m 6.78125,51.859375 h 12.796875 v -7.625 q 2.5,3.90625 6.734375,6.34375 4.25,2.453125 9.4375,2.453125 9.03125,0 15.328125,-7.078125 Q 57.375,38.875 57.375,26.21875 q 0,-12.984375 -6.359375,-20.1875 -6.34375,-7.203125 -15.375,-7.203125 -4.296875,0 -7.796875,1.703125 Q 24.359375,2.25 20.515625,6.390625 v -26.125 H 6.78125 Z M 20.359375,26.8125 q 0,-8.75 3.46875,-12.921875 3.46875,-4.171875 8.453125,-4.171875 4.78125,0 7.953125,3.828125 3.171875,3.84375 3.171875,12.578125 0,8.15625 -3.28125,12.109375 -3.265625,3.953125 -8.09375,3.953125 -5.03125,0 -8.359375,-3.890625 -3.3125,-3.875 -3.3125,-11.484375 z"
               id="Arial-BoldMT-112" />
            <path
               d="M 41.3125,0 V 7.765625 Q 38.484375,3.609375 33.859375,1.21875 29.25,-1.171875 24.125,-1.171875 q -5.234375,0 -9.390625,2.296875 -4.140625,2.296875 -6,6.4375 -1.84375,4.15625 -1.84375,11.484375 v 32.8125 h 13.71875 V 28.03125 q 0,-10.9375 0.75,-13.40625 0.765625,-2.46875 2.765625,-3.90625 2,-1.4375 5.078125,-1.4375 3.515625,0 6.296875,1.921875 2.78125,1.9375 3.796875,4.78125 1.03125,2.859375 1.03125,14 v 21.875 h 13.71875 V 0 Z"
               id="Arial-BoldMT-117" />
            <path
               d="M 7.171875,0 V 71.578125 H 20.90625 V 0 Z"
               id="Arial-BoldMT-108" />
            <path
               d="m 17.4375,36.03125 -12.453125,2.25 q 2.09375,7.515625 7.21875,11.125 5.125,3.625 15.234375,3.625 9.1875,0 13.671875,-2.171875 4.5,-2.171875 6.328125,-5.515625 Q 49.265625,42 49.265625,33.0625 L 49.125,17.046875 q 0,-6.84375 0.65625,-10.09375 Q 50.4375,3.71875 52.25,0 H 38.671875 q -0.53125,1.375 -1.3125,4.046875 -0.34375,1.234375 -0.5,1.625 Q 33.34375,2.25 29.34375,0.53125 q -4,-1.703125 -8.546875,-1.703125 -8,0 -12.625,4.34375 Q 3.5625,7.515625 3.5625,14.15625 q 0,4.40625 2.09375,7.84375 2.109375,3.4375 5.890625,5.265625 3.78125,1.84375 10.921875,3.203125 9.609375,1.8125 13.328125,3.375 v 1.359375 q 0,3.953125 -1.953125,5.640625 -1.953125,1.6875 -7.375,1.6875 -3.671875,0 -5.71875,-1.4375 -2.046875,-1.4375 -3.3125,-5.0625 z m 18.359375,-11.125 Q 33.15625,24.03125 27.4375,22.796875 21.734375,21.578125 19.96875,20.40625 17.28125,18.5 17.28125,15.578125 q 0,-2.875 2.140625,-4.984375 Q 21.578125,8.5 24.90625,8.5 q 3.703125,0 7.078125,2.4375 2.484375,1.859375 3.265625,4.546875 0.546875,1.75 0.546875,6.6875 z"
               id="Arial-BoldMT-97" />
            <path
               d="m 30.953125,51.859375 v -10.9375 h -9.375 v -20.90625 q 0,-6.34375 0.265625,-7.390625 0.28125,-1.046875 1.234375,-1.734375 0.953125,-0.6875 2.3125,-0.6875 1.90625,0 5.515625,1.328125 L 32.078125,0.875 q -4.78125,-2.046875 -10.84375,-2.046875 -3.703125,0 -6.6875,1.234375 -2.96875,1.25 -4.359375,3.234375 Q 8.796875,5.28125 8.25,8.640625 7.8125,11.03125 7.8125,18.3125 V 40.921875 H 1.515625 v 10.9375 H 7.8125 V 62.15625 l 13.765625,8.015625 v -18.3125 z"
               id="Arial-BoldMT-116" />
            <path
               d="m 7.171875,58.890625 v 12.6875 H 20.90625 v -12.6875 z M 7.171875,0 V 51.859375 H 20.90625 V 0 Z"
               id="Arial-BoldMT-105" />
            <path
               d="M 54.34375,0 H 40.625 v 26.46875 q 0,8.390625 -0.875,10.859375 -0.875,2.46875 -2.859375,3.828125 -1.984375,1.375 -4.765625,1.375 -3.5625,0 -6.390625,-1.953125 Q 22.90625,38.625 21.84375,35.390625 20.796875,32.171875 20.796875,23.484375 V 0 H 7.078125 v 51.859375 h 12.75 v -7.625 q 6.78125,8.796875 17.09375,8.796875 4.53125,0 8.28125,-1.640625 3.765625,-1.640625 5.6875,-4.1875 1.9375,-2.53125 2.6875,-5.75 0.765625,-3.21875 0.765625,-9.21875 z"
               id="Arial-BoldMT-110" />
          </defs>
          <text
             id="text550"
             y="307.48563"
             x="325.51569"
             style="font-weight:bold;font-size:16px;line-height:1.25;font-family:Arial;-inkscape-font-specification:'Arial Bold';stroke-width:0.75"
             xml:space="preserve"><tspan
               style="font-size:16px;stroke-width:0.75"
               y="307.48563"
               x="325.51569"
               id="tspan548"
               sodipodi:role="line">Nüfus</tspan></text>
        </g>
        <g
           id="text_8">
          <!-- 1e6 -->
          <defs
             id="defs243">
            <path
               d="M 42.09375 16.703125  L 51.171875 15.578125  Q 49.03125 7.625 43.21875 3.21875  Q 37.40625 -1.171875 28.375 -1.171875  Q 17 -1.171875 10.328125 5.828125  Q 3.65625 12.84375 3.65625 25.484375  Q 3.65625 38.578125 10.390625 45.796875  Q 17.140625 53.03125 27.875 53.03125  Q 38.28125 53.03125 44.875 45.953125  Q 51.46875 38.875 51.46875 26.03125  Q 51.46875 25.25 51.421875 23.6875  L 12.75 23.6875  Q 13.234375 15.140625 17.578125 10.59375  Q 21.921875 6.0625 28.421875 6.0625  Q 33.25 6.0625 36.671875 8.59375  Q 40.09375 11.140625 42.09375 16.703125  z M 13.234375 30.90625  L 42.1875 30.90625  Q 41.609375 37.453125 38.875 40.71875  Q 34.671875 45.796875 27.984375 45.796875  Q 21.921875 45.796875 17.796875 41.75  Q 13.671875 37.703125 13.234375 30.90625  z "
               id="ArialMT-101" />
          </defs>
          <g
             transform="translate(648.140625 303.621932)scale(0.12 -0.12)"
             id="g251">
            <use
               xlink:href="#ArialMT-49"
               id="use245" />
            <use
               x="55.615234"
               xlink:href="#ArialMT-101"
               id="use247" />
            <use
               x="111.230469"
               xlink:href="#ArialMT-54"
               id="use249" />
          </g>
        </g>
        <g
           style="stroke-linecap:butt;stroke-linejoin:round"
           id="text_7-8"
           transform="translate(146.36685,368.99416)">
          <!-- Population -->
          <defs
             id="defs217-2">
            <path
               id="path740"
               d="m 7.28125,0 v 71.578125 h 23.1875 q 13.1875,0 17.1875,-1.0625 6.15625,-1.625 10.296875,-7.015625 4.15625,-5.390625 4.15625,-13.9375 0,-6.59375 -2.390625,-11.09375 -2.390625,-4.484375 -6.078125,-7.046875 -3.6875,-2.5625 -7.5,-3.390625 Q 40.96875,27 31.15625,27 H 21.734375 V 0 Z m 14.453125,59.46875 v -20.3125 h 7.90625 q 8.546875,0 11.421875,1.125 2.890625,1.125 4.515625,3.515625 1.640625,2.390625 1.640625,5.5625 0,3.90625 -2.296875,6.4375 -2.296875,2.546875 -5.8125,3.1875 Q 36.53125,59.46875 28.71875,59.46875 Z" />
            <path
               id="path742"
               d="M 4,26.65625 Q 4,33.5 7.375,39.890625 q 3.375,6.40625 9.546875,9.765625 6.171875,3.375 13.796875,3.375 11.765625,0 19.28125,-7.640625 7.515625,-7.640625 7.515625,-19.3125 0,-11.765625 -7.59375,-19.515625 -7.59375,-7.734375 -19.109375,-7.734375 -7.125,0 -13.59375,3.21875 Q 10.75,5.28125 7.375,11.5 4,17.71875 4,26.65625 Z m 14.0625,-0.734375 q 0,-7.703125 3.65625,-11.8125 3.671875,-4.09375 9.046875,-4.09375 5.375,0 9,4.09375 3.640625,4.109375 3.640625,11.921875 0,7.609375 -3.640625,11.703125 -3.625,4.109375 -9,4.109375 -5.375,0 -9.046875,-4.109375 -3.65625,-4.09375 -3.65625,-11.8125 z" />
            <path
               id="path744"
               d="m 6.78125,51.859375 h 12.796875 v -7.625 q 2.5,3.90625 6.734375,6.34375 4.25,2.453125 9.4375,2.453125 9.03125,0 15.328125,-7.078125 Q 57.375,38.875 57.375,26.21875 q 0,-12.984375 -6.359375,-20.1875 -6.34375,-7.203125 -15.375,-7.203125 -4.296875,0 -7.796875,1.703125 Q 24.359375,2.25 20.515625,6.390625 v -26.125 H 6.78125 Z M 20.359375,26.8125 q 0,-8.75 3.46875,-12.921875 3.46875,-4.171875 8.453125,-4.171875 4.78125,0 7.953125,3.828125 3.171875,3.84375 3.171875,12.578125 0,8.15625 -3.28125,12.109375 -3.265625,3.953125 -8.09375,3.953125 -5.03125,0 -8.359375,-3.890625 -3.3125,-3.875 -3.3125,-11.484375 z" />
            <path
               id="path746"
               d="M 41.3125,0 V 7.765625 Q 38.484375,3.609375 33.859375,1.21875 29.25,-1.171875 24.125,-1.171875 q -5.234375,0 -9.390625,2.296875 -4.140625,2.296875 -6,6.4375 -1.84375,4.15625 -1.84375,11.484375 v 32.8125 h 13.71875 V 28.03125 q 0,-10.9375 0.75,-13.40625 0.765625,-2.46875 2.765625,-3.90625 2,-1.4375 5.078125,-1.4375 3.515625,0 6.296875,1.921875 2.78125,1.9375 3.796875,4.78125 1.03125,2.859375 1.03125,14 v 21.875 h 13.71875 V 0 Z" />
            <path
               id="path748"
               d="M 7.171875,0 V 71.578125 H 20.90625 V 0 Z" />
            <path
               id="path750"
               d="m 17.4375,36.03125 -12.453125,2.25 q 2.09375,7.515625 7.21875,11.125 5.125,3.625 15.234375,3.625 9.1875,0 13.671875,-2.171875 4.5,-2.171875 6.328125,-5.515625 Q 49.265625,42 49.265625,33.0625 L 49.125,17.046875 q 0,-6.84375 0.65625,-10.09375 Q 50.4375,3.71875 52.25,0 H 38.671875 q -0.53125,1.375 -1.3125,4.046875 -0.34375,1.234375 -0.5,1.625 Q 33.34375,2.25 29.34375,0.53125 q -4,-1.703125 -8.546875,-1.703125 -8,0 -12.625,4.34375 Q 3.5625,7.515625 3.5625,14.15625 q 0,4.40625 2.09375,7.84375 2.109375,3.4375 5.890625,5.265625 3.78125,1.84375 10.921875,3.203125 9.609375,1.8125 13.328125,3.375 v 1.359375 q 0,3.953125 -1.953125,5.640625 -1.953125,1.6875 -7.375,1.6875 -3.671875,0 -5.71875,-1.4375 -2.046875,-1.4375 -3.3125,-5.0625 z m 18.359375,-11.125 Q 33.15625,24.03125 27.4375,22.796875 21.734375,21.578125 19.96875,20.40625 17.28125,18.5 17.28125,15.578125 q 0,-2.875 2.140625,-4.984375 Q 21.578125,8.5 24.90625,8.5 q 3.703125,0 7.078125,2.4375 2.484375,1.859375 3.265625,4.546875 0.546875,1.75 0.546875,6.6875 z" />
            <path
               id="path752"
               d="m 30.953125,51.859375 v -10.9375 h -9.375 v -20.90625 q 0,-6.34375 0.265625,-7.390625 0.28125,-1.046875 1.234375,-1.734375 0.953125,-0.6875 2.3125,-0.6875 1.90625,0 5.515625,1.328125 L 32.078125,0.875 q -4.78125,-2.046875 -10.84375,-2.046875 -3.703125,0 -6.6875,1.234375 -2.96875,1.25 -4.359375,3.234375 Q 8.796875,5.28125 8.25,8.640625 7.8125,11.03125 7.8125,18.3125 V 40.921875 H 1.515625 v 10.9375 H 7.8125 V 62.15625 l 13.765625,8.015625 v -18.3125 z" />
            <path
               id="path754"
               d="m 7.171875,58.890625 v 12.6875 H 20.90625 v -12.6875 z M 7.171875,0 V 51.859375 H 20.90625 V 0 Z" />
            <path
               id="path756"
               d="M 54.34375,0 H 40.625 v 26.46875 q 0,8.390625 -0.875,10.859375 -0.875,2.46875 -2.859375,3.828125 -1.984375,1.375 -4.765625,1.375 -3.5625,0 -6.390625,-1.953125 Q 22.90625,38.625 21.84375,35.390625 20.796875,32.171875 20.796875,23.484375 V 0 H 7.078125 v 51.859375 h 12.75 v -7.625 q 6.78125,8.796875 17.09375,8.796875 4.53125,0 8.28125,-1.640625 3.765625,-1.640625 5.6875,-4.1875 1.9375,-2.53125 2.6875,-5.75 0.765625,-3.21875 0.765625,-9.21875 z" />
          </defs>
          <text
             xml:space="preserve"
             style="font-weight:bold;font-size:16px;line-height:1.25;font-family:Arial;-inkscape-font-specification:'Arial Bold';stroke-width:0.75"
             x="65.008804"
             y="258.91653"
             id="text550-0"><tspan
               sodipodi:role="line"
               id="tspan548-0"
               x="65.008804"
               y="258.91653"
               style="font-size:16px;stroke-width:0.75">Yıllık ortalama hanehalkı geliri (bin TL)</tspan></text>
        </g>
        <g
           transform="translate(-64.823537,455.51064)"
           id="text_7-8-0"
           style="stroke-linecap:butt;stroke-linejoin:round">
          <!-- Population -->
          <defs
             id="defs217-2-3">
            <path
               d="m 7.28125,0 v 71.578125 h 23.1875 q 13.1875,0 17.1875,-1.0625 6.15625,-1.625 10.296875,-7.015625 4.15625,-5.390625 4.15625,-13.9375 0,-6.59375 -2.390625,-11.09375 -2.390625,-4.484375 -6.078125,-7.046875 -3.6875,-2.5625 -7.5,-3.390625 Q 40.96875,27 31.15625,27 H 21.734375 V 0 Z m 14.453125,59.46875 v -20.3125 h 7.90625 q 8.546875,0 11.421875,1.125 2.890625,1.125 4.515625,3.515625 1.640625,2.390625 1.640625,5.5625 0,3.90625 -2.296875,6.4375 -2.296875,2.546875 -5.8125,3.1875 Q 36.53125,59.46875 28.71875,59.46875 Z"
               id="path878" />
            <path
               d="M 4,26.65625 Q 4,33.5 7.375,39.890625 q 3.375,6.40625 9.546875,9.765625 6.171875,3.375 13.796875,3.375 11.765625,0 19.28125,-7.640625 7.515625,-7.640625 7.515625,-19.3125 0,-11.765625 -7.59375,-19.515625 -7.59375,-7.734375 -19.109375,-7.734375 -7.125,0 -13.59375,3.21875 Q 10.75,5.28125 7.375,11.5 4,17.71875 4,26.65625 Z m 14.0625,-0.734375 q 0,-7.703125 3.65625,-11.8125 3.671875,-4.09375 9.046875,-4.09375 5.375,0 9,4.09375 3.640625,4.109375 3.640625,11.921875 0,7.609375 -3.640625,11.703125 -3.625,4.109375 -9,4.109375 -5.375,0 -9.046875,-4.109375 -3.65625,-4.09375 -3.65625,-11.8125 z"
               id="path880" />
            <path
               d="m 6.78125,51.859375 h 12.796875 v -7.625 q 2.5,3.90625 6.734375,6.34375 4.25,2.453125 9.4375,2.453125 9.03125,0 15.328125,-7.078125 Q 57.375,38.875 57.375,26.21875 q 0,-12.984375 -6.359375,-20.1875 -6.34375,-7.203125 -15.375,-7.203125 -4.296875,0 -7.796875,1.703125 Q 24.359375,2.25 20.515625,6.390625 v -26.125 H 6.78125 Z M 20.359375,26.8125 q 0,-8.75 3.46875,-12.921875 3.46875,-4.171875 8.453125,-4.171875 4.78125,0 7.953125,3.828125 3.171875,3.84375 3.171875,12.578125 0,8.15625 -3.28125,12.109375 -3.265625,3.953125 -8.09375,3.953125 -5.03125,0 -8.359375,-3.890625 -3.3125,-3.875 -3.3125,-11.484375 z"
               id="path882" />
            <path
               d="M 41.3125,0 V 7.765625 Q 38.484375,3.609375 33.859375,1.21875 29.25,-1.171875 24.125,-1.171875 q -5.234375,0 -9.390625,2.296875 -4.140625,2.296875 -6,6.4375 -1.84375,4.15625 -1.84375,11.484375 v 32.8125 h 13.71875 V 28.03125 q 0,-10.9375 0.75,-13.40625 0.765625,-2.46875 2.765625,-3.90625 2,-1.4375 5.078125,-1.4375 3.515625,0 6.296875,1.921875 2.78125,1.9375 3.796875,4.78125 1.03125,2.859375 1.03125,14 v 21.875 h 13.71875 V 0 Z"
               id="path884" />
            <path
               d="M 7.171875,0 V 71.578125 H 20.90625 V 0 Z"
               id="path886" />
            <path
               d="m 17.4375,36.03125 -12.453125,2.25 q 2.09375,7.515625 7.21875,11.125 5.125,3.625 15.234375,3.625 9.1875,0 13.671875,-2.171875 4.5,-2.171875 6.328125,-5.515625 Q 49.265625,42 49.265625,33.0625 L 49.125,17.046875 q 0,-6.84375 0.65625,-10.09375 Q 50.4375,3.71875 52.25,0 H 38.671875 q -0.53125,1.375 -1.3125,4.046875 -0.34375,1.234375 -0.5,1.625 Q 33.34375,2.25 29.34375,0.53125 q -4,-1.703125 -8.546875,-1.703125 -8,0 -12.625,4.34375 Q 3.5625,7.515625 3.5625,14.15625 q 0,4.40625 2.09375,7.84375 2.109375,3.4375 5.890625,5.265625 3.78125,1.84375 10.921875,3.203125 9.609375,1.8125 13.328125,3.375 v 1.359375 q 0,3.953125 -1.953125,5.640625 -1.953125,1.6875 -7.375,1.6875 -3.671875,0 -5.71875,-1.4375 -2.046875,-1.4375 -3.3125,-5.0625 z m 18.359375,-11.125 Q 33.15625,24.03125 27.4375,22.796875 21.734375,21.578125 19.96875,20.40625 17.28125,18.5 17.28125,15.578125 q 0,-2.875 2.140625,-4.984375 Q 21.578125,8.5 24.90625,8.5 q 3.703125,0 7.078125,2.4375 2.484375,1.859375 3.265625,4.546875 0.546875,1.75 0.546875,6.6875 z"
               id="path888" />
            <path
               d="m 30.953125,51.859375 v -10.9375 h -9.375 v -20.90625 q 0,-6.34375 0.265625,-7.390625 0.28125,-1.046875 1.234375,-1.734375 0.953125,-0.6875 2.3125,-0.6875 1.90625,0 5.515625,1.328125 L 32.078125,0.875 q -4.78125,-2.046875 -10.84375,-2.046875 -3.703125,0 -6.6875,1.234375 -2.96875,1.25 -4.359375,3.234375 Q 8.796875,5.28125 8.25,8.640625 7.8125,11.03125 7.8125,18.3125 V 40.921875 H 1.515625 v 10.9375 H 7.8125 V 62.15625 l 13.765625,8.015625 v -18.3125 z"
               id="path890" />
            <path
               d="m 7.171875,58.890625 v 12.6875 H 20.90625 v -12.6875 z M 7.171875,0 V 51.859375 H 20.90625 V 0 Z"
               id="path892" />
            <path
               d="M 54.34375,0 H 40.625 v 26.46875 q 0,8.390625 -0.875,10.859375 -0.875,2.46875 -2.859375,3.828125 -1.984375,1.375 -4.765625,1.375 -3.5625,0 -6.390625,-1.953125 Q 22.90625,38.625 21.84375,35.390625 20.796875,32.171875 20.796875,23.484375 V 0 H 7.078125 v 51.859375 h 12.75 v -7.625 q 6.78125,8.796875 17.09375,8.796875 4.53125,0 8.28125,-1.640625 3.765625,-1.640625 5.6875,-4.1875 1.9375,-2.53125 2.6875,-5.75 0.765625,-3.21875 0.765625,-9.21875 z"
               id="path894" />
          </defs>
          <text
             transform="rotate(-90)"
             id="text550-0-9"
             y="83.476974"
             x="-5.2827277"
             style="font-weight:bold;font-size:16px;line-height:1.25;font-family:Arial;-inkscape-font-specification:'Arial Bold';stroke-width:0.75"
             xml:space="preserve"><tspan
               style="font-size:16px;stroke-width:0.75"
               y="83.476974"
               x="-5.2827277"
               id="tspan548-0-9"
               sodipodi:role="line">Sağlık turizmi ile ilintili kuruluş sayısı</tspan></text>
        </g>
      </g>
      <g
         id="matplotlib.axis_2">
        <g
           id="ytick_1">
          <g
             id="line2d_7">
            <defs
               id="defs256">
              <path
                 d="M 0 0  L -3.5 0  "
                 id="me2d3e6d5b6"
                 style="stroke:#000000;stroke-width:0.8;" />
            </defs>
            <g
               id="g260">
              <use
                 style="stroke:#000000;stroke-width:0.8;"
                 x="65.52"
                 xlink:href="#me2d3e6d5b6"
                 y="261.928264"
                 id="use258" />
            </g>
          </g>
          <g
             id="text_9">
            <!-- 0 -->
            <g
               transform="translate(51.846875 266.222952)scale(0.12 -0.12)"
               id="g265">
              <use
                 xlink:href="#ArialMT-48"
                 id="use263" />
            </g>
          </g>
        </g>
        <g
           id="ytick_2">
          <g
             id="line2d_8">
            <g
               id="g271">
              <use
                 style="stroke:#000000;stroke-width:0.8;"
                 x="65.52"
                 xlink:href="#me2d3e6d5b6"
                 y="225.170939"
                 id="use269" />
            </g>
          </g>
          <g
             id="text_10">
            <!-- 5 -->
            <defs
               id="defs275">
              <path
                 d="M 4.15625 18.75  L 13.375 19.53125  Q 14.40625 12.796875 18.140625 9.390625  Q 21.875 6 27.15625 6  Q 33.5 6 37.890625 10.78125  Q 42.28125 15.578125 42.28125 23.484375  Q 42.28125 31 38.0625 35.34375  Q 33.84375 39.703125 27 39.703125  Q 22.75 39.703125 19.328125 37.765625  Q 15.921875 35.84375 13.96875 32.765625  L 5.71875 33.84375  L 12.640625 70.609375  L 48.25 70.609375  L 48.25 62.203125  L 19.671875 62.203125  L 15.828125 42.96875  Q 22.265625 47.46875 29.34375 47.46875  Q 38.71875 47.46875 45.15625 40.96875  Q 51.609375 34.46875 51.609375 24.265625  Q 51.609375 14.546875 45.953125 7.46875  Q 39.0625 -1.21875 27.15625 -1.21875  Q 17.390625 -1.21875 11.203125 4.25  Q 5.03125 9.71875 4.15625 18.75  z "
                 id="ArialMT-53" />
            </defs>
            <g
               transform="translate(51.846875 229.465627)scale(0.12 -0.12)"
               id="g279">
              <use
                 xlink:href="#ArialMT-53"
                 id="use277" />
            </g>
          </g>
        </g>
        <g
           id="ytick_3">
          <g
             id="line2d_9">
            <g
               id="g285">
              <use
                 style="stroke:#000000;stroke-width:0.8;"
                 x="65.52"
                 xlink:href="#me2d3e6d5b6"
                 y="188.413614"
                 id="use283" />
            </g>
          </g>
          <g
             id="text_11">
            <!-- 10 -->
            <g
               transform="translate(45.17375 192.708301)scale(0.12 -0.12)"
               id="g292">
              <use
                 xlink:href="#ArialMT-49"
                 id="use288" />
              <use
                 x="55.615234"
                 xlink:href="#ArialMT-48"
                 id="use290" />
            </g>
          </g>
        </g>
        <g
           id="ytick_4">
          <g
             id="line2d_10">
            <g
               id="g298">
              <use
                 style="stroke:#000000;stroke-width:0.8;"
                 x="65.52"
                 xlink:href="#me2d3e6d5b6"
                 y="151.656289"
                 id="use296" />
            </g>
          </g>
          <g
             id="text_12">
            <!-- 15 -->
            <g
               transform="translate(45.17375 155.950976)scale(0.12 -0.12)"
               id="g305">
              <use
                 xlink:href="#ArialMT-49"
                 id="use301" />
              <use
                 x="55.615234"
                 xlink:href="#ArialMT-53"
                 id="use303" />
            </g>
          </g>
        </g>
        <g
           id="ytick_5">
          <g
             id="line2d_11">
            <g
               id="g311">
              <use
                 style="stroke:#000000;stroke-width:0.8;"
                 x="65.52"
                 xlink:href="#me2d3e6d5b6"
                 y="114.898963"
                 id="use309" />
            </g>
          </g>
          <g
             id="text_13">
            <!-- 20 -->
            <g
               transform="translate(45.17375 119.193651)scale(0.12 -0.12)"
               id="g318">
              <use
                 xlink:href="#ArialMT-50"
                 id="use314" />
              <use
                 x="55.615234"
                 xlink:href="#ArialMT-48"
                 id="use316" />
            </g>
          </g>
        </g>
        <g
           id="ytick_6">
          <g
             id="line2d_12">
            <g
               id="g324">
              <use
                 style="stroke:#000000;stroke-width:0.8;"
                 x="65.52"
                 xlink:href="#me2d3e6d5b6"
                 y="78.141638"
                 id="use322" />
            </g>
          </g>
          <g
             id="text_14">
            <!-- 25 -->
            <g
               transform="translate(45.17375 82.436325)scale(0.12 -0.12)"
               id="g331">
              <use
                 xlink:href="#ArialMT-50"
                 id="use327" />
              <use
                 x="55.615234"
                 xlink:href="#ArialMT-53"
                 id="use329" />
            </g>
          </g>
        </g>
        <g
           id="ytick_7">
          <g
             id="line2d_13">
            <g
               id="g337">
              <use
                 style="stroke:#000000;stroke-width:0.8;"
                 x="65.52"
                 xlink:href="#me2d3e6d5b6"
                 y="41.384313"
                 id="use335" />
            </g>
          </g>
          <g
             id="text_15">
            <!-- 30 -->
            <defs
               id="defs341">
              <path
                 d="M 4.203125 18.890625  L 12.984375 20.0625  Q 14.5 12.59375 18.140625 9.296875  Q 21.78125 6 27 6  Q 33.203125 6 37.46875 10.296875  Q 41.75 14.59375 41.75 20.953125  Q 41.75 27 37.796875 30.921875  Q 33.84375 34.859375 27.734375 34.859375  Q 25.25 34.859375 21.53125 33.890625  L 22.515625 41.609375  Q 23.390625 41.5 23.921875 41.5  Q 29.546875 41.5 34.03125 44.421875  Q 38.53125 47.359375 38.53125 53.46875  Q 38.53125 58.296875 35.25 61.46875  Q 31.984375 64.65625 26.8125 64.65625  Q 21.6875 64.65625 18.265625 61.421875  Q 14.84375 58.203125 13.875 51.765625  L 5.078125 53.328125  Q 6.6875 62.15625 12.390625 67.015625  Q 18.109375 71.875 26.609375 71.875  Q 32.46875 71.875 37.390625 69.359375  Q 42.328125 66.84375 44.9375 62.5  Q 47.5625 58.15625 47.5625 53.265625  Q 47.5625 48.640625 45.0625 44.828125  Q 42.578125 41.015625 37.703125 38.765625  Q 44.046875 37.3125 47.5625 32.6875  Q 51.078125 28.078125 51.078125 21.140625  Q 51.078125 11.765625 44.234375 5.25  Q 37.40625 -1.265625 26.953125 -1.265625  Q 17.53125 -1.265625 11.296875 4.34375  Q 5.078125 9.96875 4.203125 18.890625  z "
                 id="ArialMT-51" />
            </defs>
            <g
               transform="translate(45.17375 45.679)scale(0.12 -0.12)"
               id="g347">
              <use
                 xlink:href="#ArialMT-51"
                 id="use343" />
              <use
                 x="55.615234"
                 xlink:href="#ArialMT-48"
                 id="use345" />
            </g>
          </g>
        </g>
      </g>
      <g
         id="patch_3">
        <path
           d="M 65.52 274.058182  L 65.52 7.2  "
           style="fill:none;stroke:#1a1c1a;stroke-linecap:square;stroke-linejoin:miter;stroke-width:1.5;"
           id="path352" />
      </g>
      <g
         id="patch_4">
        <path
           d="M 65.52 274.058182  L 668.16 274.058182  "
           style="fill:none;stroke:#1a1c1a;stroke-linecap:square;stroke-linejoin:miter;stroke-width:1.5;"
           id="path355" />
      </g>
      <g
         id="text_16">
        <!-- r = -0.01 -->
        <defs
           id="defs365">
          <path
             d="M 20.3125 0  L 6.59375 0  L 6.59375 51.859375  L 19.34375 51.859375  L 19.34375 44.484375  Q 22.609375 49.703125 25.21875 51.359375  Q 27.828125 53.03125 31.15625 53.03125  Q 35.84375 53.03125 40.1875 50.4375  L 35.9375 38.484375  Q 32.46875 40.71875 29.5 40.71875  Q 26.609375 40.71875 24.609375 39.125  Q 22.609375 37.546875 21.453125 33.390625  Q 20.3125 29.25 20.3125 16.015625  z "
             id="Arial-BoldMT-114" />
          <path
             id="Arial-BoldMT-32" />
          <path
             d="M 4.15625 39.84375  L 4.15625 52.4375  L 54.203125 52.4375  L 54.203125 39.84375  z M 4.15625 18.171875  L 4.15625 30.8125  L 54.203125 30.8125  L 54.203125 18.171875  z "
             id="Arial-BoldMT-61" />
          <path
             d="M 5.609375 19.09375  L 5.609375 32.8125  L 32.5625 32.8125  L 32.5625 19.09375  z "
             id="Arial-BoldMT-45" />
          <path
             d="M 27.4375 71.875  Q 37.84375 71.875 43.703125 64.453125  Q 50.6875 55.671875 50.6875 35.296875  Q 50.6875 14.984375 43.65625 6.109375  Q 37.84375 -1.21875 27.4375 -1.21875  Q 17 -1.21875 10.59375 6.8125  Q 4.203125 14.84375 4.203125 35.453125  Q 4.203125 55.671875 11.234375 64.546875  Q 17.046875 71.875 27.4375 71.875  z M 27.4375 60.5  Q 24.953125 60.5 23 58.90625  Q 21.046875 57.328125 19.96875 53.21875  Q 18.5625 47.90625 18.5625 35.296875  Q 18.5625 22.703125 19.828125 17.984375  Q 21.09375 13.28125 23.015625 11.71875  Q 24.953125 10.15625 27.4375 10.15625  Q 29.9375 10.15625 31.890625 11.734375  Q 33.84375 13.328125 34.90625 17.4375  Q 36.328125 22.703125 36.328125 35.296875  Q 36.328125 47.90625 35.0625 52.609375  Q 33.796875 57.328125 31.859375 58.90625  Q 29.9375 60.5 27.4375 60.5  z "
             id="Arial-BoldMT-48" />
          <path
             d="M 7.171875 0  L 7.171875 13.71875  L 20.90625 13.71875  L 20.90625 0  z "
             id="Arial-BoldMT-46" />
          <path
             d="M 39.359375 0  L 25.640625 0  L 25.640625 51.703125  Q 18.109375 44.671875 7.90625 41.3125  L 7.90625 53.765625  Q 13.28125 55.515625 19.578125 60.421875  Q 25.875 65.328125 28.21875 71.875  L 39.359375 71.875  z "
             id="Arial-BoldMT-49" />
        </defs>
        <g
           style="fill:#1a1c1a;"
           transform="translate(607.896 33.885818)scale(0.14 -0.14)"
           id="g385">
          <use
             xlink:href="#Arial-BoldMT-114"
             id="use367" />
          <use
             x="38.916016"
             xlink:href="#Arial-BoldMT-32"
             id="use369" />
          <use
             x="66.699219"
             xlink:href="#Arial-BoldMT-61"
             id="use371" />
          <use
             x="125.097656"
             xlink:href="#Arial-BoldMT-32"
             id="use373" />
          <use
             x="152.880859"
             xlink:href="#Arial-BoldMT-45"
             id="use375" />
          <use
             x="186.181641"
             xlink:href="#Arial-BoldMT-48"
             id="use377" />
          <use
             x="241.796875"
             xlink:href="#Arial-BoldMT-46"
             id="use379" />
          <use
             x="269.580078"
             xlink:href="#Arial-BoldMT-48"
             id="use381" />
          <use
             x="325.195312"
             xlink:href="#Arial-BoldMT-49"
             id="use383" />
        </g>
      </g>
    </g>
    <g
       id="axes_2">
      <g
         id="patch_5">
        <path
           d="M 65.52 594.288  L 668.16 594.288  L 668.16 327.429818  L 65.52 327.429818  z "
           style="fill:#ffffff;"
           id="path389" />
      </g>
      <g
         id="PathCollection_2">
        <g
           clip-path="url(#pda51253f7f)"
           id="g470">
          <use
             style="fill:#02b72e;stroke:#02b72e;"
             x="373.352279"
             xlink:href="#m8ccd9ed894"
             y="339.559736"
             id="use392" />
          <use
             style="fill:#02b72e;stroke:#02b72e;"
             x="114.818032"
             xlink:href="#m8ccd9ed894"
             y="582.158083"
             id="use394" />
          <use
             style="fill:#02b72e;stroke:#02b72e;"
             x="316.69061"
             xlink:href="#m8ccd9ed894"
             y="582.158083"
             id="use396" />
          <use
             style="fill:#02b72e;stroke:#02b72e;"
             x="92.912727"
             xlink:href="#m8ccd9ed894"
             y="582.158083"
             id="use398" />
          <use
             style="fill:#02b72e;stroke:#02b72e;"
             x="313.071333"
             xlink:href="#m8ccd9ed894"
             y="479.237572"
             id="use400" />
          <use
             style="fill:#02b72e;stroke:#02b72e;"
             x="97.657733"
             xlink:href="#m8ccd9ed894"
             y="582.158083"
             id="use402" />
          <use
             style="fill:#02b72e;stroke:#02b72e;"
             x="171.907397"
             xlink:href="#m8ccd9ed894"
             y="574.806618"
             id="use404" />
          <use
             style="fill:#02b72e;stroke:#02b72e;"
             x="213.119552"
             xlink:href="#m8ccd9ed894"
             y="582.158083"
             id="use406" />
          <use
             style="fill:#02b72e;stroke:#02b72e;"
             x="149.429141"
             xlink:href="#m8ccd9ed894"
             y="560.103687"
             id="use408" />
          <use
             style="fill:#02b72e;stroke:#02b72e;"
             x="220.931059"
             xlink:href="#m8ccd9ed894"
             y="530.697827"
             id="use410" />
          <use
             style="fill:#02b72e;stroke:#02b72e;"
             x="640.767273"
             xlink:href="#m8ccd9ed894"
             y="530.697827"
             id="use412" />
          <use
             style="fill:#02b72e;stroke:#02b72e;"
             x="163.127522"
             xlink:href="#m8ccd9ed894"
             y="582.158083"
             id="use414" />
          <use
             style="fill:#02b72e;stroke:#02b72e;"
             x="505.921943"
             xlink:href="#m8ccd9ed894"
             y="442.480246"
             id="use416" />
          <use
             style="fill:#02b72e;stroke:#02b72e;"
             x="173.432578"
             xlink:href="#m8ccd9ed894"
             y="574.806618"
             id="use418" />
          <use
             style="fill:#02b72e;stroke:#02b72e;"
             x="204.129863"
             xlink:href="#m8ccd9ed894"
             y="545.400757"
             id="use420" />
          <use
             style="fill:#02b72e;stroke:#02b72e;"
             x="225.720448"
             xlink:href="#m8ccd9ed894"
             y="545.400757"
             id="use422" />
          <use
             style="fill:#02b72e;stroke:#02b72e;"
             x="172.355268"
             xlink:href="#m8ccd9ed894"
             y="582.158083"
             id="use424" />
          <use
             style="fill:#02b72e;stroke:#02b72e;"
             x="164.220971"
             xlink:href="#m8ccd9ed894"
             y="574.806618"
             id="use426" />
          <use
             style="fill:#02b72e;stroke:#02b72e;"
             x="132.470585"
             xlink:href="#m8ccd9ed894"
             y="574.806618"
             id="use428" />
          <use
             style="fill:#02b72e;stroke:#02b72e;"
             x="141.040648"
             xlink:href="#m8ccd9ed894"
             y="560.103687"
             id="use430" />
          <use
             style="fill:#02b72e;stroke:#02b72e;"
             x="220.753524"
             xlink:href="#m8ccd9ed894"
             y="560.103687"
             id="use432" />
          <use
             style="fill:#02b72e;stroke:#02b72e;"
             x="250.345255"
             xlink:href="#m8ccd9ed894"
             y="560.103687"
             id="use434" />
          <use
             style="fill:#02b72e;stroke:#02b72e;"
             x="140.798555"
             xlink:href="#m8ccd9ed894"
             y="582.158083"
             id="use436" />
          <use
             style="fill:#02b72e;stroke:#02b72e;"
             x="158.664956"
             xlink:href="#m8ccd9ed894"
             y="567.455153"
             id="use438" />
          <use
             style="fill:#02b72e;stroke:#02b72e;"
             x="197.415841"
             xlink:href="#m8ccd9ed894"
             y="574.806618"
             id="use440" />
          <use
             style="fill:#02b72e;stroke:#02b72e;"
             x="431.599651"
             xlink:href="#m8ccd9ed894"
             y="457.183177"
             id="use442" />
          <use
             style="fill:#02b72e;stroke:#02b72e;"
             x="194.119352"
             xlink:href="#m8ccd9ed894"
             y="574.806618"
             id="use444" />
          <use
             style="fill:#02b72e;stroke:#02b72e;"
             x="167.331856"
             xlink:href="#m8ccd9ed894"
             y="560.103687"
             id="use446" />
          <use
             style="fill:#02b72e;stroke:#02b72e;"
             x="274.074321"
             xlink:href="#m8ccd9ed894"
             y="567.455153"
             id="use448" />
          <use
             style="fill:#02b72e;stroke:#02b72e;"
             x="170.709041"
             xlink:href="#m8ccd9ed894"
             y="567.455153"
             id="use450" />
          <use
             style="fill:#02b72e;stroke:#02b72e;"
             x="142.557758"
             xlink:href="#m8ccd9ed894"
             y="574.806618"
             id="use452" />
          <use
             style="fill:#02b72e;stroke:#02b72e;"
             x="109.471831"
             xlink:href="#m8ccd9ed894"
             y="574.806618"
             id="use454" />
          <use
             style="fill:#02b72e;stroke:#02b72e;"
             x="122.13325"
             xlink:href="#m8ccd9ed894"
             y="582.158083"
             id="use456" />
          <use
             style="fill:#02b72e;stroke:#02b72e;"
             x="348.465205"
             xlink:href="#m8ccd9ed894"
             y="567.455153"
             id="use458" />
          <use
             style="fill:#02b72e;stroke:#02b72e;"
             x="332.902715"
             xlink:href="#m8ccd9ed894"
             y="486.589037"
             id="use460" />
          <use
             style="fill:#02b72e;stroke:#02b72e;"
             x="99.788144"
             xlink:href="#m8ccd9ed894"
             y="582.158083"
             id="use462" />
          <use
             style="fill:#02b72e;stroke:#02b72e;"
             x="100.433724"
             xlink:href="#m8ccd9ed894"
             y="574.806618"
             id="use464" />
          <use
             style="fill:#02b72e;stroke:#02b72e;"
             x="159.584907"
             xlink:href="#m8ccd9ed894"
             y="582.158083"
             id="use466" />
          <use
             style="fill:#02b72e;stroke:#02b72e;"
             x="171.076214"
             xlink:href="#m8ccd9ed894"
             y="574.806618"
             id="use468" />
        </g>
      </g>
      <g
         transform="translate(0.95596362)"
         id="matplotlib.axis_3">
        <g
           id="xtick_7">
          <g
             id="line2d_14">
            <g
               id="g475">
              <use
                 height="100%"
                 width="100%"
                 style="stroke:#000000;stroke-width:0.8"
                 x="75.320694"
                 xlink:href="#m23c893f490"
                 y="594.28802"
                 id="use473" />
            </g>
          </g>
          <g
             id="text_17">
            <!-- 20 -->
            <g
               transform="matrix(0.12,0,0,-0.12,68.647572,609.87738)"
               id="g482">
              <use
                 height="100%"
                 width="100%"
                 y="0"
                 x="0"
                 xlink:href="#ArialMT-50"
                 id="use478" />
              <use
                 height="100%"
                 width="100%"
                 y="0"
                 x="55.615234"
                 xlink:href="#ArialMT-48"
                 id="use480" />
            </g>
          </g>
        </g>
        <g
           id="xtick_8">
          <g
             id="line2d_15">
            <g
               id="g488">
              <use
                 height="100%"
                 width="100%"
                 style="stroke:#000000;stroke-width:0.8"
                 x="156.01808"
                 xlink:href="#m23c893f490"
                 y="594.28802"
                 id="use486" />
            </g>
          </g>
          <g
             id="text_18">
            <!-- 40 -->
            <g
               transform="matrix(0.12,0,0,-0.12,149.34496,609.87738)"
               id="g495">
              <use
                 height="100%"
                 width="100%"
                 y="0"
                 x="0"
                 xlink:href="#ArialMT-52"
                 id="use491" />
              <use
                 height="100%"
                 width="100%"
                 y="0"
                 x="55.615234"
                 xlink:href="#ArialMT-48"
                 id="use493" />
            </g>
          </g>
        </g>
        <g
           id="xtick_9">
          <g
             id="line2d_16">
            <g
               id="g501">
              <use
                 height="100%"
                 width="100%"
                 style="stroke:#000000;stroke-width:0.8"
                 x="236.71547"
                 xlink:href="#m23c893f490"
                 y="594.28802"
                 id="use499" />
            </g>
          </g>
          <g
             id="text_19">
            <!-- 60 -->
            <g
               transform="matrix(0.12,0,0,-0.12,230.04234,609.87738)"
               id="g508">
              <use
                 height="100%"
                 width="100%"
                 y="0"
                 x="0"
                 xlink:href="#ArialMT-54"
                 id="use504" />
              <use
                 height="100%"
                 width="100%"
                 y="0"
                 x="55.615234"
                 xlink:href="#ArialMT-48"
                 id="use506" />
            </g>
          </g>
        </g>
        <g
           id="xtick_10">
          <g
             id="line2d_17">
            <g
               id="g514">
              <use
                 height="100%"
                 width="100%"
                 style="stroke:#000000;stroke-width:0.8"
                 x="317.41284"
                 xlink:href="#m23c893f490"
                 y="594.28802"
                 id="use512" />
            </g>
          </g>
          <g
             id="text_20">
            <!-- 80 -->
            <g
               transform="matrix(0.12,0,0,-0.12,310.73973,609.87738)"
               id="g521">
              <use
                 height="100%"
                 width="100%"
                 y="0"
                 x="0"
                 xlink:href="#ArialMT-56"
                 id="use517" />
              <use
                 height="100%"
                 width="100%"
                 y="0"
                 x="55.615234"
                 xlink:href="#ArialMT-48"
                 id="use519" />
            </g>
          </g>
        </g>
        <g
           id="xtick_11">
          <g
             id="line2d_18">
            <g
               id="g527">
              <use
                 height="100%"
                 width="100%"
                 style="stroke:#000000;stroke-width:0.8"
                 x="398.11023"
                 xlink:href="#m23c893f490"
                 y="594.28802"
                 id="use525" />
            </g>
          </g>
          <g
             id="text_21">
            <!-- 100 -->
            <g
               transform="matrix(0.12,0,0,-0.12,388.10055,609.87738)"
               id="g536">
              <use
                 height="100%"
                 width="100%"
                 y="0"
                 x="0"
                 xlink:href="#ArialMT-49"
                 id="use530" />
              <use
                 height="100%"
                 width="100%"
                 y="0"
                 x="55.615234"
                 xlink:href="#ArialMT-48"
                 id="use532" />
              <use
                 height="100%"
                 width="100%"
                 y="0"
                 x="111.23047"
                 xlink:href="#ArialMT-48"
                 id="use534" />
            </g>
          </g>
        </g>
        <g
           id="xtick_12">
          <g
             id="line2d_19">
            <g
               id="g542">
              <use
                 height="100%"
                 width="100%"
                 style="stroke:#000000;stroke-width:0.8"
                 x="478.80762"
                 xlink:href="#m23c893f490"
                 y="594.28802"
                 id="use540" />
            </g>
          </g>
          <g
             id="text_22">
            <!-- 120 -->
            <g
               transform="matrix(0.12,0,0,-0.12,468.79793,609.87738)"
               id="g551">
              <use
                 height="100%"
                 width="100%"
                 y="0"
                 x="0"
                 xlink:href="#ArialMT-49"
                 id="use545" />
              <use
                 height="100%"
                 width="100%"
                 y="0"
                 x="55.615234"
                 xlink:href="#ArialMT-50"
                 id="use547" />
              <use
                 height="100%"
                 width="100%"
                 y="0"
                 x="111.23047"
                 xlink:href="#ArialMT-48"
                 id="use549" />
            </g>
          </g>
        </g>
        <g
           id="xtick_13">
          <g
             id="line2d_20">
            <g
               id="g557">
              <use
                 height="100%"
                 width="100%"
                 style="stroke:#000000;stroke-width:0.8"
                 x="559.505"
                 xlink:href="#m23c893f490"
                 y="594.28802"
                 id="use555" />
            </g>
          </g>
          <g
             id="text_23">
            <!-- 140 -->
            <g
               transform="matrix(0.12,0,0,-0.12,549.49532,609.87738)"
               id="g566">
              <use
                 height="100%"
                 width="100%"
                 y="0"
                 x="0"
                 xlink:href="#ArialMT-49"
                 id="use560" />
              <use
                 height="100%"
                 width="100%"
                 y="0"
                 x="55.615234"
                 xlink:href="#ArialMT-52"
                 id="use562" />
              <use
                 height="100%"
                 width="100%"
                 y="0"
                 x="111.23047"
                 xlink:href="#ArialMT-48"
                 id="use564" />
            </g>
          </g>
        </g>
        <g
           id="xtick_14">
          <g
             id="line2d_21">
            <g
               id="g572">
              <use
                 height="100%"
                 width="100%"
                 style="stroke:#000000;stroke-width:0.8"
                 x="640.20239"
                 xlink:href="#m23c893f490"
                 y="594.28802"
                 id="use570" />
            </g>
          </g>
          <g
             id="text_24">
            <!-- 160 -->
            <g
               transform="matrix(0.12,0,0,-0.12,630.1927,609.87738)"
               id="g581">
              <use
                 height="100%"
                 width="100%"
                 y="0"
                 x="0"
                 xlink:href="#ArialMT-49"
                 id="use575" />
              <use
                 height="100%"
                 width="100%"
                 y="0"
                 x="55.615234"
                 xlink:href="#ArialMT-54"
                 id="use577" />
              <use
                 height="100%"
                 width="100%"
                 y="0"
                 x="111.23047"
                 xlink:href="#ArialMT-48"
                 id="use579" />
            </g>
          </g>
        </g>
      </g>
      <g
         id="matplotlib.axis_4">
        <g
           id="ytick_8">
          <g
             id="line2d_22">
            <g
               id="g703">
              <use
                 style="stroke:#000000;stroke-width:0.8;"
                 x="65.52"
                 xlink:href="#me2d3e6d5b6"
                 y="582.158083"
                 id="use701" />
            </g>
          </g>
          <g
             id="text_26">
            <!-- 0 -->
            <g
               transform="translate(51.846875 586.45277)scale(0.12 -0.12)"
               id="g708">
              <use
                 xlink:href="#ArialMT-48"
                 id="use706" />
            </g>
          </g>
        </g>
        <g
           id="ytick_9">
          <g
             id="line2d_23">
            <g
               id="g714">
              <use
                 style="stroke:#000000;stroke-width:0.8;"
                 x="65.52"
                 xlink:href="#me2d3e6d5b6"
                 y="545.400757"
                 id="use712" />
            </g>
          </g>
          <g
             id="text_27">
            <!-- 5 -->
            <g
               transform="translate(51.846875 549.695445)scale(0.12 -0.12)"
               id="g719">
              <use
                 xlink:href="#ArialMT-53"
                 id="use717" />
            </g>
          </g>
        </g>
        <g
           id="ytick_10">
          <g
             id="line2d_24">
            <g
               id="g725">
              <use
                 style="stroke:#000000;stroke-width:0.8;"
                 x="65.52"
                 xlink:href="#me2d3e6d5b6"
                 y="508.643432"
                 id="use723" />
            </g>
          </g>
          <g
             id="text_28">
            <!-- 10 -->
            <g
               transform="translate(45.17375 512.93812)scale(0.12 -0.12)"
               id="g732">
              <use
                 xlink:href="#ArialMT-49"
                 id="use728" />
              <use
                 x="55.615234"
                 xlink:href="#ArialMT-48"
                 id="use730" />
            </g>
          </g>
        </g>
        <g
           id="ytick_11">
          <g
             id="line2d_25">
            <g
               id="g738">
              <use
                 style="stroke:#000000;stroke-width:0.8;"
                 x="65.52"
                 xlink:href="#me2d3e6d5b6"
                 y="471.886107"
                 id="use736" />
            </g>
          </g>
          <g
             id="text_29">
            <!-- 15 -->
            <g
               transform="translate(45.17375 476.180794)scale(0.12 -0.12)"
               id="g745">
              <use
                 xlink:href="#ArialMT-49"
                 id="use741" />
              <use
                 x="55.615234"
                 xlink:href="#ArialMT-53"
                 id="use743" />
            </g>
          </g>
        </g>
        <g
           id="ytick_12">
          <g
             id="line2d_26">
            <g
               id="g751">
              <use
                 style="stroke:#000000;stroke-width:0.8;"
                 x="65.52"
                 xlink:href="#me2d3e6d5b6"
                 y="435.128781"
                 id="use749" />
            </g>
          </g>
          <g
             id="text_30">
            <!-- 20 -->
            <g
               transform="translate(45.17375 439.423469)scale(0.12 -0.12)"
               id="g758">
              <use
                 xlink:href="#ArialMT-50"
                 id="use754" />
              <use
                 x="55.615234"
                 xlink:href="#ArialMT-48"
                 id="use756" />
            </g>
          </g>
        </g>
        <g
           id="ytick_13">
          <g
             id="line2d_27">
            <g
               id="g764">
              <use
                 style="stroke:#000000;stroke-width:0.8;"
                 x="65.52"
                 xlink:href="#me2d3e6d5b6"
                 y="398.371456"
                 id="use762" />
            </g>
          </g>
          <g
             id="text_31">
            <!-- 25 -->
            <g
               transform="translate(45.17375 402.666144)scale(0.12 -0.12)"
               id="g771">
              <use
                 xlink:href="#ArialMT-50"
                 id="use767" />
              <use
                 x="55.615234"
                 xlink:href="#ArialMT-53"
                 id="use769" />
            </g>
          </g>
        </g>
        <g
           id="ytick_14">
          <g
             id="line2d_28">
            <g
               id="g777">
              <use
                 style="stroke:#000000;stroke-width:0.8;"
                 x="65.52"
                 xlink:href="#me2d3e6d5b6"
                 y="361.614131"
                 id="use775" />
            </g>
          </g>
          <g
             id="text_32">
            <!-- 30 -->
            <g
               transform="translate(45.17375 365.908818)scale(0.12 -0.12)"
               id="g784">
              <use
                 xlink:href="#ArialMT-51"
                 id="use780" />
              <use
                 x="55.615234"
                 xlink:href="#ArialMT-48"
                 id="use782" />
            </g>
          </g>
        </g>
      </g>
      <g
         id="patch_6">
        <path
           d="M 65.52 594.288  L 65.52 327.429818  "
           style="fill:none;stroke:#1a1c1a;stroke-linecap:square;stroke-linejoin:miter;stroke-width:1.5;"
           id="path789" />
      </g>
      <g
         id="patch_7">
        <path
           d="M 65.52 594.288  L 668.16 594.288  "
           style="fill:none;stroke:#1a1c1a;stroke-linecap:square;stroke-linejoin:miter;stroke-width:1.5;"
           id="path792" />
      </g>
      <g
         id="text_33">
        <!-- r = 0.65 -->
        <defs
           id="defs797">
          <path
             d="M 50.734375 54.046875  L 37.453125 52.59375  Q 36.96875 56.6875 34.90625 58.640625  Q 32.859375 60.59375 29.59375 60.59375  Q 25.25 60.59375 22.234375 56.6875  Q 19.234375 52.78125 18.453125 40.4375  Q 23.578125 46.484375 31.203125 46.484375  Q 39.796875 46.484375 45.921875 39.9375  Q 52.046875 33.40625 52.046875 23.046875  Q 52.046875 12.0625 45.59375 5.421875  Q 39.15625 -1.21875 29.046875 -1.21875  Q 18.21875 -1.21875 11.234375 7.203125  Q 4.25 15.625 4.25 34.8125  Q 4.25 54.5 11.515625 63.1875  Q 18.796875 71.875 30.421875 71.875  Q 38.578125 71.875 43.921875 67.3125  Q 49.265625 62.75 50.734375 54.046875  z M 19.625 24.125  Q 19.625 17.4375 22.703125 13.796875  Q 25.78125 10.15625 29.734375 10.15625  Q 33.546875 10.15625 36.078125 13.125  Q 38.625 16.109375 38.625 22.90625  Q 38.625 29.890625 35.890625 33.125  Q 33.15625 36.375 29.046875 36.375  Q 25.09375 36.375 22.359375 33.265625  Q 19.625 30.171875 19.625 24.125  z "
             id="Arial-BoldMT-54" />
          <path
             d="M 4.4375 18.40625  L 18.109375 19.828125  Q 18.703125 15.1875 21.578125 12.46875  Q 24.46875 9.765625 28.21875 9.765625  Q 32.515625 9.765625 35.5 13.25  Q 38.484375 16.75 38.484375 23.78125  Q 38.484375 30.375 35.515625 33.671875  Q 32.5625 36.96875 27.828125 36.96875  Q 21.921875 36.96875 17.234375 31.734375  L 6.109375 33.34375  L 13.140625 70.609375  L 49.421875 70.609375  L 49.421875 57.765625  L 23.53125 57.765625  L 21.390625 45.609375  Q 25.984375 47.90625 30.765625 47.90625  Q 39.890625 47.90625 46.234375 41.265625  Q 52.59375 34.625 52.59375 24.03125  Q 52.59375 15.1875 47.46875 8.25  Q 40.484375 -1.21875 28.078125 -1.21875  Q 18.171875 -1.21875 11.921875 4.09375  Q 5.671875 9.421875 4.4375 18.40625  z "
             id="Arial-BoldMT-53" />
        </defs>
        <g
           style="fill:#1a1c1a;"
           transform="translate(607.896 354.115636)scale(0.14 -0.14)"
           id="g815">
          <use
             xlink:href="#Arial-BoldMT-114"
             id="use799" />
          <use
             x="38.916016"
             xlink:href="#Arial-BoldMT-32"
             id="use801" />
          <use
             x="66.699219"
             xlink:href="#Arial-BoldMT-61"
             id="use803" />
          <use
             x="125.097656"
             xlink:href="#Arial-BoldMT-32"
             id="use805" />
          <use
             x="152.880859"
             xlink:href="#Arial-BoldMT-48"
             id="use807" />
          <use
             x="208.496094"
             xlink:href="#Arial-BoldMT-46"
             id="use809" />
          <use
             x="236.279297"
             xlink:href="#Arial-BoldMT-54"
             id="use811" />
          <use
             x="291.894531"
             xlink:href="#Arial-BoldMT-53"
             id="use813" />
        </g>
      </g>
    </g>
    <g
       id="text_34"
       transform="translate(0,-19.474162)">
      <!-- Number of institutions related to health tourism -->
      <defs
         id="defs822">
        <path
           d="m 7.421875,0 v 71.578125 h 14.0625 L 50.78125,23.78125 V 71.578125 H 64.203125 V 0 h -14.5 L 20.84375,46.6875 V 0 Z"
           id="Arial-BoldMT-78" />
        <path
           d="M 6.59375,0 V 71.578125 H 20.3125 v -25.78125 q 6.34375,7.234375 15.046875,7.234375 9.46875,0 15.671875,-6.859375 Q 57.234375,39.3125 57.234375,26.46875 57.234375,13.1875 50.90625,6 44.578125,-1.171875 35.546875,-1.171875 q -4.4375,0 -8.765625,2.21875 -4.3125,2.21875 -7.4375,6.578125 V 0 Z m 13.625,27.046875 q 0,-8.046875 2.53125,-11.90625 3.5625,-5.46875 9.484375,-5.46875 4.53125,0 7.734375,3.875 3.203125,3.890625 3.203125,12.234375 0,8.890625 -3.234375,12.8125 -3.21875,3.9375 -8.25,3.9375 -4.921875,0 -8.203125,-3.84375 Q 20.21875,34.859375 20.21875,27.046875 Z"
           id="Arial-BoldMT-98" />
        <path
           d="m 1.171875,51.859375 h 7.625 v 3.90625 q 0,6.546875 1.390625,9.765625 1.390625,3.21875 5.125,5.234375 3.734375,2.03125 9.4375,2.03125 5.859375,0 11.484375,-1.75 L 34.375,61.46875 Q 31.109375,62.25 28.078125,62.25 q -2.984375,0 -4.28125,-1.390625 -1.28125,-1.390625 -1.28125,-5.34375 v -3.65625 h 10.25 V 41.0625 h -10.25 V 0 H 8.796875 v 41.0625 h -7.625 z"
           id="Arial-BoldMT-102" />
      </defs>
    </g>
  </g>
  <defs
     id="defs930">
    <clipPath
       id="pe7998e055f">
      <rect
         height="266.858182"
         width="602.64"
         x="65.52"
         y="7.2"
         id="rect924" />
    </clipPath>
    <clipPath
       id="pda51253f7f">
      <rect
         height="266.858182"
         width="602.64"
         x="65.52"
         y="327.429818"
         id="rect927" />
    </clipPath>
  </defs>
</svg>
